/* XPM */
static char *power_resized[] = {
/* columns rows colors chars-per-pixel */
"64 64 225 2 ",
"   c #000202",
".  c #090908",
"X  c #110A0B",
"o  c #16110E",
"O  c #150E11",
"+  c #081513",
"@  c #181514",
"#  c #221B17",
"$  c #29221C",
"%  c #352C1C",
"&  c #1B1D24",
"*  c #002326",
"=  c #012A2D",
"-  c #172C2F",
";  c #022E33",
":  c #003135",
">  c #0B3336",
",  c #003539",
"<  c #01393D",
"1  c #0D3A3B",
"2  c #123C3C",
"3  c #2C2622",
"4  c #282927",
"5  c #302520",
"6  c #332925",
"7  c #352D2A",
"8  c #392E2B",
"9  c #35322D",
"0  c #39322C",
"q  c #283333",
"w  c #3C3533",
"e  c #3E3936",
"r  c #3D3A39",
"t  c #41352A",
"y  c #443A33",
"u  c #453A36",
"i  c #423C3A",
"p  c #1B413F",
"a  c #3D463F",
"s  c #464338",
"d  c #4B433C",
"f  c #534D3D",
"g  c #5E513E",
"h  c #0A3F40",
"j  c #363642",
"k  c #0B4142",
"l  c #0A4647",
"z  c #1A4443",
"x  c #00545C",
"c  c #244E45",
"v  c #254B4B",
"b  c #284E4E",
"n  c #33534F",
"m  c #284F51",
"M  c #2C5353",
"N  c #2A5856",
"B  c #30645F",
"V  c #3C675C",
"C  c #005F66",
"Z  c #006067",
"A  c #00636A",
"S  c #3A716D",
"D  c #474646",
"F  c #4C4943",
"G  c #554D47",
"H  c #5A5549",
"J  c #454957",
"K  c #4E5152",
"L  c #4E515A",
"P  c #585555",
"I  c #615A4B",
"U  c #6A5D4F",
"Y  c #685E55",
"T  c #5C6256",
"R  c #6A644E",
"E  c #6D6855",
"W  c #6A6558",
"Q  c #736857",
"!  c #726C5C",
"~  c #78725D",
"^  c #4D5262",
"/  c #595C69",
"(  c #4F796E",
")  c #6D6864",
"_  c #767263",
"`  c #7D7866",
"'  c #7A7668",
"]  c #7E796C",
"[  c #636775",
"{  c #7A7976",
"}  c #C1361D",
"|  c #AD422C",
" . c #D74D35",
".. c #B16A58",
"X. c #857B6A",
"o. c #827C6B",
"O. c #9A7666",
"+. c #827D73",
"@. c #C65B45",
"#. c #D06853",
"$. c #E37A67",
"%. c #598275",
"&. c #5D837A",
"*. c #7D837C",
"=. c #87816E",
"-. c #898474",
";. c #89887A",
":. c #948D7C",
">. c #97937F",
",. c #EA8370",
"<. c #72778A",
"1. c #00848E",
"2. c #038B94",
"3. c #058B95",
"4. c #0B929B",
"5. c #09969D",
"6. c #0798A2",
"7. c #179EA2",
"8. c #17A3A8",
"9. c #1CA3A9",
"0. c #00B1BE",
"q. c #22ABB3",
"w. c #2AB5B7",
"e. c #72948D",
"r. c #00B5C2",
"t. c #01B8C5",
"y. c #00BCC9",
"u. c #00C1CF",
"i. c #0DC5CE",
"p. c #00C4D3",
"a. c #04C9D6",
"s. c #12CBD6",
"d. c #00E3F3",
"f. c #00E7F8",
"g. c #00EEFF",
"h. c #00F3FF",
"j. c #00FBFF",
"k. c #898F8B",
"l. c #958F84",
"z. c #8F968C",
"x. c #8E988E",
"c. c #959183",
"v. c #9B9485",
"b. c #9D9983",
"n. c #9C9688",
"m. c #9E998B",
"M. c #979A95",
"N. c #A59A88",
"B. c #A59E93",
"V. c #A89F95",
"C. c #9DA89E",
"Z. c #A6A192",
"A. c #A8A295",
"S. c #AFA993",
"D. c #ADA895",
"F. c #ADA59A",
"G. c #B1AC96",
"H. c #B0A79C",
"J. c #B2AD9D",
"K. c #AEAAA1",
"L. c #B3ADA1",
"P. c #B9AFA2",
"I. c #A8B1AD",
"U. c #B5B1A3",
"Y. c #BAB5A5",
"T. c #BCB5AB",
"R. c #BEB9AB",
"E. c #BCB6B1",
"W. c #BEB9B5",
"Q. c #BFBDBB",
"!. c #E59887",
"~. c #CBAF9F",
"^. c #C3BDAC",
"/. c #D9B9AB",
"(. c #C5BEB1",
"). c #C2BDBA",
"_. c #C9C4AE",
"`. c #C5C1B3",
"'. c #C9C2B4",
"]. c #CEC9B5",
"[. c #C5C1BC",
"{. c #CBC7BC",
"}. c #CECABD",
"|. c #D0CBB6",
" X c #D2CDBD",
".X c #D5D1BD",
"XX c #D8D3BF",
"oX c #EBC7BF",
"OX c #CAC9C4",
"+X c #D2CDC2",
"@X c #D5CFC8",
"#X c #D6D1C4",
"$X c #D8D4C3",
"%X c #D6D3CA",
"&X c #DAD6CB",
"*X c #DED9CC",
"=X c #CED3D3",
"-X c #DEDBD3",
";X c #D3D8D9",
":X c #DFDED8",
">X c #E8D3CC",
",X c #E1DCCF",
"<X c #F5D2CA",
"1X c #F0D4CC",
"2X c #E2DED3",
"3X c #E0DFD9",
"4X c #E4E0D6",
"5X c #E5E3DA",
"6X c #E9E6DD",
"7X c #ECE8DE",
"8X c #D6DDE1",
"9X c #E6E6E1",
"0X c #EBE7E0",
"qX c #EDEBE3",
"wX c #EDEEEC",
"eX c #F1EEE6",
"rX c #F1EFE9",
"tX c #F8EEE9",
"yX c #F3F0E5",
"uX c #F4F2EC",
"iX c #F6F5F2",
"pX c #F8F6F2",
"aX c #F7F8F3",
"sX c #FAF9F5",
"dX c #FDFCFB",
/* pixels */
"g.g.g.g.g.g.g.g.g.g.g.g.g.g.g.h.h.h.h.h.h.j.h.h.g.g.g.g.g.g.g.g.g.g.g.g.g.g.g.g.g.g.g.g.g.g.g.g.g.g.g.g.g.g.g.g.g.g.g.g.g.g.g.g.",
"g.g.g.g.g.g.g.g.g.g.g.g.g.g.h.d.y.r.0.r.r.0.r.y.d.h.h.g.g.g.g.g.g.g.g.g.g.g.g.g.g.g.g.g.g.g.g.g.g.g.g.g.g.g.g.g.g.g.g.g.g.g.g.g.",
"g.g.g.g.g.g.g.g.g.g.g.g.g.h.h.p.A : : , , : : Z p.h.h.h.g.g.g.g.g.g.g.g.g.g.g.g.g.g.g.g.g.g.g.g.g.g.g.g.g.g.g.g.g.g.g.g.g.g.g.g.",
"g.g.g.g.g.g.g.g.g.g.g.g.h.d.p.4.m 8 w u i e e B q.s.y.y.d.h.g.g.g.g.g.g.g.g.g.g.g.g.g.g.g.g.g.g.g.g.g.g.g.g.g.g.g.g.g.g.g.g.g.g.",
"g.g.g.g.g.g.g.g.g.g.g.h.h.p.Z v ;.L.).).).).).I.e.S k Z p.h.h.g.g.g.g.g.g.g.g.g.g.g.g.g.g.g.g.g.g.g.g.g.g.g.g.g.g.g.g.g.g.g.g.g.",
"g.g.g.g.g.g.g.g.g.g.h.d.p.4.v H V.).).).).OX-X+XH.o.F b 4.p.d.h.g.g.h.h.h.h.h.g.g.g.g.g.g.g.g.g.g.g.g.g.g.g.g.g.g.g.g.g.g.g.g.g.",
"g.g.g.g.g.g.g.g.g.h.h.u.Z b k.B.n.X.G e y G +.H.+X%XT.+.v C p.h.h.g.h.h.h.h.h.h.g.g.g.g.g.g.g.g.g.g.g.g.g.g.g.g.g.g.g.g.g.g.g.g.",
"g.g.g.g.g.g.g.g.g.h.h.r.; 5 l.H._ n 1 : : l S e.I.[.{.V.G v 4.p.d.d.y.0.0.0.0.u.d.h.g.g.g.g.g.g.g.g.g.g.g.g.g.g.g.g.g.g.g.g.g.g.",
"g.g.g.g.g.g.g.g.g.h.j.r.: # ! ' w 2 2.r.r.t.s.q.n F o.n.Z.*.M A a.a.A ; ; ; ; A p.h.h.g.g.g.g.g.g.g.g.g.g.g.g.g.g.g.g.g.g.g.g.g.",
"g.g.g.g.g.g.g.g.g.d.p.4.m F +.! # , t.j.j.j.h.p.A - n ] (.F.8 * 2.6.N e y y 8 b 4.p.d.g.g.g.g.g.g.g.g.g.g.g.g.g.g.g.g.g.g.g.g.g.",
"g.g.g.g.g.g.h.h.h.y.A b k.T.(.l.3 , t.j.j.h.h.d.p.2.1 F L.H.9   * N M.OX).(.K.-.v Z p.h.h.g.g.g.g.g.g.g.g.g.g.g.g.g.g.g.g.g.g.g.",
"g.g.g.g.g.g.h.h.h.r.: 3 +.(.(.;.3 * 1.r.r.u.d.j.h.r., 9 K.U.s + $ P K.@XOX[.[.B.H v 4.p.d.h.g.g.g.g.g.g.g.g.g.g.g.g.g.g.g.g.g.g.",
"g.g.g.g.g.h.h.h.j.0., @ I X.o.G @   = : : Z p.j.j.r.: w E.[.W f ;.m.-.W F G X.v.B.*.b Z p.h.g.g.g.g.g.g.g.g.g.g.g.g.g.g.g.g.g.g.",
"g.g.g.g.h.d.y.r.r.2.> $ I ' ` W F r r w 8 m 4.p.f.r., e Q.@X~ E T.T.H 4 ; 1 n ] (.F.8 ; 0.h.h.g.g.g.g.g.g.g.g.g.g.g.g.g.g.g.g.g.",
"g.g.g.h.j.p.Z : , > q U m.R.^.E.W.).).E.K.*.v A p.r., e Q.#X~ W T.L.u > 2.2.h d L.F.8 : 0.h.h.g.g.g.g.g.g.g.g.g.g.g.g.g.g.g.g.g.",
"g.g.g.d.p.4.b 8 0 d ! v.~./././.-X9X5X0X7XL.u l y.y., e Q.%X] ~ T.A.7 , y.y.< 9 F.F.0 , 0.h.g.g.g.g.g.g.g.g.g.g.g.g.g.g.g.g.g.g.",
"g.h.h.y.A b *.F.T.).@X|.!.#.#...N.P.K.Q.9XOXY B i.t.< e W.-X:.-.(.V.7 < t.y., 9 A.A.8 , 0.h.g.g.g.g.g.g.g.g.g.g.g.g.g.g.g.g.g.g.",
"g.h.h.0.: 7 V.qXdXdXdX1X$. .} | ..O.O.N.>X-Xv.e.w.5.= e Q.2Xb.c.OXK.9 < r.y., 9 L.K.w , 0.h.h.g.g.g.g.g.g.g.g.g.g.g.g.g.g.g.g.g.",
"g.h.h.0.: 6 V.7XdXdXdX<X$. . . .@.@.| ..>XwXOXB.%.c + r Q.-Xb.v.&XE.w , r.t., e E.E.e , 0.h.h.g.g.g.g.g.g.g.g.g.g.g.g.g.g.g.g.g.",
"g.g.h.0., 8 B.5XuXsXdX1X!.,.,.,.$.$.#.$.>XsXqXR.Q % . r Q.-Xm.v.%XT.d l y.y.k F OX[.y : 0.h.h.g.g.g.g.g.g.h.h.h.h.g.g.g.g.g.g.g.",
"g.h.h.0., 8 B.2X2X6XuXtX1X<X<X<X<X<XoX1XqXdXiX X` 0 . a Q.4Xb.:.^.G.I N a.i.N W @X[.i ; 0.h.h.g.g.g.h.h.h.h.h.h.h.h.g.g.g.g.g.g.",
"g.h.h.0.: 7 V.*X*X2XuXdXdXsXdXaXrXqXqXqX7XtXpX-Xm.H $ s W.}.*.~ G.G.Q V 7.8.( =.K.M.M Z u.h.g.g.g.g.h.d.p.0.0.0.0.p.d.h.h.g.g.g.",
"g.h.h.0.: 7 V.,X,X2XaXdXdXsXdXrX*X.X.X.X X,XrXeX+Xc.H H R.U.D a b.U.=.K 2 N z.B.P N 6.y.d.g.g.g.g.h.h.p.Z , , , : A p.h.h.g.g.g.",
"g.g.h.u.Z M z.'.+X2XwXaXaXaXrX5X X`.].|.|.$X2XeX7XR.E E R.K.D 9 ` b.:.E $ u K.F.8 : t.j.h.g.g.h.g.d.p.3.> X O O X > 2.p.d.h.g.g.",
"g.g.g.d.p.9.&.:.(.,X2X6XiXuX6X-XOXOX=X2X2X*XXX*XqX}._ ~ R.R.' d 9 F b.>.f I Y.D.7 : t.j.j.h.h.h.h.p.A , q j J D j - > Z y.h.g.g.",
"g.g.g.h.j.i.B U P.,X*X2XrXuX2X&X=X=X:X2X%X|._..XyX-Xz.-.A.J.m.W # 4 b.G.R E U.D.s = 1.p.d.h.h.d.p.1.* O j ^ ^ / / L i M 6.p.d.g.",
"g.g.g.h.h.t.h y F.,X*X2XiXaX0X2X3X3X,X}.J.D.Y..XeXqX}.Z.` o.L.l.4 4 b.G.R R G.D.g 4 = A p.j.j.p.A *   O J ^ ^ / +.M.T.z.M A p.h.",
"g.g.g.g.h.u.Z M z.'.#X2XrXiX0X2X#X#X&X XU.D.^.$XqXpX7XR.E E R.K.s 9 ` ;.~ ~ >.b.X.I y m 4.t.t.3.2 O O 4 / [ ^ ^ { B.).M.6 , 0.h.",
"g.g.g.g.g.d.p.9.&.:.^.,X4X5X6X#XU.U.#X-X%X+X.X*XyXsXpX{._ ! ^.(.` s a f :.>.~ ~ >.G.J.*.m : : 2 D F j J <.<.^ J L / [ K @ , r.h.",
"g.g.g.g.g.h.h.i.B U P.,X*X,X0X*XU.U.#X5X3X:X2X6XuXsXdX*Xv.-.A.J.m.R + # *.>.X.~ -.Z.^.Z.G 3 6 F ] +.^ ^ <.<.^ j L / [ K @ , r.h.",
"g.g.g.g.g.h.h.t.2 y F.,X*X2XuXrX&X#X-X:X=X;X9XuXaXsXdX7X{.Z.` o.J.z.4 o s ~ >.:.d a _ :.c.b.B.L.(.A.[ L [ [ J J +.B.).M.6 , 0.h.",
"g.g.g.g.g.g.h.u.Z M z.'.+X2XrXiXeXqXqX5X;X8XwXsXaXaXaXiXqXR.E E Y.U.f 4 c %.-.=.D s ! >.G.Y.`.R.K.k.K j ^ / ^ / { B.T.x.M A p.h.",
"g.g.g.g.g.g.g.d.p.9.&.:._.*X4X5XuXpXuXuXwXwXaXsXaXdXaXaXaX{._ ! R._.` S q.8.m s ` N.G.D.>.-.:.*.s $ @ & j ^ / / / P i M 4.p.d.h.",
"g.g.g.g.g.g.g.h.h.i.B U P.*X*X2XuXsXsXaXsXuXeX7X7X7XqXyXaX-Xv.-.Z.H.m.e.q.6.x z *.N.S.b.:.;.;.~ % +   + & j J J j q ; A a.h.h.g.",
"g.g.g.g.g.g.g.h.h.t.k y F.,X>X2XuXdXsXsXsXrX*X.X.X X.X*XuXqX}.Z.` =.J.M.N C 6.5.b t g X.N.Y.Y.>.! r o   . X @ O . > 1.p.d.h.g.g.",
"g.g.g.g.g.g.g.g.h.u.C M z.'.#X2XrXsXaXaXuX5X+X[.].|.].$X5XqX7XR.E E Y.L.d l p.a.A < c ( ;.N.G.G.b.W @ . = < < , ; A p.h.h.g.g.g.",
"g.g.g.g.g.g.g.g.h.d.p.9.&.:.(.,X4X5XuXuX6X%XOXOX%X,X,X*XXX,X7X}._ ! ^.^.' S s.g.p.r.i.7.b y _ v.D.-.3 = 1.r.r.0.0.p.d.h.g.g.g.g.",
"g.g.g.g.g.g.g.g.g.h.h.i.B U P.,X&X4XuXuX5X%X=X=X2X2X%X}._..XyX*Xn.=.A.H.N.e.9.y.f.j.j.p.A > a ' Y.Z.8 , r.j.h.h.h.h.g.g.g.g.g.g.",
"g.g.g.g.g.g.g.g.g.h.h.r.k y F.,X*X4XaXsX6X2X:X:X*X XJ.D.Y..XeXqX}.Z.` o.J.M.M A p.j.j.d.p.2.1 G `.T.e , r.j.h.h.h.g.g.g.g.g.g.g.",
"g.g.g.g.g.g.g.g.g.h.h.u.Z M z.'.#X2XrXuXqX2X%X#X*X}.U.D.^.$XqXpXqXR.E E R.E.Y m 4.p.d.j.j.t.< F [.[.r , 0.h.h.g.g.g.g.g.g.g.g.g.",
"g.g.g.g.g.g.g.g.g.g.g.d.p.9.&.:.^.,X2X4X6X%XL.U.#X-X%X+X#X&XuXsXpX{._ ! Y.*XOXx.m C y.j.j.i.N I +X).r , 0.h.h.g.g.g.g.g.g.g.g.g.",
"g.g.g.g.g.g.g.g.g.g.g.h.h.i.B U P.,X*X,X7X&XU.J.%X4X4X:X4X6XuXsXdX-Xn.o.Z.].eX+X) m 4.r.r.8.%.v.,XE.w : 0.h.g.g.g.g.g.g.g.g.g.g.",
"g.g.g.g.g.g.g.g.g.g.g.h.h.t.k y F.,X*X4XuXwX*X#X:X:X=X;X9XuXaXsXdXqX{.Z.` -.}.5XOXM.N ; ; N C.2X6XH.8 ; 0.h.h.g.g.g.g.g.g.g.g.g.",
"g.g.g.g.g.g.g.g.g.g.g.h.h.y.Z M z.'.+X2XrXaXeXqXqX5X;X;X9XqXqXqXqXqX7XR.E H ;.R.5XQ.Y 7 9 ) [.2X^.{ b Z u.h.h.g.g.g.g.g.g.g.g.g.",
"g.g.g.g.g.g.g.g.g.g.g.g.g.d.p.9.&.:.(.,X2X6XeXuXuXuXwX9X$X.X.X X X*XeX+X' s 9 P A.).H.L.E.[.{.B.G v 4.p.d.g.g.g.g.g.g.g.g.g.g.g.",
"g.g.g.g.g.g.g.g.g.g.g.g.g.h.h.i.B U P.,X*X2XrXdXsXaXuX7X}.`.].].|.$X6X%XN.H @ @ H :.B.L.).U.l.W p A p.h.h.g.g.g.g.g.g.g.g.g.g.g.",
"g.g.g.g.g.g.g.g.g.g.g.g.g.h.h.t.2 y F.,X,X2XaXdXsXuX6X&XOXOX%X2X,X*X$X$X&XM.7   @ 3 9 w e w $ z 3.p.d.h.g.g.g.g.g.g.g.g.g.g.g.g.",
"g.g.g.g.g.g.g.g.g.g.g.g.g.h.h.u.Z M z.'.+X2XuXdXaXuX4X=X=X;X-X2X$X}._.XXuXOXF + ; < , , , ; : A p.h.h.g.g.g.g.g.g.g.g.g.g.g.g.g.",
"g.g.g.g.g.g.g.g.g.g.g.g.g.g.g.d.p.9.&.:.^.2XeXuXpXrX6X2X3X:X-X+XJ.Z.^.$XrXOX! M 5.y.r.0.0.0.0.p.d.h.g.g.g.g.g.g.g.g.g.g.g.g.g.g.",
"g.g.g.g.g.g.g.g.g.g.g.g.g.g.g.g.j.i.B U P.2X2XeXiXiXeX2X$X#X&X XJ.S.^.$XtX-XN.&.9.a.f.h.h.h.h.h.h.g.g.g.g.g.g.g.g.g.g.g.g.g.g.g.",
"g.g.g.g.g.g.g.g.g.g.g.g.g.g.g.h.h.t.h y F.,X,X6XpXsXeX+XL.U.+X2X$X#X+X,XeXqX Xz.N A p.h.h.h.h.g.g.g.g.g.g.g.g.g.g.g.g.g.g.g.g.g.",
"g.g.g.g.g.g.g.g.g.g.g.g.g.g.g.g.h.u.Z M z.'.$X2XuXsXrX&XP.L.%X3X4X:X2X7XiXaXrXK.8 , 0.h.h.g.g.g.g.g.g.g.g.g.g.g.g.g.g.g.g.g.g.g.",
"g.g.g.g.g.g.g.g.g.g.g.g.g.g.g.g.g.d.p.9.&.:.(.2XqXuXaXrX-X+X3X:X=X;XwXsXdXdXdXW.w ; 0.h.g.g.g.g.g.g.g.g.g.g.g.g.g.g.g.g.g.g.g.g.",
"g.g.g.g.g.g.g.g.g.g.g.g.g.g.g.g.g.h.h.i.V U P.2X7XrXdXdXrXeXqX9X;X8XwXaXaXaXdXW.w , 0.h.h.g.g.g.g.g.g.g.g.g.g.g.g.g.g.g.g.g.g.g.",
"g.g.g.g.g.g.g.g.g.g.g.g.g.g.g.g.g.h.h.r.h y F.2X7XrXdXdXdXdXsXsXiXwX9X3X4X5X6XK.9 , 0.h.h.g.g.g.g.g.g.g.g.g.g.g.g.g.g.g.g.g.g.g.",
"g.g.g.g.g.g.g.g.g.g.g.g.g.g.g.g.g.h.h.y.Z M z.|.2XrXuXaXaXpXiXsXaXuX4X&X&X>X#Xn.6 : 0.h.h.g.g.g.g.g.g.g.g.g.g.g.g.g.g.g.g.g.g.g.",
"g.g.g.g.g.g.g.g.g.g.g.g.g.g.g.g.g.g.g.d.p.9.&.c.+X7X6X2X2X2X4X5X4X4X2X*X,X$X^.X.$ : 0.h.h.g.g.g.g.g.g.g.g.g.g.g.g.g.g.g.g.g.g.g.",
"g.g.g.g.g.g.g.g.g.g.g.g.g.g.g.g.g.g.g.h.h.i.B Q '.eX2X*X*X*X,X$X X).H.Z.Z.n.+.W z A u.h.g.g.g.g.g.g.g.g.g.g.g.g.g.g.g.g.g.g.g.g.",
"g.g.g.g.g.g.g.g.g.g.g.g.g.g.g.g.g.g.g.h.h.r.k u ^.eX4X,X,X,X2X+X^.:.G 6 7 6 $ p 4.p.d.g.g.g.g.g.g.g.g.g.g.g.g.g.g.g.g.g.g.g.g.g.",
"g.g.g.g.g.g.g.g.g.g.g.g.g.g.g.g.g.g.g.h.h.u.Z M k.L.F.V.B.V.V.b.=.T z , , : : Z p.h.h.g.g.g.g.g.g.g.g.g.g.g.g.g.g.g.g.g.g.g.g.g.",
"g.g.g.g.g.g.g.g.g.g.g.g.g.g.g.g.g.g.g.g.h.d.p.4.M 8 8 7 8 7 9 6 $ z 3.r.r.0.0.u.d.h.g.g.g.g.g.g.g.g.g.g.g.g.g.g.g.g.g.g.g.g.g.g.",
"g.g.g.g.g.g.g.g.g.g.g.g.g.g.g.g.g.g.g.g.g.h.h.p.A : , , < < , , < A p.h.h.h.h.h.g.g.g.g.g.g.g.g.g.g.g.g.g.g.g.g.g.g.g.g.g.g.g.g.",
"g.g.g.g.g.g.g.g.g.g.g.g.g.g.g.g.g.g.g.g.g.g.h.d.p.0.r.r.r.0.r.0.0.p.d.h.h.h.h.h.g.g.g.g.g.g.g.g.g.g.g.g.g.g.g.g.g.g.g.g.g.g.g.g.",
"g.g.g.g.g.g.g.g.g.g.g.g.g.g.g.g.g.g.g.g.g.g.g.g.h.h.h.h.h.h.h.j.h.h.g.g.g.g.g.g.g.g.g.g.g.g.g.g.g.g.g.g.g.g.g.g.g.g.g.g.g.g.g.g."
};
