/* XPM */
static char *rubber_ducktopus_resized[] = {
/* columns rows colors chars-per-pixel */
"64 64 238 2 ",
"   c #000101",
".  c #030806",
"X  c #110011",
"o  c #351900",
"O  c #2E0C17",
"+  c #3C280A",
"@  c #3A2416",
"#  c #1D0823",
"$  c #2A0829",
"%  c #2C0B2B",
"&  c #33082B",
"*  c #34122A",
"=  c #3C122D",
"-  c #2E0B32",
";  c #350735",
":  c #3C0A33",
">  c #2D1133",
",  c #002422",
"<  c #002A2B",
"1  c #14352E",
"2  c #003434",
"3  c #003836",
"4  c #00353A",
"5  c #00393B",
"6  c #23382E",
"7  c #432A05",
"8  c #6C3300",
"9  c #6A3904",
"0  c #67310E",
"q  c #5B1924",
"w  c #56122E",
"e  c #763222",
"r  c #653F3E",
"t  c #2C492C",
"y  c #294736",
"u  c #6D4407",
"i  c #6D4315",
"p  c #7E4328",
"a  c #3B074C",
"s  c #132842",
"d  c #033844",
"f  c #1C324C",
"g  c #26374E",
"h  c #303F4E",
"j  c #292F57",
"k  c #283555",
"l  c #1A3865",
"z  c #373963",
"x  c #440D48",
"c  c #4B1154",
"v  c #541656",
"b  c #641C5C",
"n  c #5C295F",
"m  c #4F1464",
"M  c #6F176C",
"N  c #6B0D7D",
"B  c #692768",
"V  c #0E4E5D",
"C  c #006669",
"Z  c #00656A",
"A  c #006671",
"S  c #903921",
"D  c #935307",
"F  c #A9550D",
"G  c #92750B",
"H  c #B26C0B",
"J  c #94582C",
"K  c #CD4718",
"L  c #D04D17",
"P  c #D55715",
"I  c #D07409",
"U  c #DC6713",
"Y  c #E6750F",
"T  c #DD752F",
"R  c #8B3372",
"E  c #B47758",
"W  c #995579",
"Q  c #DA7E48",
"!  c #B9872E",
"~  c #CC8F08",
"^  c #D48A00",
"/  c #D59200",
"(  c #EE8F09",
")  c #F69906",
"_  c #FDA705",
"`  c #FDB40E",
"'  c #C99537",
"]  c #E3952F",
"[  c #BC8A45",
"{  c #D1B44E",
"}  c #F6B34D",
"|  c #F8BC5D",
" . c #D58C61",
".. c #E69D78",
"X. c #EDA76A",
"o. c #F9B668",
"O. c #ECA27B",
"+. c #F6AC76",
"@. c #FCC652",
"#. c #F8D166",
"$. c #721287",
"%. c #493C92",
"&. c #76288D",
"*. c #693283",
"=. c #783892",
"-. c #7539B0",
";. c #6C57B5",
":. c #4C73C1",
">. c #891996",
",. c #881897",
"<. c #952F8E",
"1. c #872699",
"2. c #8A349C",
"3. c #94389A",
"4. c #B03E9D",
"5. c #8B18A7",
"6. c #961CAD",
"7. c #991CB2",
"8. c #A11CB6",
"9. c #9527AC",
"0. c #8D34A0",
"q. c #9736A7",
"w. c #9635AD",
"e. c #9924B5",
"r. c #AB38AB",
"t. c #A727BA",
"y. c #A538B8",
"u. c #B636B8",
"i. c #C337BA",
"p. c #C439BC",
"a. c #AE5491",
"s. c #9046AF",
"d. c #B94FAB",
"f. c #AF67A2",
"g. c #D9768E",
"h. c #C453A6",
"j. c #C869AE",
"k. c #D06FAC",
"l. c #D276A5",
"z. c #CA66B6",
"x. c #A92CC5",
"c. c #B529C7",
"v. c #A937C5",
"b. c #AD3BCA",
"n. c #B533C8",
"m. c #B335CB",
"M. c #B23CCD",
"N. c #BA2ED3",
"B. c #B73BD2",
"V. c #BB3DD2",
"C. c #CC3CC8",
"Z. c #D43FCD",
"A. c #C63BD7",
"S. c #D93CDB",
"D. c #D93DE9",
"F. c #E13EE5",
"G. c #8F4FC7",
"H. c #9A4DC3",
"J. c #9C51C5",
"K. c #A54CC9",
"L. c #B344CB",
"P. c #A553CB",
"I. c #BD52C9",
"U. c #B745D4",
"Y. c #B945D6",
"T. c #B449D3",
"R. c #BA49D5",
"E. c #B944D9",
"W. c #BC49D9",
"Q. c #B354D3",
"!. c #9B64D9",
"~. c #B472D2",
"^. c #CB40CA",
"/. c #C559C7",
"(. c #C345DA",
"). c #CC44DB",
"_. c #C34ADC",
"`. c #CA4ADF",
"'. c #D64AD9",
"]. c #CB53D9",
"[. c #E555D4",
"{. c #C166DA",
"}. c #ED68D6",
"|. c #FF75D8",
" X c #C845E3",
".X c #CD4BE2",
"XX c #DB47E7",
"oX c #D34AE4",
"OX c #D551EB",
"+X c #E645E9",
"@X c #E54CED",
"#X c #E651EE",
"$X c #E74AF3",
"%X c #EE4DF3",
"&X c #F34DF5",
"*X c #F84EF7",
"=X c #F54FF8",
"-X c #FE4FFB",
";X c #F853F4",
":X c #FF5AF2",
">X c #FE51FD",
",X c #CF74E5",
"<X c #FB6AE2",
"1X c #03878B",
"2X c #058A95",
"3X c #0B8A9C",
"4X c #099296",
"5X c #0A93A7",
"6X c #258EBC",
"7X c #00B3BE",
"8X c #00B5C2",
"9X c #00B9C5",
"0X c #08B4CE",
"qX c #02BCCA",
"wX c #09BAD7",
"eX c #28A5D1",
"rX c #61A8DC",
"tX c #00C3CE",
"yX c #00C6D3",
"uX c #00CAD9",
"iX c #20C5EB",
"pX c #00E1EF",
"aX c #00E4F3",
"sX c #00EEFF",
"dX c #00F3FF",
"fX c #00FAFF",
"gX c #5AD9EE",
"hX c #DB8A8C",
"jX c #DB8595",
"kX c #F19B87",
"lX c #EA83AB",
"zX c #A6A5DF",
"xX c #FF83CB",
"cX c #D89FE8",
"vX c #8CDCF5",
"bX c #D3CEFD",
"nX c #EAC9F2",
"mX c #D1E9F9",
/* pixels */
"sXsXsXsXsXsXsXsXsXsXsXsXsXsXsXsXsXsXsXsXsXsXsXsXsXsXsXsXsXdXdXdXdXdXfXdXdXsXsXsXsXsXsXsXsXsXsXsXsXsXsXsXsXsXsXsXsXsXsXsXsXsXsXsX",
"sXsXsXsXsXsXsXsXsXsXsXsXsXsXsXsXsXsXsXsXsXsXsXsXsXsXdXsXdXpXtX7X7X7X7XyXaXdXsXsXsXsXsXsXsXsXsXsXsXsXsXsXsXsXsXsXsXsXsXsXsXsXsXsX",
"sXsXsXsXsXsXsXsXsXsXsXsXsXsXsXsXsXsXsXsXsXsXsXsXsXdXdXdXdXtXC 2 5 3 3 Z yXdXdXsXsXsXsXsXsXsXsXsXsXsXsXsXsXsXsXsXsXsXsXsXsXsXsXsX",
"sXsXsXsXsXsXsXsXsXsXsXsXsXsXsXsXsXsXsXsXdXdXdXdXdXpXtX0XiXeXz : : : : k 3XyXaXdXdXsXsXsXsXsXsXsXsXsXsXsXsXsXsXsXsXsXsXsXsXsXsXsX",
"sXsXsXsXsXsXsXsXsXsXsXsXsXsXsXsXsXsXsXsXdXdXdXdXdXtXC l ;.!.L.i.p.p.p.3.k A yXdXdXsXsXsXsXsXsXsXsXsXsXsXsXsXsXsXsXsXsXsXsXsXsXsX",
"sXsXsXsXsXsXsXsXsXsXsXsXsXsXsXsXsXsXdXaXtX7X7X0XiXeXz b r.XX-X>X>X>X>Xi.w , 1XyXaXdXsXsXsXsXsXsXsXsXsXsXsXsXsXsXsXsXsXsXsXsXsXsX",
"sXsXsXsXsXsXsXsXsXsXsXsXsXsXsXsXdXdXdXyXZ 2 2 V ;.!.L.C.+X&X-X-X>X>X>XC.:   , Z yXfXdXsXsXsXsXsXsXsXsXsXsXsXsXsXsXsXsXsXsXsXsXsX",
"sXsXsXsXsXsXsXsXsXsXsXsXsXsXsXsXdXaXyX3Xk : : b r.XX:X>X:X-X:X:X:X:X>X^.B % $ g 3XyXaXsXsXsXsXsXsXsXsXsXsXsXsXsXsXsXsXsXsXsXsXsX",
"sXsXsXsXsXsXsXsXsXsXsXsXsXsXsXdXfXyXC h 3.p.p.C.+X*X-X-X-X:X<X|.|.<X:X+Xb.q.q.B k C yXdXsXsXsXsXsXsXsXsXsXsXsXsXsXsXsXsXsXsXsXsX",
"sXsXsXsXsXsXsXsXsXsXsXsXsXdXdXaXuX2Xf v C.-X>X>X-X-X-X-X-X:X|.xXxX|.:X>X$XoX(.1.$ 2 7XdXdXsXsXsXsXsXsXsXsXsXsXsXsXsXsXsXsXsXsXsX",
"sXsXsXsXsXsXsXsXsXsXsXsXsXdXdXyXA f B y.).#X>X>X-X-X-X-X-X:X|.lXxX|.:X>X-XF.x.N $ 3 7XdXsXsXsXsXsXsXsXsXsXsXsXsXsXsXsXsXsXsXsXsX",
"sXsXsXsXsXsXsXsXsXsXsXsXsXaXyX2Xs c w. X XoX$X*X-X-X*X&XF.XX[.}.}.}.:X-X*XXXt.$.$ d 8XdXdXsXsXsXsXsXsXsXsXsXsXsXsXsXsXsXsXsXsXsX",
"sXsXsXsXsXsXsXsXsXsXsXsXdXtXZ s m $.x.W._._.oX@X*X;X$X).t.8.6.r.I.'.&X=X#XoXU.1.c l 0XdXdXsXsXsXsXsXsXsXsXsXsXsXsXsXsXsXsXsXsXsX",
"sXsXsXsXsXsXsXsXsXsXsXdXdX7X2 $ N 7.M.W.W.W._.oX@X+X(.v.-.=.-.s.Q.].@X@XoX_. Xw.m l 0XdXsXsXsXsXsXsXsXsXsXsXsXsXsXsXsXsXsXsXsXsX",
"sXsXsXsXsXsXsXsXsXsXsXdXdX7X2 $ $.x.U.(.W.W.W._. XV.t.-.:.rXvXzXcXcX.X X(.W.W.0.; d 0XsXdXsXsXsXsXsXsXsXsXsXsXsXsXsXsXsXsXsXsXsX",
"sXsXsXsXsXsXsXsXsXsXdXdXdX8X4 X M 1.3.q.3.q.3.y.L.b.7.-.6XgXgXvXbXcX{.U.T.T.T.2.$ 4 7XsXdXsXsXsXsXsXsXsXsXsXsXsXsXsXsXsXsXsXsXsX",
"sXsXsXsXsXsXsXsXsXsXsXdXdX9X4 X O w w w w w w B r.N.x.G.rXgXgXrXmXnX~.K.J.P.P.=.$ 5 7XdXdXsXsXsXsXsXsXsXsXsXsXsXsXsXsXsXsXsXsXsX",
"sXsXsXsXsXsXsXsXsXsXsXaXyX2X* o 8 8 i i p i 8 S a.i.>.s.zXvXgXgXmXnX~.G.G.J.J.=.$ 5 7XdXdXsXsXsXsXsXsXsXsXsXsXsXsXsXsXsXsXsXsXsX",
"sXsXsXsXsXsXsXsXsXsXdXqXZ 6 e F I ~ { { { { ~ ~ L S e B cXmXmXmXnXcX~.H.H.J.J.=.# 5 7XdXdXsXsXsXsXsXsXsXsXsXsXsXsXsXsXsXsXsXsXsX",
"sXsXsXsXsXsXsXsXsXdXdX7X2 o F Y ) ` @.#.#.@.` ) Y F D p f.cXnXnXcXcXP.H.H.K.P.=.% 3 7XdXsXsXsXsXsXsXsXsXsXsXsXsXsXsXsXsXsXsXsXsX",
"sXsXsXsXsXsXsXsXsXdXdX7X< 7 H ) Y U T T T ] ( ( _ ) / H p R f.,X{.Q.P.H.J.P.T.0.% 2 7XdXdXsXsXsXsXsXsXsXsXsXsXsXsXsXsXsXsXsXsXsX",
"sXsXsXsXsXsXsXsXsXdXdXyXZ t G ^ U L L K L P U ( ) _ ` / 8 w 0.L.E.T.J.J.J.H.y.=.g C tXdXdXdXdXdXdXsXsXsXsXsXsXsXsXsXsXsXsXsXsXsX",
"sXsXsXsXsXsXsXsXsXsXsXaXyX2Xt 9 H Y L K K L L P U Y ` / 8 w 2.K.K.H.H.P.T.y.$.z 5XyXaXdXdXdXdXdXdXdXsXsXsXsXsXsXsXsXsXsXsXsXsXsX",
"sXsXsXsXsXsXsXsXsXsXsXdXdX8X4 o H ( Y L L K L L P I / H e b s.J.P.J.K.K.T.9.m l wXfXfXaXtX7X7X7X7XtXaXsXsXsXsXsXsXsXsXsXsXsXsXsX",
"sXsXsXsXsXsXsXsXsXsXsXdXdX8X4 o I _ ( U P K K P ( ^ D e R y.K.T.T.T.T.T.T.2.; d 0XfXfXqXZ 2 2 2 2 Z yXfXdXsXsXsXsXsXsXsXsXsXsXsX",
"sXsXsXsXsXsXsXsXsXsXsXsXdXyXZ t G / ) ( U U U I ^ H e b y.W._.(._._.`..X.Xy.b k 5XwXiX6Xz : : : & f 3XyXaXdXsXsXsXsXsXsXsXsXsXsX",
"sXsXsXsXsXsXsXsXsXsXsXsXsXaXyX4Xt u ^ _ _ _ ) ^ D e R y.U.W.(.oX@X&X%X&X%X@X^.w.z %.%.-.y.p.p.u.q.*.f C yXdXdXsXsXsXsXsXsXsXsXsX",
"sXsXsXsXsXsXsXsXsXsXsXsXdXdXdXuXZ t G ~ ^ / / H e B u.oX.X.XoX@X*X-X-X-X>X>X>X+X>.$.6.c.+X-X>X-X@Xy.v f 3XyXaXsXsXsXsXsXsXsXsXsX",
"sXsXsXsXsXsXsXsXsXsXsXsXsXsXdXaXuX4Xt 7 8 8 8 S R C.XX&X%X&X&X*X*X-X-X-X>X>X>X&XS.Z.S.+X-X>X>X>X=X'.y.*.f Z tXdXdXsXsXsXsXsXsXsX",
"sXsXsXsXsXsXsXsXsXsXsXsXsXsXdXaXuX1X, X w w w R h.$X-X-X-X-X-X-X-X-X-X-X-X-X-X-X:X:X:X>X>X-X-X-X>X*X@Xq.& 2 7XdXdXsXsXsXsXsXsXsX",
"sXsXsXsXsXsXsXsXsXsXsXsXsXdXdXyXA , . # B y.i.'.$X-X-X-X-X-X-X-X-X-X-X-X-X-X-X:X<X|.|.<X:X-X-X-X>X>X>Xu.: 2 7XdXdXsXsXsXsXsXsXsX",
"sXsXsXsXsXsXsXsXsXsXsXdXdXaXyX3Xg % ; n y.#X=X>X-X-X-X-X-X-X-X-X-X-X-X-X-X-X-X:X|.xXxX|.:X-X-X>X>X>X>Xu.x d 8XdXsXsXsXsXsXsXsXsX",
"sXsXsXsXsXsXsXsXsXsXsXdXfXyXC f *.q.u.^.+X*X>X>X-X>X>X>X-X-X-X-X-X-X-X-X-X-X-X:X|.xXxX|.:X-X-X-X-X-X%Xu.m l 0XsXsXsXsXsXsXsXsXsX",
"sXsXsXsXsXsXsXsXsXsXsXaXyX3Xf v w.oX&X>X>X-X-X-X-X-X=X&X&X%X&X=X*X-X-X-X-X-X-X:X<X|.|.<X:X-X-X*X+XS.V.9.c l 0XsXsXsXsXsXsXsXsXsX",
"sXsXsXsXsXsXsXsXsXsXdXtXC g *.w.L..XoX#X*X>X-X-X-X*X+XoX`.`.oX@X*X-X-X-X-X-X-X*X:X:X:X:X-X-X-XF.c.7.7.$.$ d 9XfXdXsXsXsXsXsXsXsX",
"sXsXsXsXsXsXsXsXsXdXdX7X2 % 0. XW.R._.oX@X%X%X&X%X@XoX_.R.R._.oX@X&X&X;X-X-X-X-X-X-X-X>X*X%X+XA.8.5.7.,.v k 3XyXaXdXsXsXsXsXsXsX",
"sXsXsXsXsXsXsXsXsXdXdX7X4 & 0.W.W.R.R._.`.`.`.`.`._.(.R.R.R.W._.`.`.oX@X*X-X-X-X>X>X>X*X$XA.t.t.n.A.D.S.C.3.j Z yXdXdXsXsXsXsXsX",
"sXsXsXsXsXsXsXsXsXdXdX7X3 - 1.R.R.U.U.R.R.R.R.R.R.R.R.R.R.R.R.T.R.R._.oX@X%X%X%X%X%X&X@XoXM.e.e.(.@X;X>X>XC.c s 2XyXaXsXsXsXsXsX",
"sXsXsXsXsXsXsXsXdXdXdX7X3 $ 1.N.m.M.U.R.`._.R.R.R.U.R.R.R.R.R.W.R.R.R.(._.`.`.`._..X.X).V.m.v.B.+X*X>X>X>XF.>.c s Z tXdXdXsXsXsX",
"sXsXsXsXsXsXsXsXsXdXdX8X2 & 1.A.A.V.V.R._.(.M.v.L.U.L.b.v.b.b.L.L.R.R.(.R.U.U.L.b.v.v.v.v.m.T._.@X=X-X>X>X+Xc.N $ 2 7XdXdXsXsXsX",
"sXsXsXsXsXsXsXsXsXdXfX8X3 * r.*X&XD.A.M.R.U.e.6.x.v.t.e.6.5.e.t.L.R._.`.W.U.M.x.6.5.5.5.x.m.B. XoX@X;X>X-X*XoX0.$ 2 7XdXdXsXsXsX",
"sXsXsXsXsXsXsXsXsXaXyX3Xk M Z.>X-X&XA.m.b.t.6.e.c.A.n.t.7.t.t.n.Y._.`.(.M.v.m.m.t.7.7.t.N.A.V.V.(.OX#X%X&X@XXXq.- 2 8XdXdXdXsXsX",
"sXsXsXsXsXsXsXsXdXtXZ k 3.'.&X-X-X*XXXV.e.9.y.B.XX+X+X+X+XF.+XXXoX(._.M.e.e.B.).D.F.F.F.F.D.N.x.E. X X X)..X.X0.% 5 9XfXdXsXsXsX",
"sXsXsXsXsXsXsXdXfX7X2 : u.>X&X%X%X@X Xx.5.5.v. X&X-X-X>X*X=X=X&X@XoXY.y.9.e.).$X*X>X>X>X-XD.c.7.9.s.d.I.T.R.W.2.% , 1XyXaXdXsXsX",
"sXsXsXsXsXsXsXdXdX8X2 % q.OX.X`. X(.x.e.5.5.v._.%X>X>X*X@XXXXX@X%X+Xn.t.v.Y.+X;X>X>X>X>X>XF.8.$.a v W l.I.R.W.0.% . , C yXfXdXsX",
"sXsXsXsXsXdXdXaXyX2Xs x q.W.R.T.I.d.d.q.5.6.b..X&X>X-X*X@XoX(.).+XXXt.e.b.`.@X*X-X>X-X>X>XS.$.a . @ E jX/.E.W.w.m * = g 3XyXaXdX",
"sXsXsXsXsXdXdXyXZ s m &.y.R.W.Q.j.jX.. .4.t.b..X%X-X-X-X=XXXm.m.).).7.6.b._.oX@X*X-X>X>X>XC.v X . + [ kXz.E.E.E.n.u.h.a.h Z yXdX",
"sXsXsXsXdXaXyX3Xj x $.e.b.E.W.d.jXO.+. .<.&.v._.@X&X%X&X&XXXx.x.V.x.$.$.9.U.W.oX@X%X%X&X=Xu.>     + ! X.k.Q.E.A.D.%X<Xa.= 2 7XdX",
"sXsXsXdXdXtXZ f *.q.v.M.U.R.E.z.O.+.lXa.v c w.W..X`.`.`. X XT.b.x.1.a a N 6.M.W.`.`.`..XoXq.>     + F ' hXj.I.E. X X].s.= 3 7XdX",
"sXsXsXdXdX7X2 & 9. X_.E.T.R.I.l.o.X.f.$.# # 0.W.W.T.T.T.I.d.I.d.1.m d s a $.v.W.R.T.T.W.W.2.> . < 6 i J  .hXk.z./.I.W.0.$ 2 7XdX",
"sXsXsXsXdX7X< ; t.D. XT.U.I.j.hXo.' r # . > 0.W.E.T.R.I.j.l.l.a.x f 3X2Xd x q.Q.R.R.R.W.W.2.> 2 2X4X6 0 { | o.O.jXk.].0.% 3 7XfX",
"sXsXsXdXdXtXZ j 1.C..XoX.X].jXX.} ! +     > 0.Q.W.E.E.z.jX....E @ 5 qXqX5 - 3.I.R.R.R.W.W.2.% 5 tXuXA y J ' ' [ E W 3.*.k C yXdX",
"sXsXsXsXsXaXyX3Xg b h.<X$X[.kX} ] G o     > 0.W.W.R.Y.z...| @.[ + 5 qX9Xd O W k./.E.R.W.W.2.$ 5 9XdXuX4Xy 7 7 + @ O $ k 3XyXaXdX",
"sXsXsXsXsXdXdXyXC f a.h.u.4.E ' F i 6 4 . > 0.W.W.E.T.z.+.@.o.E @ d 9X9X4 @ E jX/.T.E.R.W.w.v g 3XyXsXuXZ 4 4 4 5 2 2 Z yXdXdXsX",
"sXsXsXsXsXsXdXaXtX4Xh = : : @ o o 6 4X2X< % 2.W.R.T.E.z.X.o.l.a.* 5 9X9X2 + ! kXz.E.R.R.R.L.y.*.g Z yXaXyX7X8X8X8X7X7XtXaXdXsXsX",
"sXsXsXsXsXsXsXdXdXyXZ 2 2 3 3 4 2 C 5X5XV v w.W.W.R.I.k.o.o.g.<.& 5 9X9XV + ' o.k.I.R.T.R.E.W.0.% 2 7XdXdXdXsXdXdXdXdXdXsXsXsXsX",
"sXsXsXsXsXsXsXsXdXaXqX7X7X7X8X8X9X5XC g *.w.L.R.R./.k.hX| | Q J o 4 8X9Xd + ' o.hXz./.E.T.E.W.2.% 2 7XdXdXsXdXdXdXdXsXdXsXsXsXsX",
"sXsXsXsXsXsXsXsXsXsXdXdXdXdXdXdXfX8X< $ q.OX].`. X].jXO.+. .F u 6 A uX8X3 + ! } X.g./.oX].].oXq.- 2 7XdXdXsXsXsXsXsXsXsXsXsXsXsX",
"sXsXsXsXsXsXsXsXsXsXdXdXdXdXdXdXdX7X2 & t.+X}.}.$X[.kXo.lXa.q 1 1XuXaX8X3 o F ] } kX[.$X<X}.&Xt.; 2 7XdXdXsXsXsXsXsXsXsXsXsXsXsX",
"sXsXsXsXsXsXsXsXsXsXsXsXsXsXdXdXdXqXZ j &.u.h.h.u.4.E E a.&.j Z yXfXfXyXA 6 i D ' E 4.u.d.h.u.5.j C tXdXsXsXsXsXsXsXsXsXsXsXsXsX",
"sXsXsXsXsXsXsXsXsXsXsXsXsXsXsXsXsXaXyX3Xk : = = w : @ @ * k 3XyXaXdXdXaXyX2X6 o + @ = : = = : j 3XyXaXsXsXsXsXsXsXsXsXsXsXsXsXsX",
"sXsXsXsXsXsXsXsXsXsXsXsXsXsXsXsXsXdXdXyXZ 3 5 5 4 4 d 3 2 Z yXdXdXsXsXdXdXyXA 3 4 5 4 5 5 5 2 C yXdXdXsXsXsXsXsXsXsXsXsXsXsXsXsX",
"sXsXsXsXsXsXsXsXsXsXsXsXsXsXsXsXsXdXdXaXtX7X7X8X7X8X8X7X7XyXaXdXsXsXsXsXdXaXyX8X8X8X8X7X8X7X7XyXaXdXsXsXsXsXsXsXsXsXsXsXsXsXsXsX",
"sXsXsXsXsXsXsXsXsXsXsXsXsXsXsXsXsXsXsXdXdXdXdXdXfXdXdXdXdXdXsXsXsXsXsXsXsXsXdXdXdXfXfXdXdXfXdXdXsXsXsXsXsXsXsXsXsXsXsXsXsXsXsXsX"
};
