/* XPM */
static char *exit2_resized[] = {
/* columns rows colors chars-per-pixel */
"64 64 54 1 ",
"  c #7C6BFF",
". c #6D7BFF",
"X c #7375FF",
"o c #7078FF",
"O c #BD26FF",
"+ c #B72DFF",
"@ c #BA2AFF",
"# c #AE37FF",
"$ c #A63EFF",
"% c #AB39FF",
"& c #B033FF",
"* c #DD04FF",
"= c #D40DFF",
"- c #D909FF",
"; c #CD15FF",
": c #C41FFF",
"> c #CA18FF",
", c #D210FF",
"< c #E400FF",
"1 c #E800FF",
"2 c #C122FF",
"3 c #9E47FF",
"4 c #9C49FF",
"5 c #8C5AFF",
"6 c #9353FF",
"7 c #A342FF",
"8 c #8363FF",
"9 c #3DAEFF",
"0 c #2EBDFF",
"q c #36B5FF",
"w c #39B2FF",
"e c #31BAFF",
"r c #5C8DFF",
"t c #4E9BFF",
"y c #5693FF",
"u c #5A90FF",
"i c #5099FF",
"p c #6385FF",
"a c #6881FF",
"s c #44A6FF",
"d c #49A0FF",
"f c #1DCFFF",
"g c #0FDFFF",
"h c #16D6FF",
"j c #1AD3FF",
"k c #12DBFF",
"l c #26C6FF",
"z c #2BC1FF",
"x c #23C9FF",
"c c #07E7FF",
"v c #0AE3FF",
"b c #00EEFF",
"n c #00F2FF",
"m c #00F9FF",
/* pixels */
"bbbbbbbbbbbbbbbbbbbbbbbbbbbbbbbbbbbbbbbbbbbbbbbbbbbbbbbbbbbbbbbb",
"bbbbbbbbbbbbbbbbbbbbbbbbbbbbbbbbbbbbbbbbbbbbbbbbbbbbbbbbbbbbbbbb",
"bbbbbbbbbbbbbbbbbbbbbbbbbbbbbbbbbbbbbbbbbbbbbbbbbbbbbbbbbbbbbbbb",
"bbbbbbbbbbbbbbbbbbbbbbbbbbbbbbbbbbbbbbbbbbbbbbbbbbbbbbbbbbbbbbbb",
"bbbbbbbbbbbbbbbbbbbbbbbbbbbbbbbbbbbbbbbbbbbbbbbbbbbbbbbbbbbbbbbb",
"bbbbbbbbbbbbbbbbbbbbbbbbbbbbbbbbbbbbbbbbbbbbbbbbbbbbbbbbbbbbbbbb",
"bbbbbbbbbbbbbbbbbbbbbbbbbbbbbbbbbbbbbbbbbbbbbbbbbbbbbbbbbbbbbbbb",
"bbbbbbbbbbbbbbbbbbbbbbbbbbnnbnnbnbnbnnbnnbbbbbbbbbbbbbbbbbbbbbbb",
"bbbbbbbbbbbbbbbbbbbbbbbbbnnnnnnnnnnnnnnnnbbbbbbbbbbbbbbbbbbbbbbb",
"bbbbbbbbbbbbbbbbbbbbbbbbbchxxxxxxxxxxxlxxjvbbbbbbbbbbbbbbbbbbbbb",
"bbbbbbbbbbbbbbbbbbbbbbbbbjda.oooooooooXooylcbbbbbbbbbbbbbbbbbbbb",
"bbbbbbbbbbbbbbbbbbbbbbnbb0 7#&#####&##&#%8sjcbbbbbbbbbbbbbbbbbbb",
"bbbbbbbbbbbbbbbbbbbbnnncks7,=,,,=,,,,,,=,#a0gbnbbbbbbbbbbbbbbbbb",
"bbbbbbbbbbbbbbbbbbbbbchlwo211<<<<<1<<<<1<2Xwknbbbbbbbbbbbbbbbbbb",
"bbbbbbbbbbbbbbbbbbbbbjdo5#,11<<<<1<<<1<<1Ooqgnbbbbbbbbbbbbbbbbbb",
"bbbbbbbbbbbbbbbbbbbnnlX%2,*-:OOOOOOOOOOO@4ylvbbbbbbbbbbbbbbbbbbb",
"bbbbbbbbbbbbbbbbbbbnbq4=-*<:5...........ailvbbbbbbbbbbbbbbbbbbbb",
"bbbbbbbbbbbbbbbbbbbnnw&1<<*#uzeeeqeeeeeezfcnbbbbbbbbbbbbbbbbbbbb",
"bbbbbbbbbbbbbbbbbbbbnw#1<<-39cvgkgggkvgvvcbbbbbbbbbbbbbbbbbbbbbb",
"bbbbbbbbbbbbbbbbbbbbnw#1<*=40nnnnnnbnbbnbbbbbbbbbbbbbbbbbbbbbbbb",
"bbbbbbbbbbbbbbbbbbbnnw#1<*-4ennbbnbbbnbbbbbbbbbbbbbbbbbbbbbbbbbb",
"bbbbbbbbbbbbbbbbbbbnnw#1<<-4ennnbbnbbbbbbbbbbbbbbbbbbbbbbbbbbbbb",
"bbbbbbbbbbbbbbbbbbbnnw#1<*,40nnbbbbbbbbbbbbbbbbbbbbbbbbbbbbbbbbb",
"bbbbbbbbbbbbbbbbbbbnnw#1<<-7wccvvvvvvcbnbbbbbbbbbbbbbbbbbbbbbbbb",
"bbbbbbbbbbbbbbbbbbbnnq%1<<*%ixxlllllljvbbbbbbbbbbbbbbbbbbbbbbbbb",
"bbbbbbbbbbbbbbbbbbbnnw%11<<O8rrppppppt0hcbbbbbbbbbbbbbbbbbbbbbbb",
"bbbbbbbbbbbbbbbbbbbnnw#1<**-2++@@@@@@3.wknbbbbbbbbbbbbbbbbbbbbbb",
"bbbbbbbbbbbbbbbbbbbnnw#1<<*<<<<<<<111>5tjnnbbbbbbbbbbbbbbbbbbbbb",
"bbbbbbbbbbbbbbbbbbbnnw#<<<<<<<<<<<<<1>6yjnbbbbbbbbbbbbbbbbbbbbbb",
"bbbbbbbbbbbbbbbbbbbbnw#<<<**==,,=,=-=+8dhnbbbbbbbbbbbbbbbbbbbbbb",
"bbbbbbbbbbbbbbbbbbbnnw%1<*<-@##+##&&#5yzgbbbbbbbbbbbbbbbbbbbbbbb",
"bbbbbbbbbbbbbbbbbbbnnq#<<<*:5XXXXXXXXrekcbbbbbbbbbbbbbbbbbbbbbbb",
"bbbbbbbbbbbbbbbbbbbnnq#1<<-%txxxllxlxjkcbbbbbbbbbbbbbbbbbbbbbbbb",
"bbbbbbbbbbbbbbbbbbbnnq%1<*-4zmnnnnnnnnbnbbbbbbbbbbbbbbbbbbbbbbbb",
"bbbbbbbbbbbbbbbbbbbnnq%<<<-4emnnbnnbnnbbbbbbbbbbbbbbbbbbbbbbbbbb",
"bbbbbbbbbbbbbbbbbbnnnw%1<*-4ennbbbbbbbbbbbbbbbbbbbbbbbbbbbbbbbbb",
"bbbbbbbbbbbbbbbbbbbnne#1<*-3ennbbbbbbbbbbbbbbbbbbbbbbbbbbbbbbbbb",
"bbbbbbbbbbbbbbbbbbbnnq%<<<-3ennbbbbbbbbbbbbbbbbbbbbbbbbbbbbbbbbb",
"bbbbbbbbbbbbbbbbbbbnnq%1<*-3ennbbbbbbbbbbbbbbbbbbbbbbbbbbbbbbbbb",
"bbbbbbbbbbbbbbbbbbbnnq%<<<-4ennbbbbbbbbbbbbbbbbbbbbbbbbbbbbbbbbb",
"bbbbbbbbbbbbbbbbbbbnnq%<<*-3ennnbbbbnbbbbbbbbbbbbbbbbbbbbbbbbbbb",
"bbbbbbbbbbbbbbbbbbbnnq#<<<-30nnnnnnnnnnnnnbbbbbbbbbbbbbbbbbbbbbb",
"bbbbbbbbbbbbbbbbbbbnnq%<<*-30mmnnnnnnnnnnnnbbbbbbbbbbbbbbbbbbbbb",
"bbbbbbbbbbbbbbbbbbbnnq$<<<*#reeqeeqqqqqqqzhcbbbbbbbbbbbbbbbbbbbb",
"bbbbbbbbbbbbbbbbbbbnne4=<<*;&$7$%7$$$$$$78sjcnbbbbbbbbbbbbbbbbbb",
"bbbbbbbbbbbbbbbbbbbnnxo4+:-<<<*<<<<<<*<<<+pzvbbbbbbbbbbbbbbbbbbb",
"bbbbbbbbbbbbbbbbbbbbbvx9y :<<<<<<<<*<<<<<2owkbbbbbbbbbbbbbbbbbbb",
"bbbbbbbbbbbbbbbbbbbbbbbcfy#<<<<<<<<<<<<<12Xwknnbbbbbbbbbbbbbbbbb",
"bbbbbbbbbbbbbbbbbbbbbbbbvs7-<<1<1<<<<<<<<+a0gbbbbbbbbbbbbbbbbbbb",
"bbbbbbbbbbbbbbbbbbbbbbbbc0X3%#%%%%#%#%%%$8sjcbbbbbbbbbbbbbbbbbbb",
"bbbbbbbbbbbbbbbbbbbbbbbbbglqqqwwqqqqqqqqqzhcbbbbbbbbbbbbbbbbbbbb",
"bbbbbbbbbbbbbbbbbbbbbbbbbbnnnnnnnnmnnnnnnnbbbbbbbbbbbbbbbbbbbbbb",
"bbbbbbbbbbbbbbbbbbbbbbbbbbnnnnnnnnnnnnnnnnnbbbbbbbbbbbbbbbbbbbbb",
"bbbbbbbbbbbbbbbbbbbbbbbbbbbbbbbbnbbbbbbbbbbbbbbbbbbbbbbbbbbbbbbb",
"bbbbbbbbbbbbbbbbbbbbbbbbbbbbbbbbbbbbbbbbbbbbbbbbbbbbbbbbbbbbbbbb",
"bbbbbbbbbbbbbbbbbbbbbbbbbbbbbbbbbbbbbbbbbbbbbbbbbbbbbbbbbbbbbbbb",
"bbbbbbbbbbbbbbbbbbbbbbbbbbbbbbbbbbbbbbbbbbbbbbbbbbbbbbbbbbbbbbbb",
"bbbbbbbbbbbbbbbbbbbbbbbbbbbbbbbbbbbbbbbbbbbbbbbbbbbbbbbbbbbbbbbb",
"bbbbbbbbbbbbbbbbbbbbbbbbbbbbbbbbbbbbbbbbbbbbbbbbbbbbbbbbbbbbbbbb",
"bbbbbbbbbbbbbbbbbbbbbbbbbbbbbbbbbbbbbbbbbbbbbbbbbbbbbbbbbbbbbbbb",
"bbbbbbbbbbbbbbbbbbbbbbbbbbbbbbbbbbbbbbbbbbbbbbbbbbbbbbbbbbbbbbbb",
"bbbbbbbbbbbbbbbbbbbbbbbbbbbbbbbbbbbbbbbbbbbbbbbbbbbbbbbbbbbbbbbb",
"bbbbbbbbbbbbbbbbbbbbbbbbbbbbbbbbbbbbbbbbbbbbbbbbbbbbbbbbbbbbbbbb",
"bbbbbbbbbbbbbbbbbbbbbbbbbbbbbbbbbbbbbbbbbbbbbbbbbbbbbbbbbbbbbbbb"
};
