/* XPM */
static char *exit3_resized[] = {
/* columns rows colors chars-per-pixel */
"64 64 247 2 ",
"   c #7B6BFF",
".  c #796DFF",
"X  c #7A6CFF",
"o  c #796EFF",
"O  c #796FFF",
"+  c #6F78FF",
"@  c #6E79FF",
"#  c #6F79FF",
"$  c #6B7DFF",
"%  c #7770FF",
"&  c #7771FF",
"*  c #7572FF",
"=  c #7275FF",
"-  c #7176FF",
";  c #7276FF",
":  c #7474FF",
">  c #7870FF",
",  c #7078FF",
"<  c #BE25FF",
"1  c #BF25FF",
"2  c #BC27FF",
"3  c #B72CFF",
"4  c #B72DFF",
"5  c #B42FFF",
"6  c #B52FFF",
"7  c #B92BFF",
"8  c #B82CFF",
"9  c #AA39FF",
"0  c #AB39FF",
"q  c #A93BFF",
"w  c #AA3AFF",
"e  c #AB3AFF",
"r  c #AC38FF",
"t  c #AD38FF",
"y  c #AC39FF",
"u  c #AD39FF",
"i  c #AE38FF",
"p  c #AA3CFF",
"a  c #B331FF",
"s  c #B132FF",
"d  c #B232FF",
"f  c #B034FF",
"g  c #DF02FF",
"h  c #DB07FF",
"j  c #DD04FF",
"k  c #DC06FF",
"l  c #D70AFF",
"z  c #D30FFF",
"x  c #D50CFF",
"c  c #D50DFF",
"v  c #D60CFF",
"b  c #D40FFF",
"n  c #CB17FF",
"m  c #CD15FF",
"M  c #CE14FF",
"N  c #CE15FF",
"B  c #CC16FF",
"V  c #CD16FF",
"C  c #C71BFF",
"Z  c #C61CFF",
"A  c #C71CFF",
"S  c #C51EFF",
"D  c #C41FFF",
"F  c #C919FF",
"G  c #CA18FF",
"H  c #C81AFF",
"J  c #C81BFF",
"K  c #D111FF",
"L  c #D210FF",
"P  c #D310FF",
"I  c #D012FF",
"U  c #D013FF",
"Y  c #E200FF",
"T  c #E300FF",
"R  c #E002FF",
"E  c #E400FF",
"W  c #E500FF",
"Q  c #E600FF",
"!  c #E700FF",
"~  c #E800FF",
"^  c #E900FF",
"/  c #EA00FF",
"(  c #EB00FF",
")  c #C320FF",
"_  c #C221FF",
"`  c #C122FF",
"'  c #C023FF",
"]  c #C123FF",
"[  c #9F46FF",
"{  c #9E47FF",
"}  c #974EFF",
"|  c #964FFF",
" . c #9B4AFF",
".. c #9A4BFF",
"X. c #9B4BFF",
"o. c #9C48FF",
"O. c #9C49FF",
"+. c #875FFF",
"@. c #8B5AFF",
"#. c #8A5BFF",
"$. c #8B5BFF",
"%. c #8E58FF",
"&. c #8C5AFF",
"*. c #8D5AFF",
"=. c #895DFF",
"-. c #885EFF",
";. c #9352FF",
":. c #9253FF",
">. c #9550FF",
",. c #9551FF",
"<. c #9650FF",
"1. c #9154FF",
"2. c #9055FF",
"3. c #9254FF",
"4. c #A243FF",
"5. c #A440FF",
"6. c #A540FF",
"7. c #A045FF",
"8. c #8561FF",
"9. c #8660FF",
"0. c #8462FF",
"q. c #8463FF",
"w. c #8166FF",
"e. c #3FABFF",
"r. c #3BAFFF",
"t. c #3DADFF",
"y. c #3DAEFF",
"u. c #3CAFFF",
"i. c #2FBCFF",
"p. c #2EBDFF",
"a. c #2DBEFF",
"s. c #2DBFFF",
"d. c #37B3FF",
"f. c #36B4FF",
"g. c #37B4FF",
"h. c #36B5FF",
"j. c #34B6FF",
"k. c #34B7FF",
"l. c #35B7FF",
"z. c #3BB0FF",
"x. c #3BB1FF",
"c. c #39B2FF",
"v. c #38B3FF",
"b. c #39B3FF",
"n. c #38B4FF",
"m. c #32B9FF",
"M. c #30BBFF",
"N. c #5D8BFF",
"B. c #5B8DFF",
"V. c #4F9AFF",
"C. c #4E9BFF",
"Z. c #4F9BFF",
"A. c #4B9EFF",
"S. c #4A9FFF",
"D. c #4B9FFF",
"F. c #4D9CFF",
"G. c #4C9DFF",
"H. c #4D9DFF",
"J. c #4C9EFF",
"K. c #5791FF",
"L. c #5593FF",
"P. c #5692FF",
"I. c #5693FF",
"U. c #5396FF",
"Y. c #5594FF",
"T. c #5495FF",
"R. c #5891FF",
"E. c #5198FF",
"W. c #5099FF",
"Q. c #5298FF",
"!. c #6682FF",
"~. c #6286FF",
"^. c #6880FF",
"/. c #47A3FF",
"(. c #43A7FF",
"). c #45A5FF",
"_. c #46A4FF",
"`. c #48A2FF",
"'. c #41A9FF",
"]. c #40AAFF",
"[. c #1FCDFF",
"{. c #1ECEFF",
"}. c #0EDEFF",
"|. c #0FDEFF",
" X c #0EDFFF",
".X c #17D5FF",
"XX c #15D7FF",
"oX c #16D6FF",
"OX c #17D6FF",
"+X c #16D7FF",
"@X c #1BD1FF",
"#X c #1AD2FF",
"$X c #1BD2FF",
"%X c #1CD0FF",
"&X c #1CD1FF",
"*X c #18D4FF",
"=X c #19D4FF",
"-X c #18D5FF",
";X c #13DAFF",
":X c #12DBFF",
">X c #13DBFF",
",X c #14D8FF",
"<X c #15D8FF",
"1X c #14D9FF",
"2X c #14DAFF",
"3X c #11DCFF",
"4X c #10DDFF",
"5X c #27C5FF",
"6X c #25C7FF",
"7X c #26C6FF",
"8X c #2BC0FF",
"9X c #2AC1FF",
"0X c #29C2FF",
"qX c #28C3FF",
"wX c #29C3FF",
"eX c #23C9FF",
"rX c #21CBFF",
"tX c #22CAFF",
"yX c #24C8FF",
"uX c #20CCFF",
"iX c #06E7FF",
"pX c #07E7FF",
"aX c #0BE2FF",
"sX c #0BE3FF",
"dX c #0DE0FF",
"fX c #0DE1FF",
"gX c #0EE0FF",
"hX c #09E4FF",
"jX c #08E5FF",
"kX c #09E5FF",
"lX c #0AE4FF",
"zX c #08E6FF",
"xX c #03EBFF",
"cX c #05E8FF",
"vX c #05E9FF",
"bX c #04EAFF",
"nX c #01EDFF",
"mX c #02ECFF",
"MX c #00EEFF",
"NX c #00EFFF",
"BX c #00F0FF",
"VX c #00F1FF",
"CX c #00F2FF",
"ZX c #00F3FF",
"AX c #00F4FF",
"SX c #00F5FF",
"DX c #00F6FF",
/* pixels */
"MXMXMXMXMXMXMXMXMXMXMXMXMXMXMXMXMXMXMXMXMXMXMXMXMXMXMXMXMXMXMXMXMXMXMXMXMXMXMXMXMXMXMXMXMXMXMXMXMXMXMXMXMXMXMXMXMXMXMXMXMXMXMXMX",
"MXMXMXMXMXMXMXMXMXMXMXMXMXMXMXMXMXMXMXMXMXMXMXMXMXMXMXMXMXMXMXMXMXMXMXMXMXMXMXMXMXMXMXMXMXMXMXMXMXMXMXMXMXMXMXMXMXMXMXMXMXMXMXMX",
"MXMXMXMXMXMXMXMXMXMXMXMXMXMXMXMXMXMXMXMXMXMXMXMXMXMXMXMXMXMXMXMXMXMXMXMXMXMXMXMXMXMXMXMXMXMXMXMXMXMXMXMXMXMXMXMXMXMXMXMXMXMXMXMX",
"MXMXMXMXMXMXMXMXMXMXMXMXMXMXMXMXMXMXMXMXMXMXMXMXMXMXMXMXMXMXMXMXMXMXMXMXMXMXMXMXMXMXMXMXMXMXMXMXMXMXMXMXMXMXMXMXMXMXMXMXMXMXMXMX",
"MXMXMXMXMXMXMXMXMXMXMXMXMXMXMXMXMXMXMXMXMXMXMXMXMXMXMXMXMXMXMXMXMXMXMXMXMXMXMXMXMXMXMXMXMXMXMXMXMXMXMXMXMXMXMXMXMXMXMXMXMXMXMXMX",
"MXMXMXMXMXMXMXMXMXMXMXMXMXMXMXMXMXMXMXMXMXMXMXMXMXMXMXMXMXMXMXMXMXMXMXMXMXMXMXMXMXMXMXMXMXMXMXMXMXMXMXMXMXMXMXMXMXMXMXMXMXMXMXMX",
"MXMXMXMXMXMXMXMXMXMXMXMXMXMXMXMXMXMXMXMXMXMXMXMXMXMXMXMXMXMXMXMXMXMXMXMXMXMXMXMXMXMXMXMXMXMXMXMXMXMXMXMXMXMXMXMXMXMXMXMXMXMXMXMX",
"MXMXMXMXMXMXMXMXMXMXMXMXMXMXMXMXMXMXMXMXMXMXMXMXMXMXMXMXMXMXMXMXMXMXMXMXMXMXMXMXMXMXMXMXMXMXMXMXMXMXMXMXMXMXMXMXMXMXMXMXMXMXMXMX",
"MXMXMXMXMXMXMXMXMXMXMXMXMXMXMXMXMXMXMXMXMXMXMXMXMXMXMXMXMXMXMXMXMXMXMXMXMXMXMXMXMXMXMXMXMXMXMXMXMXMXMXMXMXMXMXMXMXMXMXMXMXMXMXMX",
"MXMXMXMXMXMXMXMXMXMXMXMXMXMXMXMXMXMXMXMXMXMXMXMXMXMXMXMXMXMXMXMXMXMXMXMXMXMXMXMXMXMXMXMXMXMXMXMXMXMXMXMXMXMXMXMXMXMXMXMXMXMXMXMX",
"MXMXMXMXMXMXMXMXMXMXMXMXMXMXMXMXMXMXMXMXMXMXMXMXMXMXMXMXMXMXMXMXMXMXMXMXMXMXMXMXMXMXMXMXMXMXMXMXMXMXMXMXMXMXMXMXMXMXMXMXMXMXMXMX",
"MXMXMXMXMXMXMXMXMXMXMXMXMXMXMXMXMXMXMXMXMXMXMXMXMXMXMXNXBXBXBXBXBXBXBXBXBXBXBXBXNXNXMXMXMXMXMXMXMXMXMXMXMXMXMXMXMXMXMXMXMXMXMXMX",
"MXMXMXMXMXMXMXMXMXMXMXMXMXMXMXMXMXMXMXMXMXMXMXMXMXMXNXBXVXCXCXCXCXCXCXCXCXCXVXVXBXNXMXMXMXMXMXMXMXMXMXMXMXMXMXMXMXMXMXMXMXMXMXMX",
"MXMXMXMXMXMXMXMXMXMXMXMXMXMXMXMXMXMXMXMXMXMXMXMXMXmXvX X&XeXeXeXeXeXeXeXeXeXyX[.+XfXbXMXMXMXMXMXMXMXMXMXMXMXMXMXMXMXMXMXMXMXMXMX",
"MXMXMXMXMXMXMXMXMXMXMXMXMXMXMXMXMXMXMXMXMXMXMXMXMXcX3Xa.R.# # # @ @ @ @ @ + , ~./.0XdXNXNXMXMXMXMXMXMXMXMXMXMXMXMXMXMXMXMXMXMXMX",
"MXMXMXMXMXMXMXMXMXMXMXMXMXMXMXMXMXMXMXMXMXMXMXNXBXlXyXE.*.0 y e 9 9 9 9 9 0 r  .. G.-XVXBXMXMXMXMXMXMXMXMXMXMXMXMXMXMXMXMXMXMXMX",
"MXMXMXMXMXMXMXMXMXMXMXMXMXMXMXMXMXMXMXMXMXMXMXBXCX:X].> 6 b z K K K K K K L L S q ; yXCXBXMXMXMXMXMXMXMXMXMXMXMXMXMXMXMXMXMXMXMX",
"MXMXMXMXMXMXMXMXMXMXMXMXMXMXMXMXMXMXMXMXMXNXNXaXyX/.: 4.U E Y g g g g g g R R L 5 . 7XCXBXMXMXMXMXMXMXMXMXMXMXMXMXMXMXMXMXMXMXMX",
"MXMXMXMXMXMXMXMXMXMXMXMXMXMXMXMXMXMXMXMXMXBXBX6X- 5.2 N h j v L L L L L K P P ' ..~.[.VXBXMXMXMXMXMXMXMXMXMXMXMXMXMXMXMXMXMXMXMX",
"MXMXMXMXMXMXMXMXMXMXMXMXMXMXMXMXMXMXMXMXMXBXVXl.[ h T k F 5 [ ,.,.<.<.>.,.<.<.9.!.e.1XBXNXMXMXMXMXMXMXMXMXMXMXMXMXMXMXMXMXMXMXMX",
"MXMXMXMXMXMXMXMXMXMXMXMXMXMXMXMXMXMXMXMXMXVXVXv.p Q Q B { # (.a.p.i.i.i.i.i.i.9XuX1XiXNXMXMXMXMXMXMXMXMXMXMXMXMXMXMXMXMXMXMXMXMX",
"MXMXMXMXMXMXMXMXMXMXMXMXMXMXMXMXMXMXMXMXMXVXVXc.i / Q D +.A.1XDXSXZXZXZXZXZXZXZXCXBXNXMXMXMXMXMXMXMXMXMXMXMXMXMXMXMXMXMXMXMXMXMX",
"MXMXMXMXMXMXMXMXMXMXMXMXMXMXMXMXMXMXMXMXMXVXVXc.t / ! D -.J.XXAXZXVXVXVXVXVXVXVXBXNXMXMXMXMXMXMXMXMXMXMXMXMXMXMXMXMXMXMXMXMXMXMX",
"MXMXMXMXMXMXMXMXMXMXMXMXMXMXMXMXMXMXMXMXMXVXCXc.u ^ ! S =.F.OXCXVXNXNXNXNXNXMXMXMXMXMXMXMXMXMXMXMXMXMXMXMXMXMXMXMXMXMXMXMXMXMXMX",
"MXMXMXMXMXMXMXMXMXMXMXMXMXMXMXMXMXMXMXMXMXVXCXb.u ^ ! S =.H.oXZXCXBXBXBXBXNXMXMXMXMXMXMXMXMXMXMXMXMXMXMXMXMXMXMXMXMXMXMXMXMXMXMX",
"MXMXMXMXMXMXMXMXMXMXMXMXMXMXMXMXMXMXMXMXMXVXCXv.u ^ Q J 3.B.wX4X3X>X;X:X4XsXxXNXMXMXMXMXMXMXMXMXMXMXMXMXMXMXMXMXMXMXMXMXMXMXMXMX",
"MXMXMXMXMXMXMXMXMXMXMXMXMXMXMXMXMXMXMXMXMXVXCXv.u ^ Q M 6.o Z.x.u.y.t.r.h.6XaXBXNXMXMXMXMXMXMXMXMXMXMXMXMXMXMXMXMXMXMXMXMXMXMXMX",
"MXMXMXMXMXMXMXMXMXMXMXMXMXMXMXMXMXMXMXMXMXVXCXv.u ~ W c 2 7.0.& > O o % = Y.tXvXnXMXMXMXMXMXMXMXMXMXMXMXMXMXMXMXMXMXMXMXMXMXMXMX",
"MXMXMXMXMXMXMXMXMXMXMXMXMXMXMXMXMXMXMXMXMXVXCXv.y ! W j x V D ' ' ] ` _ ` | ).2XvXNXNXMXMXMXMXMXMXMXMXMXMXMXMXMXMXMXMXMXMXMXMXMX",
"MXMXMXMXMXMXMXMXMXMXMXMXMXMXMXMXMXMXMXMXMXVXCXv.y ! E Y T W Q ! ! ! ! / ( 7 I.=XpXNXNXMXMXMXMXMXMXMXMXMXMXMXMXMXMXMXMXMXMXMXMXMX",
"MXMXMXMXMXMXMXMXMXMXMXMXMXMXMXMXMXMXMXMXMXVXZXn.y ! E Y T W ! ~ ~ ~ ~ / ( 4 Q.<XvXNXNXMXMXMXMXMXMXMXMXMXMXMXMXMXMXMXMXMXMXMXMXMX",
"MXMXMXMXMXMXMXMXMXMXMXMXMXMXMXMXMXMXMXMXMXVXZXg.y ! W k I D 3 s s d d a s -.z.gXxXNXMXMXMXMXMXMXMXMXMXMXMXMXMXMXMXMXMXMXMXMXMXMX",
"MXMXMXMXMXMXMXMXMXMXMXMXMXMXMXMXMXMXMXMXMXVXZXg.y ~ Q I 0 q.N.S.A.G.G.D._.k.<XbXnXMXMXMXMXMXMXMXMXMXMXMXMXMXMXMXMXMXMXMXMXMXMXMX",
"MXMXMXMXMXMXMXMXMXMXMXMXMXMXMXMXMXMXMXMXMXVXZXg.y ~ ! F ,.N.qX X|.3X3X}.lXvXnXNXMXMXMXMXMXMXMXMXMXMXMXMXMXMXMXMXMXMXMXMXMXMXMXMX",
"MXMXMXMXMXMXMXMXMXMXMXMXMXMXMXMXMXMXMXMXMXVXZXg.0 ~ ! C %.U.%XnXmXbXbXxXmXMXMXMXMXMXMXMXMXMXMXMXMXMXMXMXMXMXMXMXMXMXMXMXMXMXMXMX",
"MXMXMXMXMXMXMXMXMXMXMXMXMXMXMXMXMXMXMXMXMXVXZXg.0 ~ ! Z $.V.-XCXBXNXNXNXNXMXMXMXMXMXMXMXMXMXMXMXMXMXMXMXMXMXMXMXMXMXMXMXMXMXMXMX",
"MXMXMXMXMXMXMXMXMXMXMXMXMXMXMXMXMXMXMXMXMXCXZXf.9 ~ ! A @.W.*XVXBXMXMXMXMXMXMXMXMXMXMXMXMXMXMXMXMXMXMXMXMXMXMXMXMXMXMXMXMXMXMXMX",
"MXMXMXMXMXMXMXMXMXMXMXMXMXMXMXMXMXMXMXMXMXCXAXh.9 ~ ! A &.W.=XVXBXMXMXMXMXMXMXMXMXMXMXMXMXMXMXMXMXMXMXMXMXMXMXMXMXMXMXMXMXMXMXMX",
"MXMXMXMXMXMXMXMXMXMXMXMXMXMXMXMXMXMXMXMXMXCXAXh.9 ~ ! A &.W.=XVXBXMXMXMXMXMXMXMXMXMXMXMXMXMXMXMXMXMXMXMXMXMXMXMXMXMXMXMXMXMXMXMX",
"MXMXMXMXMXMXMXMXMXMXMXMXMXMXMXMXMXMXMXMXMXCXAXh.e ~ ! Z $.V..XZXCXBXBXBXBXBXBXBXNXNXMXMXMXMXMXMXMXMXMXMXMXMXMXMXMXMXMXMXMXMXMXMX",
"MXMXMXMXMXMXMXMXMXMXMXMXMXMXMXMXMXMXMXMXMXCXAXh.w ! ! Z #.C.oXAXZXVXVXVXVXVXVXVXBXNXMXMXMXMXMXMXMXMXMXMXMXMXMXMXMXMXMXMXMXMXMXMX",
"MXMXMXMXMXMXMXMXMXMXMXMXMXMXMXMXMXMXMXMXMXCXAXf.0 ~ ~ n } ~.M.*X=X#X#X#X#X$X@X.X4XkXxXMXMXMXMXMXMXMXMXMXMXMXMXMXMXMXMXMXMXMXMXMX",
"MXMXMXMXMXMXMXMXMXMXMXMXMXMXMXMXMXMXMXMXMXCXAXh.9 ~ ! z f $.!.T.Y.L.L.L.L.P.K.J.j.{.hXNXNXMXMXMXMXMXMXMXMXMXMXMXMXMXMXMXMXMXMXMX",
"MXMXMXMXMXMXMXMXMXMXMXMXMXMXMXMXMXMXMXMXMXVXZX8X=.` N m ) s  .2.2.1.1.1.1.:.;.8.^.'.,XBXNXMXMXMXMXMXMXMXMXMXMXMXMXMXMXMXMXMXMXMX",
"MXMXMXMXMXMXMXMXMXMXMXMXMXMXMXMXMXMXMXMXMXBXBXoX`.* X.8 V z B H H H H H H F G 1 6., yXVXBXMXMXMXMXMXMXMXMXMXMXMXMXMXMXMXMXMXMXMX",
"MXMXMXMXMXMXMXMXMXMXMXMXMXMXMXMXMXMXMXMXMXNXNXjX&Xy.$ O.N ! ~ ! ! ! ! ! ! ~ ^ k < w.0XCXBXMXMXMXMXMXMXMXMXMXMXMXMXMXMXMXMXMXMXMX",
"MXMXMXMXMXMXMXMXMXMXMXMXMXMXMXMXMXMXMXMXMXMXMXmXpX&X'.X ) ~ ^ ~ ~ ~ ~ ~ ! ^ / l f = 6XVXBXMXMXMXMXMXMXMXMXMXMXMXMXMXMXMXMXMXMXMX",
"MXMXMXMXMXMXMXMXMXMXMXMXMXMXMXMXMXMXMXMXMXMXMXNXBXkXrXF.@.0 r 0 0 9 9 e w 0 r o.  C.=XBXNXMXMXMXMXMXMXMXMXMXMXMXMXMXMXMXMXMXMXMX",
"MXMXMXMXMXMXMXMXMXMXMXMXMXMXMXMXMXMXMXMXMXMXMXMXNXmXlX*Xs.g.d.g.f.h.h.h.h.f.g.m.5X=XzXNXMXMXMXMXMXMXMXMXMXMXMXMXMXMXMXMXMXMXMXMX",
"MXMXMXMXMXMXMXMXMXMXMXMXMXMXMXMXMXMXMXMXMXMXMXMXMXMXNXBXCXZXZXZXZXAXAXAXAXAXAXZXCXVXNXMXMXMXMXMXMXMXMXMXMXMXMXMXMXMXMXMXMXMXMXMX",
"MXMXMXMXMXMXMXMXMXMXMXMXMXMXMXMXMXMXMXMXMXMXMXMXMXMXNXBXVXVXVXVXCXCXCXCXCXCXCXVXVXBXNXMXMXMXMXMXMXMXMXMXMXMXMXMXMXMXMXMXMXMXMXMX",
"MXMXMXMXMXMXMXMXMXMXMXMXMXMXMXMXMXMXMXMXMXMXMXMXMXMXMXMXMXMXMXMXMXMXMXMXMXMXMXMXMXMXMXMXMXMXMXMXMXMXMXMXMXMXMXMXMXMXMXMXMXMXMXMX",
"MXMXMXMXMXMXMXMXMXMXMXMXMXMXMXMXMXMXMXMXMXMXMXMXMXMXMXMXMXMXMXMXMXMXMXMXMXMXMXMXMXMXMXMXMXMXMXMXMXMXMXMXMXMXMXMXMXMXMXMXMXMXMXMX",
"MXMXMXMXMXMXMXMXMXMXMXMXMXMXMXMXMXMXMXMXMXMXMXMXMXMXMXMXMXMXMXMXMXMXMXMXMXMXMXMXMXMXMXMXMXMXMXMXMXMXMXMXMXMXMXMXMXMXMXMXMXMXMXMX",
"MXMXMXMXMXMXMXMXMXMXMXMXMXMXMXMXMXMXMXMXMXMXMXMXMXMXMXMXMXMXMXMXMXMXMXMXMXMXMXMXMXMXMXMXMXMXMXMXMXMXMXMXMXMXMXMXMXMXMXMXMXMXMXMX",
"MXMXMXMXMXMXMXMXMXMXMXMXMXMXMXMXMXMXMXMXMXMXMXMXMXMXMXMXMXMXMXMXMXMXMXMXMXMXMXMXMXMXMXMXMXMXMXMXMXMXMXMXMXMXMXMXMXMXMXMXMXMXMXMX",
"MXMXMXMXMXMXMXMXMXMXMXMXMXMXMXMXMXMXMXMXMXMXMXMXMXMXMXMXMXMXMXMXMXMXMXMXMXMXMXMXMXMXMXMXMXMXMXMXMXMXMXMXMXMXMXMXMXMXMXMXMXMXMXMX",
"MXMXMXMXMXMXMXMXMXMXMXMXMXMXMXMXMXMXMXMXMXMXMXMXMXMXMXMXMXMXMXMXMXMXMXMXMXMXMXMXMXMXMXMXMXMXMXMXMXMXMXMXMXMXMXMXMXMXMXMXMXMXMXMX",
"MXMXMXMXMXMXMXMXMXMXMXMXMXMXMXMXMXMXMXMXMXMXMXMXMXMXMXMXMXMXMXMXMXMXMXMXMXMXMXMXMXMXMXMXMXMXMXMXMXMXMXMXMXMXMXMXMXMXMXMXMXMXMXMX",
"MXMXMXMXMXMXMXMXMXMXMXMXMXMXMXMXMXMXMXMXMXMXMXMXMXMXMXMXMXMXMXMXMXMXMXMXMXMXMXMXMXMXMXMXMXMXMXMXMXMXMXMXMXMXMXMXMXMXMXMXMXMXMXMX",
"MXMXMXMXMXMXMXMXMXMXMXMXMXMXMXMXMXMXMXMXMXMXMXMXMXMXMXMXMXMXMXMXMXMXMXMXMXMXMXMXMXMXMXMXMXMXMXMXMXMXMXMXMXMXMXMXMXMXMXMXMXMXMXMX",
"MXMXMXMXMXMXMXMXMXMXMXMXMXMXMXMXMXMXMXMXMXMXMXMXMXMXMXMXMXMXMXMXMXMXMXMXMXMXMXMXMXMXMXMXMXMXMXMXMXMXMXMXMXMXMXMXMXMXMXMXMXMXMXMX",
"MXMXMXMXMXMXMXMXMXMXMXMXMXMXMXMXMXMXMXMXMXMXMXMXMXMXMXMXMXMXMXMXMXMXMXMXMXMXMXMXMXMXMXMXMXMXMXMXMXMXMXMXMXMXMXMXMXMXMXMXMXMXMXMX",
"MXMXMXMXMXMXMXMXMXMXMXMXMXMXMXMXMXMXMXMXMXMXMXMXMXMXMXMXMXMXMXMXMXMXMXMXMXMXMXMXMXMXMXMXMXMXMXMXMXMXMXMXMXMXMXMXMXMXMXMXMXMXMXMX"
};
