/* XPM */
static char *exit_resized[] = {
/* columns rows colors chars-per-pixel */
"64 64 55 1 ",
"  c #7F67FF",
". c #776FFF",
"X c #7B6CFF",
"o c #6E7AFF",
"O c #7176FF",
"+ c #7078FF",
"@ c #BE25FF",
"# c #B62EFF",
"$ c #BA2AFF",
"% c #AF35FF",
"& c #A73EFF",
"* c #AA3BFF",
"= c #B232FF",
"- c #DE04FF",
"; c #D40DFF",
": c #D809FF",
"> c #CD15FF",
", c #C41EFF",
"< c #C81AFF",
"1 c #D111FF",
"2 c #E300FF",
"3 c #E800FF",
"4 c #C222FF",
"5 c #9E47FF",
"6 c #974EFF",
"7 c #994CFF",
"8 c #895EFF",
"9 c #9353FF",
"0 c #A143FF",
"q c #8165FF",
"w c #3EACFF",
"e c #2EBDFF",
"r c #36B5FF",
"t c #39B2FF",
"y c #31BAFF",
"u c #5C8CFF",
"i c #4E9BFF",
"p c #5495FF",
"a c #5199FF",
"s c #6484FF",
"d c #6880FF",
"f c #45A6FF",
"g c #49A1FF",
"h c #1FCEFF",
"j c #0FDFFF",
"k c #16D6FF",
"l c #1AD3FF",
"z c #13DAFF",
"x c #27C5FF",
"c c #2AC2FF",
"v c #22CAFF",
"b c #07E7FF",
"n c #0BE3FF",
"m c #00EEFF",
"M c #00F2FF",
/* pixels */
"mmmmmmmmmmmmmmmmmmmmmmmmmmmmmmmmmmmmmmmmmmmmmmmmmmmmmmmmmmmmmmmm",
"mmmmmmmmmmmmmmmmmmmmmmmmmmmmmmMmmmmmmmMmmmMmmmmmmmmmmmmmmmmmmmmm",
"mmmmmmmmmmmmmmmmmmmmmmmmmmMmmmmmMmmmmmmMmmmmMmmmmmmmmmmmmmmmmmmm",
"mmmmmmmmmmmmMmmmmmmmmmMmbbnnnnnjnnnnnnjnnnnnbbmmmmmmmmmmmmmmmmmm",
"mmmmmmmmmmmmmmmmmmmmmmMbkhxccccccccccccccccvlzbmmmmmmmmmmmmmmmmm",
"mmmmmmmmmmmmmmmmmmmmmmnvfussssssssssssssssssufvbmmmmmmmmmmmmmmmm",
"mmmmmmmmmmmmmmmmmmmmmnva9#$$$$$$$$$$$$$$$#$$$9ihbmmmmmmmmmmmmmmm",
"mmmmmmmmmmmmmmmmmmmMMjy+@333332233223223223334oyzmMmmmmmmmmmmmmm",
"mmmmmmmmmmmmmmmmmmmMMzw @323222222222222222334XwkMmmmmmmmmmmmmmm",
"mmmmmmmmmmmmmmmmmbnklrs9<-2-2-22-2-222-22-2234qfkmmmmmmmmmmmmmmm",
"mmmmmmmmmmmmmmmmMnxfu 5$;2222222-2222-2222-334 fkmMmmmmmmmmmMmmm",
"mmmmmmmmmmmmmmmMMlp 5=,1---------------2----2$+rzMmmmmmmmmmmmmmm",
"mmmmmmmmmmmmmmmMMc84>;:---::;1;1;;;;;;1;;;;1>0avbmmmmmmmmmmmmmmm",
"mmmmmmmmmmmmmmmMMr*222222;=576676776667765569oyjmmmmmmmmmmmmmmmm",
"mmmmmmmmmmmmmmmMMr&322223$dtyyeyeyyyeyyyeyyyevzmmmmmmmmmmmmmmmmm",
"mmmmmmmmmmmmmmmMMr&22--33=fbMMMMMMMMMMMMMMMMMMMmmmmmmmmmmmmmmmmm",
"mmmmmmmmmmmmmmmmMr&22-223=fbmMMMMMMMMmMMmMMMMmMmmmmmmmmmmmmmmmmm",
"mmmmmmmmmmmmmmmMMr&222-33=fjmmmmmmmmmmmmmmmmmmmmmmmmmmmmmmmmmmmm",
"mmmmmmmmmmmmmmmMMr032-223=gnbMmmmmmmmmmmmmmmmmmmmmmmmmmmmmmmmmmm",
"mmmmmmmmmmmmmmmMMr*322-33=fjmmmmmmmmmmmmmmmmmmmmmmmmmmmmmmmmmmmm",
"mmmmmmmmmmmmmmmMMr*222-33%fnmmmmmmmmmmmmmmmmmmmmmmmmmmmmmmmmmmmm",
"mmmmmmmmmmmmmmmMMr&222-23=fnmmmmmmmmmmmmmmmmmmmmmmmmmmmmmmmmmmmm",
"mmmmmmmmmmmmmmmMMr*22-223=gnbMMmmmmmmmmmmmmmmmmmmmmmmmmmmmmmmmmm",
"mmmmmmmmmmmmmmmMMr&232-33=fbmMMMMMmMMMMMmMmmmmmmmmmmmmmmmmmmmmmm",
"mmmmmmmmmmmmmmmMMr0322233%fbMMMMMMMMMMMMMMmmmmmmmmmmmmmmmmmmmmmm",
"mmmmmmmmmmmmmmmMMr&32--22@owtrrrrrrrrrrcvzbmmmmmmmmmmmmmmmmmmmmm",
"mmmmmmmmmmmmmmmMMr*322222;$%******&&*&*9stzmMmmmmmmmmmmmmmmmmmmm",
"mmmmmmmmmmmmmmmMMr*222--222322222232223>5shMmmmmmmmmmmmmmmmmmmmm",
"mmmmmMmmmmmmmmmMMr*22222-22222222222222:@qcMMmmmmmmmmmmmmmmmmmmm",
"mmmmmmmmmmmmmmmMMr*32--22-2-222222-2222:>9yMMmmmmmmmmmmmmmmmmmmm",
"mmmmmmmmmmmmmmmMMr0322--22-2-22--2-2-22:>9eMMmmmmmmmmmmmmmmmmmmm",
"mmmmmmmmmmmmmmmMMr*33-22-22222222223223-,8cMmmmmmmmmmmmmmmMmmmmm",
"mmmmmmmmmmmmmmmMMt*3222---2223333232333;=OxMmmmmmmmmmmmmmmmmmmmm",
"mmmmmmmmmmmmmmmMMy*222-22:@#%%%%===%%==5OikMmmmmmmmmmmmmmmmmmmmm",
"mmmmmmmmmmmmmmmmMr*322223@.aifgigigiiggwclbmmmmmmmmmmmmmmmmmmmmm",
"mmmmmmmmmmmmmmmMMr*23--23#iljjnzjnnjnjjbmMmmmmmmmmmmmmmmmmmmmmmm",
"mmmmmmmmmmmmmmmMMr*322232%fjbmbmbmbmmmbmmMmmmmmmmmmmmmmmmmmmmmmm",
"mmmmmmmmmmmmmmmMMr*322-23%fbmmMmmmMmmmmmmmmmmmmmmmmmmmmmmmmmmmmm",
"mmmmmmmmmmmmmmmMMr*22--23=fbmmmmmmmmmmmmmmmmmmmmmmmmmmmMmmmmmmmm",
"mmmmmmmmmmmmmmmMMr*322223=fnmmmmmmmmmmmmmmmmmmmmmmmmmmmmmmmmmmmm",
"mmmmmmmmmmmmmmmMMr*32-223%fnmmmmmmmmmmmmmmmmmmmmmmmmmmmmmmmmmmmm",
"mmmmmmmmmmmmmmmMMr*322222%fbmmmmmmmmmmmmmmmmmmmmmmmmmmmmmmmmmmmm",
"mmmmmmmmmmmmmmmMMr*322-33%fnmmmmmmmmmmmmmmmmmmmmmmmmmmmmmmmmmmmm",
"mmmmmmmmmmmmmmmMMr*322-23%fbmmmmmmmmmmmmmmmmmmmmmmmmmmmmmmmmmmmm",
"mmmmmMmmmmmmmmmMMy*322-33%fbmmmmmmmmmmmmmmmmmmmmmmmmmmmmmmmmmmmm",
"mmmmmmmmmmmmmmmMMt*23--22%fbmmmmmmmmmmmmmmmmmmmmmmmmmmmmmmmmmmmm",
"mmmmmmmmmmmmmmmMMt*322223%fbmmmmmmmmmmmmmmmmmmmmmmmmmmmmmmmmMmmm",
"mmmmmmmmmmmmmmmMMr*33-223%fbmmmmMmmmmmmMmmmmMmmmmmmmmmmmmmmmmmmm",
"mmmmmmmmmmmmmmmMMr%33-223%fbmMmmmMmMmmmmmmmMmmmmmmmmmmmmmmmmmmmm",
"mmmmmmmmmmmmmmmMMt*322-22%fnbbbmbbbmbmbbbmbbmmmmmmmmmmmmmmmmmmmm",
"mmmmmmmmmmmmmmmMMr*32-222#ahkkzkzzzkzzzzzzzjbbmmMmmmmmmmmmmmmmmm",
"mmmmmmmmmmmmmmmMMr*3322224 paiiiiiaiaiiiiiiifykbmmmmmmmmmmmmmmmm",
"mmmmmmmmmmmmmmmMMy0:-2222:4#=======#========%qfzbmmmmmmmMmmmmmmm",
"mmmmmmmmmmmmmmmMMx.*#,>:--2323233332233232232#uxbmmmmmmmmmmmmmmm",
"mmmmmmmmmmmmmmmmmzyao 0@:22223222222222223233@Orzmmmmmmmmmmmmmmm",
"mmmmmmmmmmmmmmmmmmjleiX&>2222--2-22-2-22---224XwzMMmmmmmmmmmmmmm",
"Mmmmmmmmmmmmmmmmmmmbncp9<22--22-22-2-2-22-222@XwzMmmmmmmmmmmmmmm",
"mmmmmmmmmmmmmmmmmmmmMzwX423232222222322222232$+yjMmmmmmmmmmmmmmm",
"mmmmmmmmmmmmmmmmmmmMMbcs=-233233333333333333-%phnmMmmmmmmmmmmmmm",
"mmmmmmmmmmmmmmmmmmmmmbkw &**************%***5Xrjmmmmmmmmmmmmmmmm",
"mmmmmmmmmmmmmmmmmmmmmmbzxyrtrrrrrrrrrrrttrtryxzbmmmmmmmmmmmmmmmm",
"mmmmmmmmmmmmmmmmmmmmmmmMMMMMMMMMMMMMMMMMMMMMMMMmmmmmmmmmmmmmmmmm",
"mmmmmmmmmmmmmmmmmmmmmmmmMMMMMMMMMMMMMMMMMMMMMmmmmmmmmmmmmmmmmmmm",
"mmmmmmmmmmmmmmmmmmmmmmmmmmmmmmmmmMmmmmmmmmmmmmmmmmmmmmmmmmmmmmmm"
};
