/* XPM */
static char *exit_resized[] = {
/* columns rows colors chars-per-pixel */
"128 128 62 1 ",
"  c #7F67FF",
". c #776FFF",
"X c #7C6BFF",
"o c #6C7CFF",
"O c #7374FF",
"+ c #7870FF",
"@ c #7078FF",
"# c #BE25FF",
"$ c #B62DFF",
"% c #BA2AFF",
"& c #AE36FF",
"* c #A63EFF",
"= c #AA3AFF",
"- c #B132FF",
"; c #DE04FF",
": c #D50DFF",
"> c #D908FF",
", c #CC16FF",
"< c #C61DFF",
"1 c #C91AFF",
"2 c #D111FF",
"3 c #E200FF",
"4 c #E900FF",
"5 c #C221FF",
"6 c #9F46FF",
"7 c #964FFF",
"8 c #9A4BFF",
"9 c #8F57FF",
"0 c #875FFF",
"q c #8B5BFF",
"w c #9550FF",
"e c #A342FF",
"r c #8364FF",
"t c #3DADFF",
"y c #2EBEFF",
"u c #35B6FF",
"i c #3AB1FF",
"p c #32B9FF",
"a c #5E8BFF",
"s c #4D9DFF",
"d c #5396FF",
"f c #5990FF",
"g c #5199FF",
"h c #6485FF",
"j c #6880FF",
"k c #6089FF",
"l c #46A4FF",
"z c #49A1FF",
"x c #41A9FF",
"c c #1ECEFF",
"v c #0FDEFF",
"b c #16D6FF",
"n c #1BD2FF",
"m c #12DCFF",
"M c #26C6FF",
"N c #2AC2FF",
"B c #21CCFF",
"V c #07E7FF",
"C c #0BE3FF",
"Z c #00EEFF",
"A c #00F3FF",
"S c #00FBFF",
/* pixels */
"ZZZZZZZZZZZZZZZZZZZZZZZZZZZZZZZZZZZZZZZZZZZZZZZZZZZZZZAZZZZZZZZZZZZZZZZZZZZZZZZZZZZZZZZZZZZZZAZZZZZZZZZZZZZZZZZZZZZZZZZZZZZZZZZZ",
"ZZZZZZZZZZZZZZZZAZZZZZZZZZZZZZZZZZZZZZZZZZZZZZZZZZZZZZZZZZZZZZZZZZZZZZZZZZZZZZZZZZZZZZZZZZZZZZZZZZZZZZZZZZZZZZZZZZZZZZZZZZZZZZZZ",
"ZZZZZZZZZZZZZZZZZZZZZZZZZZZZZZZZZZZZZZZZZZZZZZZZZZZZZZZZZZZZZZZZZZZZZZZZZZZZZZZZZZZZZZZZZZZZZZZZZZZZZZZZZZZZZZZZZZZZZZZZZZZZZZZA",
"ZZZZZZZZZZZZZZZZZZZZZZZZZZAZZZZZZZZZZZZZZZZZZZZZZZZZZZZZAZZZZZZZZZZZZZZZZZZZZZZZZZZZZZZAZZZZZZZZZZZZZZZZZZZZZZZZZZZZZZZZZZZZZZZZ",
"ZZZZZZZZZZZZZZZZZZZZZZZZZZZZZZZZZZZZAZZZZZZZZZZZZZZZZZZZZZZZZZZZZZZZZZZZZZZZZZZZZZZZZZZZZZZZZZZZZZZZZZZZZZZZZAZZZAZZZZZZZZZZZZZZ",
"ZZZZZZZZZZZZZZZZZZZZZZZZZZZZZZZZZZZZZZZZZAZZZZZZZZZZZZZZZZZZZZZZZZZZZZZZZZZZZZZZZZZZZZZZZZZZZZZZZZZZZZZZZZZZZZZZZZZZZZZZZZZZZZZZ",
"ZZZZZZAZZZZZZZZZZZZZZZZZZZZZZZZZZZZZZZZZZZZZZZZZZZZZZZZZZZZZZZZZZZZZZZZZZZZZZZZZZZZZZZZZZZZZZZZZZZZZZZZZZZZZZZZZZZZZZZZZZZZZZZZZ",
"ZZZZZZZZZZZZZZZZZZZZZZZZZZZZZZZZZZZZZZZZZZZZZZAZZAZZAZZAZZAZZAZAAZAZAZZAZAZAZAZAZAZZAZZZZZZZZZZZZZZZZZZZZZZZZZZZZZZZZZZZZZZZZZZZ",
"ZZZZZZZZZZZZZZZZZZZZAZZZZZZZZZZZZZZZZZZZZZZZZZZZAZAZAZZAZAZZAAZZZAZZAZAZZAZZAZAZAAZZAZZZZZZZZZZZZAZZZZZZAZZZZZZZAZZZZZZZZZZZZZZZ",
"ZZZZZZZZZZZZAZZZZZZZZZZZZZZZZAZZZZZZZZZZZZZZZZZZZZZZZZZZZZZZZZZZZZZZZZZAZZZZZZZZZZZZZZZZZZZZZZZZZZZZZZZZZZZZZZZZZZZZZZZZZZZZZZZZ",
"ZZZZZZZAZZZZZZZZZZZZZZZZZZZZZZZZZZZZZZZZZZZZZVZVVVVVVVVVVVVVVVVVVVVVVVVVVVVVVVVVVVVVVVZZZZZZAZZZZZZZZZZZZZZZZZZZZZZZZZZZZZZZZZZZ",
"ZZZZZZZZZZZZZZZZZZZZZZZZZZZZZZZZZZZZZZZZAZZZVVCvvmmmmmmmmmmmmmmmmmmmmmmmmmmmmmmmmmvvCCVVZZAZZZZZZZZZZZZZZZZZZZZZZZZZZZZZZZZZZZZZ",
"ZZZZZZZZZZZZZZZZZZZZZZZZZZZZZZZZZZZZZZZZZAZVCvbbccBBBBBBBBBBBBBBBBBBBBBBBBBBBBBBMBnnbmmCVZAZZZZZZZZZZZZZZZZZZZZZZZZZZZZZZZZZZZZZ",
"ZZZZZZZZZZZZZZZZZZZZZZZZZZZZZZZZZZZZZZZZZZVvbcNyppuuupupuupuupupuuuuuppupupuuuuuupppNMcbvVZZZZZZZZZZZZZZZZZZZZZZZZZZZZZZZZZZAZZZ",
"ZZZZZZZZZZZZZZZZZZZZZZZZZZZZZZZZZZZZZZZVZVvcytxssgggdggdgddddgddddgddgdddddgdgddddgszxiMnvVZZZZZZZZZZZZZZZZZZZZZZZZZZZZZZZZZZZZZ",
"ZZZZZZZZZZZZZZZZZZZZZZZZZZZZZZZZAZZZZZZVvbBish@.+.. XXX.X.X.XXX+X.X.XX++XXX.X. ..X+++oksuBmCVZZZZZZZZZZZZZZZZZZZZZZZZZZZZZZZZZZZ",
"ZZZZZZZZZZZZZZZZZZZZZZZZZZZZZZZZZZAZAZVCbMid+96*************************=**=**=******69@gpnmVVZZZZZZZZZZZZZZZZZZZZZZZZZZZZZZZZZZ",
"ZZZZZZZZZZZZZZZZZZZZZZZZZZZZZZZZZZZZZZVmBusO7$1,,,111,11,,11,,111,111,1,1111,111,11,,<-wolNnCVZZZZZZAZZZZZZZZZZZZZZZZZZZZZZZZZZZ",
"ZZZZZZZZZZZZZZZZZZZZZZZZZZZZZZZZZZZAAZVbMxar=1;443;333;33;;;3;;33;3;;;33;3;;3;;;3;;43;1*.duBmVZAAZZZZZZZZZZZZZZAZZZZZZAZZZZZZZZZ",
"ZZZZZZZZZZZZZZZZZZZZZZZZZZZZZZZAZZAAAAVnyzhq-:44443444344444443444444444344444444444442&ratMbVZZZZZZZZZZZZZZZZZZZZZZZZZZZZZZZZZZ",
"ZZZZZZZZAZZZZZZZZZZZZZZZZZZZZZZZAZAAAAVnpso9$:44443334344434434434433434434443343444442&qhxNbCZZAZZZZZZZZZZZZZZZZZZZZZZZAZZZZZZZ",
"ZZZZZZZZZZZZZZZZZZZZZAZZZZZZZZZZZZZZAVCBtd@7$,;443333333;33;33;333;3333;33;3;33333;443,-qhzpnCZAZZZZZZZZZZZZZZZZZZZZZZZZZZZZZZZZ",
"ZZAZZZZZZZZZZZZZZZZZZZZZZZZZZZZVVVCCCmBpshr6#:;333333333;33;;33;3333;33;;33;3333;333432-qospcCZZZAZZZZZZZZZZZZZZZZZZZZZZZZZZZZZZ",
"ZZZZZZZZZZZZZZZZZZZZZZZZZZZZZZZVmbnBMptdoX7=<:;4333;3;3333333333;3333333333333;33333432-9osucCZAAZZZZZZZZZZZZZZZZZZZZZZZZZZZZZZZ",
"ZZZZZZZZZZZZZZZZZZZZZZZZZZZAZZVvnMpxldh+08=#1;334;33333333333333333;3333333333;333344;2$9osucCZZZZZZZZZZZZZZZZZZZZZZZZZZZZZZZZZZ",
"ZZZZZZZZZAZZZZZZZZZZZZZZZZZZAZCbNisfo+rw*$#<:;;33333;33;;3333;333333;333;33;3333;3334;,-qhspnCZAAZZZZZZZZZZZZZZZZZZZZZZZZZZZZZZZ",
"ZZZZZZZZZZZZZZZZZZZZZZZZZZZZAZCBidj+rwe&$<1::;3333;;;;;;;;;;;;;;;;;;;;;;;;;;;;;;;;;33;1=raxynCZZZZZZZZZZZZZZZZZZZZZZZZZZZZZZZZZZ",
"ZZZZZZZZZZZZZZZZZZZZAZZZZZAAAZmpd@q8*-$51,:;;3;3;;;3;;;;;;;;;;;;;;;;;;;;;;;;;;;;;;;;;:56.diBmVZAAZZZZZZZZZZZZZZZZZZZZZZZZZZZZZZZ",
"ZZZZZZZZZZZZZZZZZZZZZZZZZZZAAZbtow*%5<1,::;;;33;;;;;;;:;;:;;>;:;;:;>>>;>;:;>>>;>;:>::,$wolMnvVZZAZZZZZZZZZZZZZZZZZZZZZZZZZZZZZZZ",
"ZZZZZZZZZZZZZZZZZZZZZZZZZZZAAZnz =12:::;;;;;;3;;::,,,,11111111,1,1,1111,1,1111,,,111<%e aucmVZZAZZZZZZZZZZZZAZZZZZZZZZZZZZZZZZZZ",
"ZZZZZZZZZZZZZZZZZZZZZZZZZZAAAZcgq#>34;;3;3;333;2<%$-&&&&&&&&&&&&&&&&&&&&&&&&&&&&-&===6qolMmVVVZZZZZZZZZZZZZZZZZZZZZZZZAZZZZZZZZZ",
"ZZZZZZZZZZZZZZZZZZZZZZZZZZAAAZcd9534443433333;:5=70rr                   r          X.OhspnCVZZZZZZZZZZZZZZZZZZZZZZZZZZZZZZZZZZZZ",
"AZZZZZZZZZZZZZZZZZZZZZZZZZZAAZcdw534433333334;,-qodssszzzzzzszzzzzzszzzzzzzzzzzzzzzzlxiycCVVZZZZZZZZZZZZZZZZZZZZZZZZZZZZZZZZZZZZ",
"ZZZZZZZZZZZZZZZZZZZZZZZZZZAASZcdq53443333;334;16oxMBcnnnnnnnnnnnnnnnnnnnnnnnnnnnnnnnnnmmCVZZZZZZZZZZZZZZZZZZZZZZZZZZZZZAZZZZZZZZ",
"ZZZZZZZZZZZZZZZZZZZZZZZZZZZAAZcd95344;3333344;<7aymVZZZZZZZZZZZZZZZZZZZZZZZZZVZZZZAZZZZZZZZZZZZZZZZZZAZZZZZZZZZZZZZZZZZZZZZZZZZZ",
"ZZZZZZZZZZAZZZZZAZZZZZZZZZAAAZcd9<;4433;;3344;<waNCAAAAAAAAASAAAAASAAAAAAAAASAAAAAAAAAAAZAZZZZZZZZZZZZZZZZZZZAZZZZZZZZZZZZZZZZZZ",
"ZZZZZZZZZZZZZZZZZZZZZZZZZZAAAZcd953443333;334;<waMCZAAAAAAAAAAAAAAAAAAAAAAAAAAAAAAAAAAAAAZZZZZZZZZZZZZZZZZZZZZZZZZZZZZZZZZZZZZZZ",
"ZZZZZZZZZZZZZZZZZZZZZZZZZZAAAZcg95;4433;333443<waymZZZZZAAAZZZZAAZAZZZAZAZAZZAZAAZZZZAZZZZZZZZZZZZZZZZZZZZZZZZZZZZZZZZZZZZZZZZZZ",
"ZZZZZZZZZZZZZZZZZZZZZZZZZZZASZBd95;44333;33443<waymVZZZZZZZZZZZZZZZZZZZZZZZZZZZZZZZZZZZZZZZZZZZZZZZZZZZZZZZZZZZZZZZZZZZZZZZZZZZZ",
"ZZZZZZZZZZZZZZZZZZZZZZZZZZZAAZcd9<3433;333;44;<waymVZZZZZZZZZZZZZZZZZZZZZZZZZZZZZZZZZZZZZZZZZZZZZZZZZZZZZZZZZZZZZZZZZZZZZZZZZZZZ",
"ZZZZZAZZZZZZZZZZZZZZZZZZZZAAAZBdq5344333;3344;<7aymZZZZZZZZZZZZZZZZZZZZZZZZZZZZZZZZZZZZZZZZZZZZZZZZZZZZZZZZZZZZZZZZZZZZZZZZZZZZZ",
"ZZZZZZZZZZZZAZZZZZZZZZZZZZZASZcg9<;4433;33;44;<7kymVZVZZZZZZZZZZZZZZZZZZZZZZZZZZZZZZZZZZZZZZZZZZZZZZZZZZZZZZZZZZZZZZZZZZZZZZZZZZ",
"ZZZZZZZZZZZZZZZZZZZZZZZZZZZAAZcd9<;43333;;344;<7aymZZZZZZZZZZZZZZZZZZZZZZZZZZZZZZAZZZZZZZZZZZZZZZZZZZZZZZZZZZZZZZZZZZZZZZZZZZZZZ",
"ZZZZZZZZZZZZZZZZZZZZZZZZZZAAAZcd95;4433;33344;<waymVZZZZAZZZZZZZZZZZZZZZZZZZZZZZZZZZZZZZZAZZZZZZZZZZZZZZZZZZZZZZZZZZZZZZZAZZZZZZ",
"ZZZZZZZZZZZZZZZZZZZZZZZZZZAAAZcd95344;33333343<7aymZZZZZZZZZZZZZZZZZZZZZZZZZZZZZZZZZZZZZZZZZZZZZZZZZZZZZZZZZZZAZZZZZZZZAZZZZZZZZ",
"ZZZZZZZZZZZZZZZZZZAZZZZZZZZAAZcd95;443;33;344;<waymVZZZAZZZZZZZAZZZZZZZZZZZZZZZZZZZZZZZZZZZZZZZZZZZZZZZZZZZZZZZZZZZZZZZZZZZZZZZZ",
"ZZZZZZZZZZZZZZZZZZZZZZZZZZAASZcd95344333;3344;<wayvVVZZZZZZZZZZZZZZZZZZZZZZZZZZZZZZZZZZZZZZZZZZZZZZZZZZZZZZZZZZZZZZZZZZZZZZZZZZZ",
"ZZZZZZZZZZZZZZZZZZZZZZZZZZZAAZcd9<;443;;33344;<waymVZZZZZZZZZZZZZZZZZZZZZZZZAZZZZZZZZZZZZZZZZZZZZZZZAZZZZZZZZZZZZZZZZZZZZZZZZZZZ",
"ZZZZZZZZZZZZZZZZZZZZZZZZZZZAAZcd9534433;;3344;<waymZZVZZAZZZZZZZZZZZZZZZZZZZZZZZZZZZZZZZZZZZZZZZZZZZZZZZZZZZZZZZZZZZZZZZZZZZZZZZ",
"ZZZZZZZZZZZZZZZZZZZZZZZZZZAAAZcd95344;3333344;<waymVZZZZZZZZZZZZZZZZZZZZZZZZZZZZZZZZZZZZZZZZZZZZZZZZZZZZZZZZZZZZZZZZZZZZZZZZZZZZ",
"ZZZZZZZZZZZZZZZZZZZZZZZZZZAASZBd95;4433;;3344;<7ayvZZZZZAZZAZAZZZAAZAZZAAZAZZZZZZZZZZZZZZZZZZZZZZZZZZZZZZZZZZZZZZZZZZZZZZZZZZZZZ",
"ZZZZZZZZZZZZZZZAZZZZZZZZZZZAAZcg9<;4433333;34;<waNCAAAAAAAAAAAAAAAAAAAAAAAAAAAZAZAZZZZZZZZZZZZZZZZZZZZZZZZZZZZZZZZZZZZZZZZZZAZZZ",
"ZZZZZZZZZZZZZZZZZZZZZZZZZZZAAZcdq53443;3;3344;<waMCAAAASASAASAAAASAASAAAAAAAAAAZZZZZZZZZZZZZZZZZZZZZZZZZZZZZZZZZZZZZZZZZZZZZZZZZ",
"ZZZZZAZZZZZZZZZZZZZZZZZZZZAAAZcdw<;433;333344;<7aymVZZZZZZZZZZZZZZZZZZZZZZZZZZZZZZZZZZZZZZZAZZZZZZZZZZZZZZZZZZZZZZZZZZZZZZZZZZZZ",
"ZZZZZZZZZZZZZZZZZZZZZZZZZZAASZcgq5;44333;3;44;1e@lyBccccccccccccccccccccnBnbbmvVVZZZZZZZZZZZZZZZZZZZZZZZZZZZZZZZZAZZZZZZZZZZZZZZ",
"ZZZZZZZZZZZZZZZZZZZZZZZZZZZAAZBg95;443;3333343,-9@addddggdgggdddddgggdggggzxiMBbCVZZAZZZZZZZZZZZZZZZZZZAZZZZZZZZZZZZZZZZZZZZZZZZ",
"ZZZZZZZZZZZZZZZZZAZZZZZZZZAAAZcd9<;44;;;3;3333:<-ew999qq9q9q9q999q9qq9qqqqr@aziMbVZAZZZZZZZZZZZZZZZZZZZZZZZZZZZZZZZZZZZZZZZZZZZZ",
"ZZZZZZZZZZZZZZZZZZZZZZZZZZZAAZcd95344333333333;:,1<55##5#5<######5##5#555#-8rogiBCZZAZZZZZZZZZZZZZZZZZZZZZZZZZZZZZZZZZZZZZZZZZZZ",
"ZZZZZZZZZZZZZZAZZZZZZZZZZZAASZcd95;443333;3;;3;3;3;;;;;;;;;;;;;;;;;;;;;;;>,%8rjlMmZAZZZZZZZZZZZZZZAZZZZZZZZZZZAZZZZZZZZZZZZZZZZZ",
"ZZZZZZZZZZZZZZZZZZZZZZZZZZZAAZcd953443;33333333344444344443443444434444444><-8XfpmZAAZZZZZZZZZAZZZZZZZZZZZZZZZZZZZZZZZZZZZZZZZZZ",
"ZZZZZZZZZZZZZZZZZZZZZZZZZZZAAZcg9534433;;33;333334443443344434344434434444>25=9hibZAAZZZZZZZZZZZZZZZZZZZZZZZZZZZAZZZZZZZZZZZZZZZ",
"ZZZZZZZZZZZZZZZZZZZZZZZZZZAAAZBdq<;4433333333;33;3333;333;;33;33;33;33;333;:1$8@xbZAAAZZZZZZZZZZZZZZZZZZZZZZZZZZZZZZZZZZZZZZZZAZ",
"ZZZZZZZZZZZZZZZZZZZZZZZZZZAASZBd95;443;;;3;;333333333333;3;333333;3;;3;33;;>25e+lbZAAZZZZZZZZZZZZZZZZZZZZZZZZZZZZZZZZZZZZZZZZZZZ",
"ZZZZZZZAZZZZZZZZZZZZZZZZZZZAAZnd9<344;3333333;3;3;3;;3;33333;3;33333333333;>:<*XlnZAAZZZZZZZZZZZZZZZZZZZZZZZZZZZZZZZZZZZZZZZZZZZ",
"ZZZZZZZZZZZZZZZZZZZZZZZZZZAAAZcdq534433;3;3;;3333;3;33333;;3;3;3;3;3;3333;;;2<*.lnZAAAZZZZZZZZZZZZZZZZZZZZZZZZZZZZZZZZZZZZZZAZZZ",
"ZZZZZZZZZZZZZZZZZZZZZZZZZZZAAZcdw<;44333333333;333333;3;333333333333333333;;,<*.lnZAAZZZZZZZZZZZZZZZZZZZZZZZZZZZZZAZZZZZZZZZZZZZ",
"ZZZZZZZZZZZZZZZZZZZZZZZZZZZASZcgq5;43333;333333;333333;333;333;33;33;33433;:,%6@xnZAAZZZZZZZZZZZZZZZZZZZZZZZZZZZZZZZZZZZZZZZZZZZ",
"ZZZZZZAZZZZZZZZZZZZZZZZZZZAAAZBg95;443;333;33;3333343444444344444434434444;:<$7otbZAAZZZZZZZZZZZZZZZZZZZZZZZZZZZZZZZZZZZZZZZZZZZ",
"ZZZZZZZZZZZZZZZZZZZZZZZZZZZAAZcd9<;44;33;3;33;3344444444444444444444444444;2#*qhimZAAAZZZZZZZZZZZZZZZZZZZZZZZZZZZZZZZZZZZZZZZZZZ",
"ZZZZZZZZZZZZAZZZZZZZZZZZZZAAAZcd9534433;33;33333;3;;;3;3;;;;333;;;3;;;;33;:<-7.dpmZAAZZZZZZZZZZZZZZZZZZZZZZZZZZZZZZZZZZZZZZZZZZZ",
"ZZZZZZZZZZZZZZZZZZAZZZZZZZZASZcd95;44;3;3;333;;;:1<<<<<<<<<<1551<<<<<<<<1<%=wXhlMvZAZZZZZZZZZZZZZZZZZZZZZZZZZZZZZZZZZZZZZZZZZZZZ",
"ZZZZZZZZZZZZZZZZZZZZZZZZZZAAAZcd95344333333333:1$*6678878788788888788888879 oalucvZAAZZZZZZZZAZZZZZZAZZZZZZZZZZZZZZZZZZZZZZZZZZZ",
"ZZZZZZZZZZZZZZZZZZZZZZZZZZZAAZcd953443;333334;:$8 @oahhhhhhhhhhhhhhhhhhhhaasxuMcmVZAZZZZZZZZZZZZZZZZZZZZZZZZZZZAZZZZZZZZZZZZZZZZ",
"ZZZZZZZZZZZZZZZZZZZZZZZZZZAAAZcdq<;443;33;;44;1*XftuuuuuuupppppupupupupuppMMcbmCVZZZZZZZZZZZZZZZZZZZZZZZZZZZZZZZZZZZZZZZZZZZZZZZ",
"ZZZZZZZAZZZZZZZZZZZZZZZZZZAASZBd95;4433333;44;16otNcnbbbbbbbbbbbbbbbbbbbmmmCVZZZZZZZZZZZZZZZZZZZZZZZZAZZZZZZZZZZZZZZZZZZZZZZZZAZ",
"ZZZZZZZZZZZZZZZZZZZZZZZZZZZAAZcg9<34433;;3334;<8hunvCCCVVVCVCVCVVCVCVVVVVVVZZAAAAZZZZZZZZZZZZZZZZZZZZZZZZZZZZZZZZZZAZZZZZZZZZZZZ",
"ZZZZZZZZZZZZZZZZZZZZZZZZZZZAAZcdq5;4433;33344;<7aubCZVZVVVZZZVZVVVZVZVZZZVZZZAZAZZZZZZZZZZZZAZZZZZZZZZZZZZZZZZZZZZZZZZZZZZZZZZZZ",
"ZZZZZZZZZZZZZZZZZZZZZZZZZZAAAZcd9<343333;3344;<7hymVZVZZZZZVZZVZZZVZVZVZZZZZZZZZZZZZZZZZZZZZZZZZZZZZZZZZZZZZZZZZZZZZZZZZZZZZZZZZ",
"ZZZZZZZZZZZZZZZZZZZZZZZZZZAASZcd9<;443;333;44;<waymZZZZZZZZZZZZZZZAZZZZZZZZZZZZZZZZZZZZZZZZZZZZZZZZZZZZZZZZZZZZZZZZZZZZZZZZZZZZZ",
"ZZZZZZZZZZZZZZZAZZZZZZZZZZZAAZcd95;44333;33443<7aymVZZZZZZZZZZAZZAZZZZZZZZZZZZZZZAZZZZZZZZZZZZZZZZZZZZZZZZZZZZZZZZZZZZZZZZZZZZZZ",
"ZZZZZZZZZZZZZZZZZZZZZZZZZZZAAZcd95;433333;;44;<7aymVZZZZZAZZAZZZZZZZAZZZZZZAZZZZZZZZZZZZZZZZZZZZZZZZZZZZZZZZZZZZZZZZZZZZZZZZZZZZ",
"ZZZZZZZZZZZZZZZZZZZZZZZZZZAASZcd953443;333344;<7kymZZZZZZZZZZZZZZZZZZZZZZZZZZZZZZZZZZZZZZZZZZZZZZZZZZZZZZZZZZZZZZZZZZZZZZZZZZZZZ",
"ZZZZZZZZZZZZZZZZZAZZZZZZZZZAAZcd95;443;3;3334;<7aymZZZZAZZZZZZZZZZZZZZZZZZZZZZZZZZZZZZZZZZZZZZZZZZZZZZAZZZZZZZZZZZZZZZZZZZZZZZZZ",
"ZZZZZZZZZZZZZZZZZZZZZZZZZZAAAZcg9534433333344;<waymVZVZZZZZZZZZZZZZZZZZZZZZZZZZZZZZZZZZZZZZZZZZZZZZZZZZZZZZZZZZZZZZZZZZZZZZZZZZZ",
"ZZZZZAZZZZZZZZZZZZZZZZZZZZAAAZcd9534433;;3;44;<7aymZZZZZZZZZZZZZZZZAZZZZZZZZZZZAZZZZZZZZZZZZZZZZZZZZZZZZZZZZZZZZZZZZZZZZZZZZZZZZ",
"ZZZZZZZZZZZZZZZZZZZZZZZZZZAAAZcdq<;44333333343<waymVZZZZAZZZZZZZZZZZZZZZZZZZZZZZZZZZZZZZZZZZZZZZZZZZZZZZZZZZAZZZZZZZZZZZZZZZZZZZ",
"ZZZZZZZZZZZZZZZZZZZZZZZZZZZASZBd95;443;;333443<wayvVVZZZZZZZZZZZZZZZZZZZZZZZZZZZZZZZZZZZZZZZZZAZZZZZZZZZZZZZZZZZZZZZZZAZZZZZZZZZ",
"ZZZZZZZZZZZZZZZAZZZZZZZZZZZAAZcd9<344;333;344;<waymVZZZZZZZZZZZZZZZZZZZZZZZZZZZZZZAZZZZZZZZZZZZZZZZZZZZZZZZZZZZZZZZZZZZZZZAZZZZZ",
"ZZZZZZZZZZZZZZZZZZZZZZZZZZAAAZBgq53443333;344;<7aymVZZZZZZZZZZZZZZZZZZZZZZZZZZZZZZZZZZZZZZZZZZZZZZZZZZZZZZZZZZZZZZZZZZZZZZZZZZZZ",
"ZZZZZZZZZZZZZZZZZZZZZZZZZZZASZcd9<;4433;33334;<7hymZZZZZZZZZZAZZZZZZZZAZZZZZZZZZZZZZAZZZZZZZZZZZZZZZZZZZZZZZZZZZZZZZZZZZZZZZZZZZ",
"ZZZZZZZZZZZZZZZZZZZZZZZZZZZAAZcd9<;4333333344;<7aymZZZZZZZZZZZZZZZZZZZZZZZZZZZZZZZZZZZZZZZZZZZZZZZZZZZZZZZZZZZZZZZZZZZZZZZZZZZZZ",
"ZZZZZZZZZZZZZZZZZZZZZZZZZZAAAZcd95;443;3;3344;<waymVZVZZZZZZZZZZZZZZZZZZZZZZZZZZZZZZZZZZZZZZZZZZZZZZZZZAZZZZZZZZZZZZZZZZZZZZZZZZ",
"ZZZZZZZZZZZZZZZZZZZAZZZZZZAAAZcd95344;333;334;<7aymZZZZAZZZZZZZZZZZZZZZZZZZZZZZZZZZZZZZZZZZZZZZZZZZZZZZZZZZZZZZZZZZZZZZZZAZZZZZZ",
"ZZZZZZZZZZZZZZZZZZZZZZZZZZZAAZcd95;443;333344;<7aymVZZZZAZZZZZZZZZZZZZZZZZZZZZZZZZZZZZZZZZZZZZZZZZZZZZZZZZZZZZZZZZZZZZZZZZZZZZZZ",
"ZZZZZZZZZZAZZZZZZZZZZZZZZZAASZcd95344;33;33443<7ayvVVZZZZZZZZZZZZZZZZZZZZZZZZZZZZZZZZZZZZZZZZZZZZZZZZZZZZZZZZZZZZZZZZZZZZZZZZZZZ",
"ZZZAZZZZZZZZZZZZZZZZZZZZZZZAAZcd9<;4433;33;44;<waymVZZZZZZZZZZZZZZZZZZZZZZZZZZZZZZZZZZZZZZZZZZZZZZZZZZZZZZZZZZAZZZZZZZZZZZZZZZZZ",
"ZZZZZZZZZZZZZZZZZZZZZZZZZZZAAZcd9534433;3;3443<waymZZZZZZZZZZZZZZZZZZZZZZZZZZZZZZZZZZZZZZZZZZZZZZZZZZZZZZZAZZZZZZZZZZZZZZZZZZZZZ",
"ZZZZZZZZZZZZZZZZZZZZZZZZZZAASZcd95;4433;33344;<wayvVZVZZZZZZZZZZZZZZZZZZZZZZZZZZZZZZZZZZZZZZZZZZZZZZZZZZZZZZZZZZZZZZZZZZZZZZZZZZ",
"ZZZZZZZZZZZZZZZZZZZZZZZZZZAAAZcd9<3443;3;3;44;<7aymVZZZZZZZZZZZZZZZZZZZZZZZZZZZZZZZZZZZZZZZZZZZZZZZZZZZZZZZZZZZZZZZZZZZZZZZZZZZZ",
"ZZZZZZZZZZZZZZZZZZZZZZZZZZZAAZcdq5344;3333;44;<wayvZZZZZAZZZAZZZZAZZZAZZZZZAZZZAZZAZZZZZAZZZZZZZZZZZZZZZZZZZZZZZZZZZAZZZZZZZZZZZ",
"ZZZZZZZZZZZZZZZZZZZZZZZZZZAAAZBd95;443;333344;<7aymZZZAZZZZZZZZZZZAZZZAZAZZZZZZZAZZZZZZZZZZZZZZZZZZZZZZZZZZZZZZZZZZZZZZZZZZZZZZZ",
"ZZZZZZZZZZZZZZZZZZZZZZZZZZAASZcd95;443333;334;<7aymVZVZZZZZZZZZZZZZZZAZZZZZZZZZZZZZZZZZZZZZZZZZZZZZZZAZZZZZZZZZZZZZZZZZZZZZZZZZZ",
"ZZZZZZZZZZZZZZZZZZZAZZZZZZZAAZcdq<;44;;3333443<7kpbVZVVZZZVZVZZZVZZVZVVZVZZVZVZZZZZVZZZZZZZZZZZZZZZZZZZZZZZZZZZZZZZZZZZZZAZZZZZZ",
"ZZZZZZZZZZAZZZZZZZZZZZZZZZAAAZcd9<3443333;344;<7hubCVVVVVVVVVVVVVVVVVVVVVVVVVVCVVVVVVZZZAZZZZZZZZZZZZZZZZZZZZZZZZZZZZZZZZZZZZZZZ",
"ZZZZZZZZZZZZZZZZZZZZZZZZZZZAAZBd9<;4433;;3;44;<8hicmvvvCvvCvvCvvvCCvvvvCvvCCvvCvvvCCVZZZZZZZZZZZZZZZZZZZZZZZZZZZZZZZZZZZZZZZZZZZ",
"ZAZZZZZZZZZZZZZZZZZZZZZZZZAASZcd9<;4433333334316@lyBccncnccccncncccccnccncccnccccnnnbmvCVZZZZZZZZZZZZZZZZZZZZZZZZZZZZZZZZZZZZZZZ",
"ZZZZZZZZZZZZZZZZZZZZZZZZZZZAAZcgq#;4433333344;1=raztitiiitiiiiiiiiiiitiitiiiitiitiiupyNcmCVZZZZZZZZZZZZZZZZZZZZZZZZZZZZZZZZZZZZZ",
"ZZZZZZZZZZAZZZZZZZZZZZZZZZZAAZcgq#;44333333343:%8r@ooohohhohohoohoohohohhohoohhohohhhastNnvVVZZAZZZZZZZZZZZZZZZZZZZZZZZZZZZZZZZZ",
"ZZZZZZZZZZZZZZZZZZZZZZZZZZZASZcsq%>3443443344;;1%=e6868868886888868688886886868688888w hlMnCVZZZAZZZZZZZZZZZZZZZZZZZZZZZZZZZZZZZ",
"ZZZZZZZZZZZZZZZZZZZZZZZZZZAAAZns &,;;;;3;33;3;;::11<<<1<<<1<1<<1<<<<<<1<<1<<<<<<1<<1<#=qatcbCVZAZZZZZZZZZZZZZZZZZZZZZZZZZZZZZZZZ",
"ZZZZZZZZZZZZZZZZZZZZZZZZZZZAAZbx@8$<<1,::;;;;;3;3;3;;3;;;3;;3;;;3;;;3;3;;;3;3;;;33333;56@lynvVZZZZZZZZZZZZZZAZZZZZZZZZZZZZZZZZZZ",
"ZZZZZZZZZZZZZZZZZZZZZZZZZZZAAZmpd.q8*=-%#<,,;;3343444444444444444444444444444444444444,*XducmVZZAZZZZZZZZZZZZZZZZZZZAZZZZZZZZZZZ",
"ZZZZZZZZZZZZZZZZZZAZZZZZZZZAAZCBisho.r98*$#1:;;443344444343444444443434443443434434444,&ratMbVZAAZZZZZZZZZZZZZZZZZZZZZZZZZZZZZZZ",
"ZZZZZZZZZZZZZZZZZZZZZZZZZZZZZZVmcyixgaoX96&5,;333333;3;33333;3;33;3333;33333333333334;,&qhlpnCZZAZZZZZZZZZZZZZZZZZZZZZZZZZZZZZZA",
"ZZZZZZZZZZZZZZZZZZZZZZZZZZZZZZVVvbBMutgh.9e$<:3333333;3;3;333;3;333;333;;3;;;3;333;44;,-qosucCZAZZZZZZZZZZZZZZZZZAZZZZZZZZZZZZZZ",
"ZZZZZZZZZZZZZZZZZZZZZZZZZZAZZZZZVCmbcNisoX7&<:333;;3333;33;3333;3;33;333333333;3;33333:-9osucCZZAZZZZZZZZZZZZZZZZZZZZZZZZZZZZZZZ",
"ZZZZZZZZZZAZZZZZZZZZZZZZZZZZZZZZVVVVmbMtdoq*%:3443;333;333;333;3;333;333333333333334432-9osucCZAZZZZZZZZZZZZZZZZZZZZZZZZZZZZZZZZ",
"ZZZZZZZZZZZZZZZZZZZZZZZZZZZZZZZZZZZVZCbMla.6$2;333333;33;3333;3333;333;3;3;;3;3;;33343,&qhsynCZAAZZZZZZZZZAZZZZZZZZZZZZZZZZZZZZZ",
"ZZZZZZZZZZZZZZZZZZZZZZZZZZZZZZZZZZZAZZCBugo9$,;43333;33;333333333;3;3;3;33;33;33;3333;1&0alynCZZAZZZZZZZZZZZZZZZZZZZZZZZZZZZZZZZ",
"ZAZZZZZZZZZZZZZZZZZZZZZZZZZZZZZZZZZAAZVbylaq=,344344444443443444444444444444444444444;1* atMmCZAZZZZZZZZZZZZZZZZZZZZZZZZZZZZZZZZ",
"ZZZZZZZZZZAZZZZZZZZZZZZZZZZZZZZZAZZZAZVmBid.e1;44444444444444444444444444444444444443;<6@spcvVZZZZZZZZZZZZZZZZZZZZAZZZZZZZZZZZZZ",
"ZZZZZZZZZZZZZZZZZZZAZZZZZZZZZZZZZZZAAZVvnyzo8%2>;;;;33;33;3;;33;3;3;3;3;;;3;3;;33;;;;,$whtBmVVZZZZZZZZZZZZZAZZZZZZZZZZZZZZZZZZZZ",
"ZZZZZZZZZZZZZZZZZZZZZZZZZZZZZZZZZZZZZZVVmcua 6-#5#5555555555555555555555<55#555<555#%-8 dpnCVVZZAZZZZZZZZZZZZZZZZZZZZZZZZZZZAZZZ",
"ZZZZZZZZZZZZZZZZZZZZZZZZZZZZZZZZZZZZZZZVCbMta@rqqqqqqqqqqqqqqqqqqqqqqqqqqqqqqqqqqqqqr odtBvVVZZZZZZZZZZZZZZZZZZZZZZZZZZZZZZZZZZZ",
"ZZZZZZZZZZZZZZZZZZZZZZZZZZZZZZZZZZZZZZZVVCbMuxssgssgsggsggsgsgsgsgsgdsggsdsdsgsgggsssltpBmCVZZZZZZZZZZZZZZZZZZZZZZZZZZZZZZZZZZZZ",
"ZZZZZZZZZZZZZZZZZZZZZZZZZZZZZZZZZZZZZZZZZVVvmbncccBBcccBcBccccBBcccccBcccccBcccccBcccnnbCVVZZZZZZZZZZZZZZZZZZZZZZZZZZZZZZZZZZZZZ",
"ZZZZZZZZZZZZZZZZZZZZZZZZZZZZZZZZZZZZZZZZZZZZZZZZZZZZZZZZZZZZZZZZZZZZZZZZZZZZZZZZZZZZZZZZZZZZZZZZZZZZZZZZZZZZZZZZZZZZZZZZZZZZZZZZ",
"ZZZZZZZZZZZZZZZZZZZZZZZZZZZZZZZZZAZZZZZZZZAAAASSSSSSASSSSSASSSSSASSSSSSSSASSSSSSSSSSSASAAAAZZAZZZZZZZZZZZZZZZZZZZZZZZZZZZZZZZZZZ"
};
