/* XPM */
static char *exit1_resized[] = {
/* columns rows colors chars-per-pixel */
"64 64 56 1 ",
"  c #7F67FF",
". c #776FFF",
"X c #7B6CFF",
"o c #6D7BFF",
"O c #7375FF",
"+ c #BE25FF",
"@ c #B62EFF",
"# c #BA2AFF",
"$ c #AF35FF",
"% c #A63EFF",
"& c #AA3AFF",
"* c #B233FF",
"= c #DE03FF",
"- c #D50DFF",
"; c #D908FF",
": c #CD15FF",
"> c #C61EFF",
", c #C91DFF",
"< c #D211FF",
"1 c #E300FF",
"2 c #E900FF",
"3 c #C222FF",
"4 c #9E47FF",
"5 c #974EFF",
"6 c #994CFF",
"7 c #875FFF",
"8 c #895DFF",
"9 c #9352FF",
"0 c #A341FF",
"q c #8463FF",
"w c #3DADFF",
"e c #2EBEFF",
"r c #36B5FF",
"t c #38B3FF",
"y c #31BAFF",
"u c #5C8DFF",
"i c #4E9CFF",
"p c #5595FF",
"a c #5099FF",
"s c #6484FF",
"d c #6881FF",
"f c #45A6FF",
"g c #4AA1FF",
"h c #42A9FF",
"j c #1ECEFF",
"k c #0FDFFF",
"l c #16D6FF",
"z c #1AD3FF",
"x c #13DAFF",
"c c #26C6FF",
"v c #29C2FF",
"b c #22CBFF",
"n c #07E7FF",
"m c #0BE3FF",
"M c #00EEFF",
"N c #00F2FF",
/* pixels */
"MMMMMMMMMMMMMMMNMMMMMMMMMMMMMMMMMMMMMMMMMMMMMMMMMMMMMMMMMMMMMMMM",
"MMMMMMMMMMMMMMMMMMMMMMMMMMMMMMMNMMMMMNMMMNMMMMMMMMMMMMMMMMMMMMMM",
"MMMMMMMMMMMMMMMMMMMMMMMMMMNMMMMNNMMMMMNMMMMNMMMMMMMMMMMMMMMMMMMM",
"MMMMMMMMMMMMMMMMMMMMNMMmmkmmmmmmmmmmmmmmmmnnMMMMMMMMMMMMMMMMMMMM",
"MMMMMMMMMMMMMMMMMMMNNnxjcvvvvvvvvvvvvvvcvczxMNMMMMMMMMMMMMMMMMMM",
"MMMMMMMMMMMMMMMMMMNnnjfusdddddddssssssssduufcnnMMMMMMMMMMMMMMMMM",
"MMMMMMMMMMMMMMMMMMMnji9@###############@###6abmMNMMMMMMMMMMMMMMM",
"MMMMMMMMMMMMMMMMMMNkyo#112211112111111111223OrxMMMMMMMMMMMMMMMMN",
"MMMMMMMMMMMMMMMMMMNxwO+11111111111111111112, hxMMMMMNMMMMMMMMMMM",
"MMMMMMMMMMMMMMMMmxzrs9>=1111=11111111=1=112,qgzMMMMMMMMMMMMMMMMM",
"MMMMMMMMMMMMMMMmvfuX4#-==11=1111=1111111112,qglMMMMMMMMMMMMMMMMM",
"MMMMMMMMMMMMMMNza 4*>-;1=================11#OwxnMMMMMMMMMMMMMMMM",
"MMMMMMMMMMMMMNNv7+:-;==1;;--<-------------<%pbmMNMMMMMMMMMMMMMMM",
"MMMMMMMNMMMMMNNr0111111<*455696956666664449OrxMMMMMMMMMMMMMMMMMM",
"MMMMMMMMMMMMMNNr0=111123owyeeyyyeyyyyyyyyyyckMMMMMMMMMMMMMMMMMMM",
"MMMMMMMMMMMMMNNy%=11112*fmMNNNNNNNNNNNNNNNNNMMnMMMMMMMMMMMMMMMMM",
"MMMMMMMMMMMMMNNr0111=12*gmNNNNNNNNNNNMNNNNMNMMMMMMMMMMMMMMMMMMMM",
"MMMMMMMMMMMMMNNy0=1=112@gxMMMMMMMMMMMMMMMMMMMMMMMMMMMMMMMMMMMMMM",
"MMMMMMMMMMMMMNNr0111112@gkMMMMMMMMMMMMMMMMMMMMMMMMMMMMMMMMMMNMMM",
"MMMMMMMMMMMMMNNr%11=122*gxnMMMMMMMMMMMMMMMMMMMMMMMMMMMMMMMMMMMMM",
"MMMMMMMMMMMMNNNr%111112*gmMMMMMMMMMMMMMMMMMMMMMMMMMMMMMMMMMMMMMM",
"MMMMMMMMMMMMNNNy%=1=112*imMMMMMMMMMMMMMMMMMMMMMMMMMMMMMMMMMMMMMM",
"MMMMMMMMMMMMNNNr%=11112@gmMMMMNMMMMMMMMMMMMMMMMMMMMMMMMMMMMMMMMM",
"MNMMMMMMMMMMMNNr%111122*gmMNNNNNMNNNNNNMMMMMMMMMMMMMMMMMMMMMMMMM",
"MMMMMMMMMMMMMNNr%11=112*fmNNNNNNNNNNNNNNMMMMMMMMMMMMMMMMMMMMMMMM",
"MMMMMMMMMMMMNNNr%1111113ohtrrrrrrrrrrvbxMMMMMMMMMMMMMMMMMMMMMMMM",
"MMMMMMMMMMMMNNNr%111=11-+$&&&&&%&&%&09dwxMMMMMMMMMMMMMMMMMMMMMMM",
"MMMMMMMMMMMMNNNr%11=1=111221111111111:4sbMNMMMMMMMMMMMMMMMMMMMMM",
"MMMMMMMMMMMMMNNr%1111=111111111111111;3qvMNMMMMMMMMMMMMMMMMMMMMM",
"MMMMMMMMMMMMMNNr%11==1=111=11111=1111=:9yNMMMMMMMMMMMMMNMMMMMMMM",
"MMMMMMMMMMMMMNNr&11111==11=111=111111=:9yMNMMMMMMMMMMMMMMMMMMMMM",
"MMMMMMMMMMMMMNNr&1111=111111111111111=>8eNNMMMMMMMMMMMMMMMMMMMMM",
"MMMMMMMMMMMMNNNr&11==1111111111111122-*OcNNMMMMMMMMMMMMMMMMMMMMM",
"MMMMMMMMMMMMNNNr&111111-+************0.izMMMMMMMMMMMMMMMMMMMMMMM",
"MMMMMMMMMMMMNNNr&1111113.aggggggggiighvznMMMMMMMMMMMMMMMMMMMMMMM",
"MMMMMMMMMMMMMNNr&111=12*izkxmmkkkkmkmnMNMMMMMMMMMMMMNMMMMMMMMMMM",
"MMMMMMMMMMMMMNNr&111112*gmnnnMnMMnMnMMMMNMMMMMMMMMMMMMMMMMMMMMMM",
"MMMMMMMMMMMMMNNr&111111*fnMNNMNMMMMNMMMMMMMMMMMMMMMMMMMMMMMMMMMM",
"MMMMMMMMMMMMMNNr&111111*fnMMMMMMMNMMMMMMMMMMMMMMMMMMMMMMMMMMMMMM",
"MMMMMMMMMMMMNNNr&111111$gmMMMMMMMMMMMMMMMMMMMMMMMMMMMMMMMMMMMMMM",
"MMMMMMMNMMMMMNNr&111111*gnMMMMMMMMMMMMMMMMMMMMMMMMMMMMMMMMMMMMMM",
"MMMMMMMMMMMMMNNr&111=11*fnMMMMMMMMMMMMMMMMMMMMMMMMMMMMMMMMMMMMMM",
"MMMMMMMMMMMMMNNr&211111*fmMMMMMMMMMMMMMMMMMMMMMMMMMMMMMMMMMMMMMM",
"MMMMMMMMMMMMMNNr&211111*fnMMMMMMMMMMMMMMMMMMMMMMMMMMMMMMMMMMMMMM",
"MMMMMMMMMMMMMNNr&211111*fnMMMMMMMMMMMMMMMMMMMMMMMMMMMMMMMMMMMMMN",
"MMMMMMMMMMMMMNNt&111=11$fnnNMMMMMMMMMMMMMMMMMMMMMMMMMMMMMMMMMMMM",
"MMMMMMMMMMMMMNNr&211111*fnMMMMMMMMMMMMMMMMMMMMMMMMMMMMMMMMMMMMMM",
"MMMMMMMMMMMMMNNt&211111&fnMMMMMMMMMMNMMMNMMMMMMMMMMMMMMMMMMMMMMM",
"MMMMMMMMMMMMMNNt&221111$hnMMMMMMMnMMMnMNMMMMMMMMMMMMMMMMMMMMMMMM",
"MMMMMMMMMMMMMNNt&211111$fknMnMMnMMnMMMMnMMMnNMMMMMMMMMMMMMMMMMMM",
"MMMMMMMMMMMMMNNt&21==11*pjzxxxlxxxxxxxxxxxnMMMMMMMMMMMMMMMMMMMMM",
"MMMMMMMMNMMMMNNr&1111113 paaaaaaaaiiaaiiiifyzMMMNMMMMMMMMMMMMMMM",
"MMMMMMMMMMMMMNNr4=11111;3**@**************&qwlnMMMMMMMMMMMMMMMMM",
"MMMMMMMMMMMMMMNv.&@>:-=11112221121211111111@ubmMMMMMMMMMMMMMMMMM",
"MMMMMMMMMMMMMMMxyadq0+-11111111111111111111+OykNMMMMMMMMMMMMMMMM",
"MMMMMMMMMMMMMMMMmzvi.%<111111111111111=1111+.wxMNMMMMMMMMMMMMMMM",
"MMMMMMMMMMMMMMMMnnnvu9:111111111=111111=111+.wxNNMMMMMMMMMMMMMMM",
"MMMMMMMMMMMMMMMMMNNxh.311111111111111111211#oykMMMMMMMMMMMMMMMMM",
"MMMMMMMMMMMMMMMMMMMmvs*=111211121222222221=&pjnNMMMMMMMMNMMMMMMM",
"MMMMMMMMMMMMMMMMMMMnlw 0&&&&&&&&&&&&&$&&&&0.rkMnMMMMMMMMMMMMMMMM",
"MMMMMMMMMMMMMMMMMMMMnxcrrrrrrrrrrrtrttttttrvxMMMMMMMMMMMMMMMMMMM",
"MMMMMMMMMMMMMMMMMMMMMMNNNNNNNNNNNNNNNNNNNNNMMMMMMMMMMMMMMMMMMMMM",
"MMMMMMMMMMMMMMMMMMMMMNNNNNNNNNNNNNNNNNNNNNMNMMMMMMMMMMMMMMMMMMMM",
"MMMMMMMMMMMMMMMNMMMMMMMMMMNNMMMMMNMMMMMMMMMMMMMMMMNMMMMMMMMMMMMM"
};
