/* XPM */
static char *Color_OffWhite_resized[] = {
/* columns rows colors chars-per-pixel */
"64 64 94 2 ",
"   c #CCC7B7",
".  c #CDC7B7",
"X  c #CBC8B7",
"o  c #CEC8B6",
"O  c #C9C2B8",
"+  c #CAC3B9",
"@  c #C9C5B9",
"#  c #CBC5B8",
"$  c #CAC5B9",
"%  c #CBC5B9",
"&  c #C9C6B9",
"*  c #CAC6B9",
"=  c #CBC7B9",
"-  c #C9C5BA",
";  c #C9C7BA",
":  c #C9C7BB",
">  c #CAC6BA",
",  c #CBC6BA",
"<  c #CAC7BA",
"1  c #CBC7BA",
"2  c #CAC6BB",
"3  c #CBC6BB",
"4  c #CAC7BB",
"5  c #CBC7BB",
"6  c #CDC5B8",
"7  c #CCC6B8",
"8  c #CDC6B8",
"9  c #CCC7B8",
"0  c #CDC7B8",
"q  c #CCC6B9",
"w  c #CDC6B9",
"e  c #CCC7B9",
"r  c #CDC7B9",
"t  c #CCC5BB",
"y  c #CCC6BA",
"u  c #CDC6BA",
"i  c #CCC7BA",
"p  c #CDC7BA",
"a  c #CCC6BB",
"s  c #CDC6BB",
"d  c #CCC7BB",
"f  c #CDC7BB",
"g  c #CEC7BB",
"h  c #CBC7BC",
"j  c #CCC5BC",
"k  c #CDC5BC",
"l  c #CEC5BC",
"z  c #CDC6BC",
"x  c #CCC7BC",
"c  c #CDC7BC",
"v  c #CDC7BD",
"b  c #CEC6BC",
"n  c #CEC7BC",
"m  c #CFC7BD",
"M  c #CAC8B8",
"N  c #CBC8B8",
"B  c #CAC8B9",
"V  c #CBC8BB",
"C  c #CEC8B8",
"Z  c #CEC8B9",
"A  c #CFC9B9",
"S  c #CDCAB9",
"D  c #CCC8BA",
"F  c #CCC9BA",
"G  c #CDC8BB",
"H  c #CCC9BB",
"J  c #CEC8BA",
"K  c #CEC9BA",
"L  c #CFC9BA",
"P  c #CEC8BB",
"I  c #CEC9BB",
"U  c #CFC9BB",
"Y  c #CDCABA",
"T  c #CAC8BC",
"R  c #CBC8BC",
"E  c #CBC9BD",
"W  c #CCC8BC",
"Q  c #CDC8BC",
"!  c #CCC9BC",
"~  c #CDC8BD",
"^  c #CCC9BD",
"/  c #CDC9BD",
"(  c #CEC8BC",
")  c #CFC9BC",
"_  c #CEC8BD",
"`  c #CFC8BD",
"'  c #CEC9BD",
"]  c #CFC9BD",
"[  c #CFC8BE",
"{  c #D0CABC",
"}  c #D0CABD",
"|  c #D0CABE",
" . c #D1CBBE",
".. c #D2CBC1",
/* pixels */
"( ( ( ( ( ( ( ( ( ( ] ] ( ( Q Q f f f ( ( ( ( ( ( W W ( ] ] ` ] ] ] U U U ' ' ' ' ' F ( ( W W W W W T ( ( ( ( ( ( ( ( ( ( ( ( ] ",
"W W W W W W W ( ( ( ] ] ( W R 5 @ > > f f f f f ( ( ( ( ( ] m ] ] ] L L A ] ] ] ] ] F Q Q W W W W W R W W W W W W W W W ( ( ( ] ",
"R R R R R R R ( ( ( ( ( ( W W > 5 4 4 ( ( ( ( ( ( ( ( ( f ( ` ` ] ] U U L ] ] ] ] ] J R R W W W W W W R R R R R R R R R ( ( ( ( ",
"R Q Q Q Q Q d f ( ( ( ( Q f u y f f f y f f ( ( ( ( ( ( ( ( f ` ] ] U U L ] ] ] ] ] J W W W W W R R R R R R Q Q Q Q Q d f ( ( ( ",
"Q ( ( ( ( ( u y f f ( ( ( y f f f f f f y y ( ( f ( ( ( ( ( ( ` ] ] U U L ] ] ] ] ] J W W W W R Q Q Q Q Q Q ( ( ( ( ( u y f f ( ",
"f f f f f f f f y y f ( f f f f f f f f f f ( ( y f ( ( ( ( ( ` ] ] U U L ] ] ] ] ] ( W W W W T f f f f f f f f f f f f f y y f ",
"f i i i f p f f f f f f f f f f f f f f f f y ( f f f ( ( ( G ( ( ( P P p ] ] ] ] ] ( R R R R T f f f f f f i i i f p f f f f f ",
"f z z c t s s f f f f f f f f f f f f f f f f ( ( ( ( ( ( ( ( G f f c c a ] ] ] ] ] Q W W W W W f f f f f f z z c t s s f f f f ",
"f n n f a s s f f f f f f f f f f f f f f f ( ( ( ( ( ( ( ( ( ( ( ( ( ( f ] ] ] ] ] R ( ( ( ( ( f f f f f f n n f a s s f f f f ",
"f ( f y f f f f f f f f f f f f f f f y f f ( ( ( ( ( ( ( ( ( ( ( ( ( ( f ] ] ] ] ] W y y y y y f f f f f f ( f y f f f f f f f ",
"f y a y f f f f f f f f f f f f f f f f ( ( ( ( ( ( ( ( ( ( ( ( ( ( ( ( f ] ] ] ] ] W f f f f f f f f f f f y a y f f f f f f f ",
"r 0 0 0 0 0 0 f f f f f f f f f f f f ( ( ( ( ( ( ( ( ( ( ( ( ( ( ( ( ( d ] ] ] ] ] > f f f f f f f f f f r 0 0 0 0 0 0 f f f f ",
"r 0 0 0 0 0 0 f f f f f f d d d f f f f f f f f f ( ( ( ( ( ( ( ( ( ( ( f ^ / / / / 4 f f f f f f f f f f r 0 0 0 0 0 0 f f f f ",
"< , p p i < < 5 5 5 5 5 5 4 4 4 f f f y y y y y y ( ( ( ( ( ( ( ( ( ( ( g E ^ ^ ^ ^ 1 p p p p r f f f 5 5 < , p p i < < 5 5 5 5 ",
"4 3 f f d 4 4 5 5 5 5 5 5 5 5 5 f f f f f f f f y ( ( ( ( ( ( ( ( ( ( ( g T W R R R r r r r r 0 f f f 5 5 4 3 f f d 4 4 5 5 5 5 ",
"4 3 f f d 4 4 5 5 5 5 5 5 5 5 5 f f p P P P P P P P P P P P J ( ( ( ( ( ( d f f f f r 0 0 0 0 . f f f 5 5 4 3 f f d 4 4 5 5 5 5 ",
"4 3 f f d 4 4 5 5 5 5 5 5 5 5 5 f f r Z Z Z Z Z Z Z Z Z Z Z C ( ( ( ( ( ( ( ( ( ( ( r e e e 1 = f f f 5 5 4 3 f f d 4 4 5 5 5 5 ",
"4 3 f f d 4 4 5 5 5 5 5 5 5 5 4 f f p J J r J J J J Z J Z J C f ( ( f ( ( ( G ( f f r 5 5 5 5 4 f f f 5 5 4 3 f f d 4 4 5 5 5 5 ",
"4 3 f f 5 : 4 5 > > 5 > > > > , y y q r r J q q r p J # P p p ] f y | % % + _ O ..[ Z 5 5 5 > : u f u 5 5 4 3 f f 5 : 4 5 > > 5 ",
"( ( C Z C W W W W W T f f f f f f f f f f f f f y y f ( f f f f f f f f f ( ( ( ( ( ( ( ( ( ( W W W W W R ( ( ( ( ( ( ( ( ( ( ( ",
"g ( Z Z o R R R R R T f f f f f f i i i f p f f f f f f f f f f f f f f f P ( ( ( ( ( ( ( ( ( W W W W W R ( ( ( ( ( ( ( ( ( ( ( ",
"s f p 0   W W W W W W f f f f f f z z c t s s f f f f f f f f f f f f f f C ( ( ( ( ( ( ( ( ( W W W W W R ( ( ( ( ( ( ( ( ( ( ( ",
"< > 2 2 - ( ( ( ( ( ( f f f f f f n n f a s s f f f f f f f f f f f f f f C ( ( ( ( ( P ( ( ( W W W W W T ( ( ( ( ( ( ( ( ( ( ( ",
"5 5 5 5 4 y y y y y y f f f f f f ( f y f f f f f f f f f f f f f f f y f Z P P P P n n Q Q Q W W W W W R W W W W W W W W W ( ( ",
"5 5 5 5 4 f f f f f f f f f f f f y a y f f f f f f f f f f f f f f f f ( J o C C P g l R R R W W W W W W R R R R R R R R R ( ( ",
"5 5 5 5 4 f f f f f f f f f f f r 0 0 0 0 0 0 f f f f f f f f f f f f ( ( Z J Z C ( ( ( W W W W W W R R R R R R Q Q Q Q Q d f ( ",
"4 4 4 4 ; f f f f f f f f f f f r 0 0 0 0 0 0 f f f f f f d d d f f f f f J J J Z P P P W W W W W R Q Q Q Q Q Q ( ( ( ( ( u y f ",
"1 1 5 1 3 p p p p p r f f f 5 5 < , p p i < < 5 5 5 5 5 5 4 4 4 f f f y y c c ( ( C Z C W W W W W T f f f f f f f f f f f f f y ",
"0 p f p z r r r r r 0 f f f 5 5 4 3 f f d 4 4 5 5 5 5 5 5 5 5 5 f f f f / ] z g ( Z Z o R R R R R T f f f f f f i i i f p f f f ",
"/ ^ ' ' ' ' ' _ I I K ' Q Q ] ] ] ] ] ( ( ( ( ( ( ( ( ( ( R / / ^ / ] ] 5 ( j s f p 0   W W W W W W f f f f f f z z c t s s f f ",
"/ / ^ ^ ^ / / v Y Y S / W W ` ` ` ` ` n n b b z z z ] ] ] ^ / / / / ] ] 5 f & < > 2 2 - ( ( ( ( ( ( f f f f f f n n f a s s f f ",
"W W / / / / / ~ H H F W W W ~ ~ ~ ~ ~ x x ~ ~ _ _ _ ] ] ] ] ] ] ] ] ] ] 5 ( > 5 5 5 5 4 y y y y y y f f f f f f ( f y f f f f f ",
"5 > ] ] ] / / / h h h 5 W W ! ! ! ! ! V V ^ ^ ] ] ] ] ] ] ] ] ] ] ] ] ] 5 ( $ 5 5 5 5 4 f f f f f f f f f f f f y a y f f f f f ",
"5 5 ] ] ] / / / W W W W W W / / / / / W W / / ] ] ] ] ] ] ] ] ] ] ] ] ] 5 y 4 5 5 5 5 4 f f f f f f f f f f f r 0 0 0 0 0 0 f f ",
"W 5 ] ] ] / / / W W W W W W / / / / / W W / / ] ] ] ] ] ] ] ] ] ] ] ] ] 5 f : 4 4 4 4 ; f f f f f f f f f f f r 0 0 0 0 0 0 f f ",
"W , ] ] ] / / / W W W W W W / / / / / W W / / ] ] ] ] ] ] ( ( ( ( ( ( ( W p < 1 1 5 1 3 p p p p p r f f f 5 5 < , p p i < < 5 5 ",
"R T f f f 5 5 5 W W W R R R ^ ^ ^ ^ ^ R R ^ ^ ] ] f f f ( ( ( ( ( ( ( ( W r r 0 p f p z r r r r r 0 f f f 5 5 4 3 f f d 4 4 5 5 ",
"W R ( ( ( W W W W W R Q Q Q Q Q Q Q Q Q Q Q Q ] ] ( ( ( ] ] ] ] ] ] ] ] ( r w 8 p f p k 0 0 0 0 0 . f f f 5 5 4 3 f f d 4 4 5 5 ",
"( ( ( ( ( W W W W W T ( ( ( g g g g g ( ( g g ] ] ] ] ] ] ] ] ] ] ] ] ] ( w e 9 i d i a e e e e 1 = f f f 5 5 4 3 f f d 4 4 5 5 ",
"( ( ( ( ( W W W W W R ( ( ( ( ( ( ( ( ( ( ( ( ] ] ( ( ( f f f f ] ] ] ] P w B N 1 5 1 5 5 5 5 5 5 4 f f f 5 5 4 3 f f d 4 4 5 5 ",
"( ( ( ( ( W W W W W R ( ( ( ( ( ( ( ( ( ( ( ( ] ] f ( ( ( ( ( ( ] ] ] ] C 6 M X * > * 5 5 5 5 5 > : u f u 5 5 4 3 f f 5 : 4 5 > ",
"( ( ( ( ( W W W W W R ( ( ( ( ( ( ( ( ( ( ( ( ] ] ( ( ( ( ( ( ( ] ] ] ] C ( ( ( ( ( P ( ( ( W W W W W T ( ( ( ( ( ( ( ( ( ( ( ( ",
"( P ( ( ( W W W W W T ( ( ( ( ( ( ( ( ( ( ( ( ] ] ( ( Q Q f f f ( ( ( ( Z P P P P n n Q Q Q W W W W W R W W W W W W W W W ( ( ( ",
"n n Q Q Q W W W W W R W W W W W W W W W ( ( ( ] ] ( W R 5 @ > > f f f f J o C C P g l R R R W W W W W W R R R R R R R R R ( ( ( ",
"g l R R R W W W W W W R R R R R R R R R ( ( ( ( ( ( W W > 5 4 4 ( ( ( ( Z J Z C ( ( ( W W W W W W R R R R R R Q Q Q Q Q d f ( ( ",
"( ( W W W W W W R R R R R R Q Q Q Q Q d f ( ( ( ( Q f u y f f f y f f ( J J J Z P P P W W W W W R Q Q Q Q Q Q ( ( ( ( ( u y f f ",
"P P W W W W W R Q Q Q Q Q Q ( ( ( ( ( u y f f ( ( ( y f f f f f f y y ( c c ( ( C Z C W W W W W T f f f f f f f f f f f f f y y ",
"Z C W W W / / / / / / ^ ' ' ' ' ' _ I I K ' Q Q ] ] ] ] ] ( ( ( ( ( ( ( ] z g ( Z Z o R R R R R T f f f f f f i i i f p f f f f ",
"( ( ( ( ( ( ( ( ( ( R / / ^ / ] ] ] ] ] ] ] ] ] / ^ ^ ^ ^ ^ ! U U _ ( n ( j s f p 0   W W W W W W f f f f f f z z c t s s f f f ",
"n n b b z z z ] ] ] ^ / / / / ] ] ] ] ] ] ] ] ] ( ] ] ] ] ] ] ) ( ( ( ( f & < > 2 2 - ( ( ( ( ( ( f f f f f f n n f a s s f f f ",
"x x ~ ~ _ _ _ ] ] ] ] ] ] ] ] ] ] ] ] ] ] ] ] ] g ] ] ] ] ] ] ] ] ] ] ] ( > 5 5 5 5 4 y y y y y y f f f f f f ( f y f f f f f f ",
"V V ^ ^ ] ] ] ] ] ] ] ] ] ] ] ] ] ] ] ] ] ] ] ] Q ] ] ] ] ] ] ] ] ] ] ] ( $ 5 5 5 5 4 f f f f f f f f f f f f y a y f f f f f f ",
"W W / / ] ] ] ] ] ] ] ] ] ] ] ] ] ] ] ] ] ] ] ] ] ( ( f f f f ] ] ] ] ] y 4 5 5 5 5 4 f f f f f f f f f f f r 0 0 0 0 0 0 f f f ",
"W W / / ] ] ] ] ] ] ] ] ] ] ] ] ] ] ] ] ] ] ] ] ( } p P q  .) ] ] ] ] ] f : 4 4 4 4 ; f f f f f f f f f f f r 0 0 0 0 0 0 f f f ",
"W W / / ] ] ] ] ] ] ( ( ( ( ( ( ( ( ( ] ] ] ] ] P U 7 L 7 { p ] ] ] ] ] p < 1 1 5 1 3 p p p p p r f f f 5 5 < , p p i < < 5 5 5 ",
"R R ^ ^ ] ] f f f ( ( ( ( ( ( ( ( ( ( ' ' ] ] ] ( p ) ) } p P ] ] ] ] ] r r 0 p f p z r r r r r 0 f f f 5 5 4 3 f f d 4 4 5 5 5 ",
"Q Q Q Q ] ] ( ( ( ] ] ] ] ] ] ] ] ] ' ^ ^ ] ] ] ] ] _ ] _ ] ] ] ] ] ] ] r w 8 p f p k 0 0 0 0 0 . f f f 5 5 4 3 f f d 4 4 5 5 5 ",
"( ( g g ] ] ] ] ] ] ] ] ] ] ] ] ] ] ' / / ] ] ] ] ] ] ] ] ] ] ] ] ] ] ] w e 9 i d i a e e e e 1 = f f f 5 5 4 3 f f d 4 4 5 5 5 ",
"( ( ( ( ] ] ( ( ( f f f f ] ] ] ] ] g W W ] ] ] ] ] ] ] ] ] ] ] ] ] ] ] w B N 1 5 1 5 5 5 5 5 5 4 f f f 5 5 4 3 f f d 4 4 5 5 5 ",
"( ( ( ( ] ] f ( ( ( ( ( ( ] ] ] ] ] ( 5 5 ( ] ] ] ] ] ] ] ] ] / / / / / 6 M X * > * 5 5 5 5 5 > : u f u 5 5 4 3 f f 5 : 4 5 > > ",
"( ( ( ( ] ] ( ( ( ( ( ( ( ] ] ] ] ] ( W W f ] ] ] ] ] ] ] ] ] ^ ^ ^ ^ ^ D Q Q f f f ( ( ( ( ( ( W W ( ] ] ` ] ] ] U U U ' ' ' ' ",
"( ( ( ( ] ] ( ( Q Q f f f ( ( ( ( ( ( W W ( ] ] ` ] ] ] U U U ' ' ' ' ' F R 5 @ > > f f f f f ( ( ( ( ( ] m ] ] ] L L A ] ] ] ] ",
"W ( ( ( ] ] ( W R 5 @ > > f f f f f ( ( ( ( ( ] m ] ] ] L L A ] ] ] ] ] F W > 5 4 4 ( ( ( ( ( ( ( ( ( f ( ` ` ] ] U U L ] ] ] ] ",
"R ( ( ( ( ( ( W W > 5 4 4 ( ( ( ( ( ( ( ( ( f ( ` ` ] ] U U L ] ] ] ] ] J u y f f f y f f ( ( ( ( ( ( ( ( f ` ] ] U U L ] ] ] ] "
};
