/* XPM */
static char *player_right_resized[] = {
/* columns rows colors chars-per-pixel */
"64 64 223 2 ",
"   c #3E0800",
".  c #341600",
"X  c #351900",
"o  c #391D01",
"O  c #3D2601",
"+  c #3D2B05",
"@  c #3D2D0B",
"#  c #392E10",
"$  c #3D3010",
"%  c #3D300F",
"&  c #002F3A",
"*  c #002D35",
"=  c #003037",
"-  c #00333B",
";  c #0A3639",
":  c #0B393B",
">  c #233C2A",
",  c #34352C",
"<  c #751B01",
"1  c #720401",
"2  c #472000",
"3  c #4D2A00",
"4  c #4D330C",
"5  c #5E3300",
"6  c #503408",
"7  c #723B02",
"8  c #743A08",
"9  c #6B3105",
"0  c #4D3334",
"q  c #6E372E",
"w  c #5D0E0C",
"e  c #2A402C",
"r  c #2C4A29",
"t  c #334C28",
"y  c #2D4C3B",
"u  c #2E463C",
"i  c #314F3A",
"p  c #754508",
"a  c #78510C",
"s  c #6D5817",
"d  c #6B4611",
"f  c #5F4637",
"g  c #5B5530",
"h  c #5B542F",
"j  c #63542B",
"k  c #64612D",
"l  c #636439",
"z  c #2F4A40",
"x  c #00636D",
"c  c #006771",
"v  c #366A70",
"b  c #626740",
"n  c #8B0902",
"m  c #910202",
"M  c #891A03",
"N  c #A40B09",
"B  c #A71605",
"V  c #B4190D",
"C  c #B21610",
"Z  c #8C2F0C",
"A  c #A82408",
"S  c #B3280A",
"D  c #BE2910",
"F  c #B63A14",
"G  c #C92808",
"H  c #DE2B02",
"J  c #D32904",
"K  c #DB350A",
"L  c #C02911",
"P  c #C53915",
"I  c #D63810",
"U  c #E9380A",
"Y  c #FC3B06",
"T  c #814600",
"R  c #8A580E",
"E  c #9D5A04",
"W  c #895C13",
"Q  c #984903",
"!  c #B04B14",
"~  c #94720A",
"^  c #A96705",
"/  c #B36E08",
"(  c #BC7501",
")  c #BA7708",
"_  c #A56D15",
"`  c #AE7611",
"'  c #8C6B36",
"]  c #A27B35",
"[  c #C64B1C",
"{  c #C44915",
"}  c #C35011",
"|  c #D75918",
" . c #D74911",
".. c #FD490B",
"X. c #E24E13",
"o. c #F55C14",
"O. c #E55616",
"+. c #C47901",
"@. c #CD6413",
"#. c #D9681B",
"$. c #C27912",
"%. c #D37015",
"&. c #ED6E1D",
"*. c #C97226",
"=. c #E77C24",
"-. c #C05423",
";. c #897042",
":. c #896F44",
">. c #A38109",
",. c #BC851D",
"<. c #B78405",
"1. c #90893E",
"2. c #AF8B27",
"3. c #BFA43D",
"4. c #CC8302",
"5. c #DD8E02",
"6. c #D08D00",
"7. c #C79609",
"8. c #D89708",
"9. c #DE821F",
"0. c #DD9416",
"q. c #C88A13",
"w. c #E59D02",
"e. c #E89A07",
"r. c #E59C17",
"t. c #D5A310",
"y. c #E5A401",
"u. c #EDAC02",
"i. c #ECA709",
"p. c #F4B301",
"a. c #FBBB03",
"s. c #F4B30C",
"d. c #F9BA0A",
"f. c #E8A917",
"g. c #F4AA1B",
"h. c #F4A914",
"j. c #F6BC13",
"k. c #E7B216",
"l. c #C59A26",
"z. c #D59835",
"x. c #C19E30",
"c. c #EF8B28",
"v. c #C3A22E",
"b. c #C5A436",
"n. c #D2A633",
"m. c #D2AE35",
"M. c #E4AB24",
"N. c #F5B729",
"B. c #E9B938",
"V. c #F7B732",
"C. c #EAAD2F",
"Z. c #FDC200",
"A. c #FECA01",
"S. c #FEC50B",
"D. c #FFCA0D",
"F. c #FCC413",
"G. c #FECB14",
"H. c #FDCB1D",
"J. c #FAC31B",
"K. c #FFD111",
"L. c #FDCD22",
"P. c #FCC529",
"I. c #FAC424",
"U. c #FFD225",
"Y. c #FFD32C",
"T. c #FFD929",
"R. c #FFD827",
"E. c #F7C836",
"W. c #FED333",
"Q. c #FFDB35",
"!. c #FDD43A",
"~. c #A7914D",
"^. c #BEA641",
"/. c #8E8840",
"(. c #C5AA42",
"). c #D3A945",
"_. c #D8BE54",
"`. c #D6B740",
"'. c #E0B944",
"]. c #E1B852",
"[. c #D4BB65",
"{. c #F2CB44",
"}. c #FCD642",
"|. c #FEDB45",
" X c #FDDB4A",
".X c #F6D046",
"XX c #E5C455",
"oX c #FBDD54",
"OX c #FBDF5A",
"+X c #F3D758",
"@X c #E7C246",
"#X c #FFE24C",
"$X c #FEE357",
"%X c #FDE25D",
"&X c #F6D86B",
"*X c #F2D776",
"=X c #FCE366",
"-X c #FBE46B",
";X c #FDE977",
":X c #098C90",
">X c #0C9194",
",X c #1C9592",
"<X c #1F9994",
"1X c #098D8F",
"2X c #238B91",
"3X c #329293",
"4X c #00AFBE",
"5X c #00B0BF",
"6X c #00B3C1",
"7X c #0DBCC5",
"8X c #15B5C4",
"9X c #00C4D3",
"0X c #0ACAD7",
"qX c #11C7D6",
"wX c #00E3F4",
"eX c #00EEFF",
"rX c #00F3FF",
"tX c #00F8FF",
"yX c #FDED87",
"uX c #FFF4A8",
"iX c #F3E2A8",
"pX c #E4D899",
"aX c #FBF5CD",
/* pixels */
"eXeXeXeXeXeXeXeXeXeXeXeXeXeXeXeXeXeXeXeXeXeXeXeXeXeXeXeXeXeXeXeXeXeXeXeXeXeXeXeXeXeXeXeXeXeXeXeXeXeXeXeXeXeXeXeXeXeXeXeXeXeXeXeX",
"eXeXeXeXeXeXeXeXeXeXeXeXeXeXeXeXeXeXeXeXeXeXeXeXeXeXeXeXeXeXeXeXeXeXeXeXeXeXeXeXeXeXeXeXeXeXeXeXeXeXeXeXeXeXeXeXeXeXeXeXeXeXeXeX",
"eXeXeXeXeXeXeXeXeXeXeXeXeXeXeXeXeXeXeXeXeXeXeXeXeXeXeXeXeXeXeXeXeXeXeXeXeXeXeXeXeXeXeXeXeXeXeXeXeXeXeXeXeXeXeXeXeXeXeXeXeXeXeXeX",
"eXeXeXeXeXeXeXeXeXeXeXeXeXeXeXeXeXeXeXeXeXeXeXeXeXeXeXeXeXeXeXeXeXeXeXrXeXrXeXeXeXeXeXeXeXeXeXeXeXeXeXeXeXeXeXeXeXeXeXeXeXeXeXeX",
"eXeXeXeXeXeXeXeXeXeXeXeXeXeXeXeXeXeXeXeXeXeXeXeXeXeXeXeXeXeXeXeXeXrXrXrXrXrXeXeXeXeXeXeXeXeXeXeXeXeXeXeXeXeXeXeXeXeXeXeXeXeXeXeX",
"eXeXeXeXeXeXeXeXeXeXeXeXeXeXeXeXeXeXeXeXeXeXeXeXeXeXeXeXeXeXeXeXrXwX9X5X4X9XwXrXeXeXeXeXeXeXeXeXeXeXeXeXeXeXeXeXeXeXeXeXeXeXeXeX",
"eXeXeXeXeXeXeXeXeXeXeXeXeXeXeXeXeXeXeXeXeXeXeXeXeXeXeXeXeXeXeXrXrX9Xx = * x 9XrXrXeXeXeXeXeXeXeXeXeXeXeXeXeXeXeXeXeXeXeXeXeXeXeX",
"eXeXeXeXeXeXeXeXeXeXeXeXeXeXeXeXeXeXeXeXeXeXeXeXeXeXeXeXeXeXeXwX9X>Xi 2 O t <X0XwXrXrXrXeXeXeXeXeXeXeXeXeXeXeXeXeXeXeXeXeXeXeXeX",
"eXeXeXeXeXeXeXeXeXeXeXeXeXeXeXeXeXeXeXeXeXeXeXeXeXeXeXeXeXrXrX9Xx i 1.v.7.>.k v 0XtXtXrXrXeXeXeXeXeXeXeXeXeXeXeXeXeXeXeXeXeXeXeX",
"eXeXeXeXeXeXeXeXeXeXeXeXeXeXeXeXeXeXeXeXeXeXeXeXeXeXeXeXeXrXrX6X: 4 (.#XT.u.^ k <X7X6X9XwXrXrXrXeXeXeXeXeXeXeXeXeXeXeXeXeXeXeXeX",
"eXeXeXeXeXeXeXeXeXeXeXeXeXeXeXeXeXeXeXeXeXeXeXeXeXeXeXeXeXrXtX7Xu p `.%X#XE.y.<.k u : x 9XtXrXrXrXeXeXeXeXeXeXeXeXeXeXeXeXeXeXeX",
"eXeXeXeXeXeXeXeXeXeXeXeXeXeXeXeXeXeXeXeXeXeXeXeXeXeXeXeXeXwX9X,Xk _ '.%X=X XY.k._ p 3 t <X7X6X9XwXrXeXeXeXeXeXeXeXeXeXeXeXeXeXeX",
"eXeXeXeXeXeXeXeXeXeXeXeXeXeXeXeXeXeXeXeXeXeXeXeXeXeXeXrXrX9Xx t ` k..X$XOXOX X.X'.n.7.>.k u ; x 9XtXrXeXeXeXeXeXeXeXeXeXeXeXeXeX",
"eXeXeXeXeXeXeXeXeXeXeXeXeXeXeXeXeXeXeXeXeXeXeXeXeXeXeXrXtX6X; 3 7.R.#X$XOXOXOX=X%X#XU.k._ d 4 i :X9XwXrXeXeXeXeXeXeXeXeXeXeXeXeX",
"eXeXeXeXeXeXeXeXeXeXeXeXeXeXeXeXeXeXeXeXeXeXeXeXeXeXeXrXrX7Xz p m.#X$X%X$XOXOXOX%X$X X.X'.).(.1.y x 9XrXeXeXeXeXeXeXeXeXeXeXeXeX",
"eXeXeXeXeXeXeXeXeXeXeXeXeXeXeXeXeXeXeXeXeXeXeXeXeXeXeXwX9X,Xk ~ b._._.XX+XOXOXOX X}.|. X|.|.#Xm.s y >X9XwXeXeXeXeXeXeXeXeXeXeXeX",
"eXeXeXeXeXeXeXeXeXeXeXeXeXeXeXeXeXeXeXeXeXeXeXeXeXrXrX9Xx t >.t.] ;.;.~.XX%X%X XL.G.G.G.H.G.G.I.m.1.i x 9XrXrXeXeXeXeXeXeXeXeXeX",
"eXeXeXeXeXeXeXeXeXeXeXeXeXeXeXeXeXeXeXeXeXeXeXeXeXrXrX6X- O <.M.' f f :._.$X XW.F.Z.a.Z.Z.Z.Z.G.Q.b.6 : 6XrXrXeXeXeXeXeXeXeXeXeX",
"eXeXeXeXeXeXeXeXeXeXeXeXeXeXeXeXeXeXeXeXeXeXeXeXeXrXtX6X& + v.`.' f 0 :._.#XU.D.Z.Z.Z.Z.A.Z.Z.A.K.t.p y 7XtXrXeXeXeXeXeXeXeXeXeX",
"eXeXeXeXeXeXeXeXeXeXeXeXeXeXeXeXeXeXeXeXeXeXeXeXrXwX9X1Xr s [.*X~.;.' ] ).B.r.i.d.d.a.d.i.e.e.e.y.4.Z 0 2XqXwXrXeXeXeXeXeXeXeXeX",
"eXeXeXeXeXeXeXeXeXeXeXeXeXeXeXeXeXeXeXeXeXeXeXeXrX9Xx r ~ m.iXaXiX[.z.*.*.-.[ @.r.h.g.r.@.[ ! [ } F < w 0 v qXrXrXeXeXeXeXeXeXeX",
"eXeXeXeXeXeXeXeXeXeXeXeXeXeXeXeXeXeXeXeXeXeXeXrXrX6X= O 7. XuXaXuX&Xz.@.P L F [ #.9.=.#.[ P [ [ { ! Z n m q 2X9XwXeXeXeXeXeXeXeX",
"eXeXeXeXeXeXeXeXeXeXeXeXeXeXeXeXeXeXeXeXeXeXeXrXtX5X- + v.$X;XyX;X].! A J U O.| [ [ ! [ | &.=.c.c.=.|  .H A , x 9XrXrXeXeXeXeXeX",
"eXeXeXeXeXeXeXeXeXeXeXeXeXeXeXeXeXrXrXeXrXrXrXrXtX6X: 6 v.#X|.|.|.n.8 1 J Y o.O.P L P { | | =.=.=.=.&.o...G   * 5XrXrXeXeXeXeXeX",
"eXeXeXeXeXeXeXeXeXeXeXeXeXeXeXrXrXrXrXrXrXrXrXtXtX7Xz p 7.K.H.G.G.7.9 1 J Y  .K U U O. .S B A A S S P X.o.!   - 5XrXrXeXeXeXeXeX",
"eXeXeXeXeXeXeXeXeXeXeXrXrXrXrXwX9X4X4X6X6X6X6X6X6X,Xh E 6.p.Z.Z.A.8.T < B J K K U U X.{ B m m m m N G K X.! e x 9XrXrXeXeXeXeXeX",
"eXeXeXeXeXeXeXeXeXeXrXrXrXtXtX9Xx - - - - - - - - e R ( +.6.p.Z.Z.u.+.Q < M J U I D B B m N N N V G U H B q 2X9XwXeXeXeXeXeXeXeX",
"eXeXeXeXeXeXeXeXrXwX9X5X6X6X6X1Xr O + $ $ $ $ $ $ d ` 0.4.4.y.p.Z.a.y.+.7 < B G S B B N C C C D G K H S q v qXrXrXeXeXeXeXeXeXeX",
"eXeXeXeXeXeXeXrXrX9Xx = - - - r ~ 7.v.^.^.^.3.^.^.(.@XE.k.y.5.w.p.Z.a.y.+.Q < 1 n B J H G L L G U H B q 3XqXwXeXeXeXeXeXeXeXeXeX",
"eXeXeXeXeXeXeXwX9X>Xi % % $ # s t.R.#X%X=X%X%X%X%X=X%X XU.j.M.f.i.p.p.s.e.+.Z 9 M B G J I  . .....H m 0 8XrXrXeXeXeXeXeXeXeXeXeX",
"eXeXeXeXeXeXrX9Xx i 1.(.(.^.^.`.{.#X$X%X%X%X%X%X%X%X%XoX XoX&XXXf.e.r.h.p.u.8.7.+.! < M [ &.=.c.&. .n 0 8XrXrXeXeXeXeXeXeXeXeXeX",
"eXeXeXeXeXeXrX4X- + v.#X$X%X%X%X%X$X X}.|.|.$X$X%X$X$X$XOX-X;X*XC.z.C.V.J.G.D.F.f.$.p Z ! | =.%.| -.q v qXrXeXeXeXeXeXeXeXeXeXeX",
"eXeXeXeXeXeXrX6X- O 7.R.#X%X%X%X%X XL.D.F.L. XOX%X+XOXOX$X=X-X-X*X*X*X&XoX|.|.|..XB.t.( Z M M Z M q 3X0XwXrXeXeXeXeXeXeXeXeXeXeX",
"eXeXeXeXeXrXrX4X- O <.d.W. XOX$X X!.L.G.F.L. XOX%X$XoXOXOXoX.XoX;XyXyX;X-X%XOXOX%X XR.f.! Z Z Z < q <X0XwXrXeXeXeXeXeXeXeXeXeXeX",
"eXeXeXeXeXrXrX6X= X ^ i.j.Y. X XU.L.!.}.|.|.oX$XOXOX$XOXOX.XL.L.oX-X-X=X=XOXOXOXOXOX X.X'.).).z.$.R u c 9XrXeXeXeXeXeXeXeXeXeXeX",
"eXeXeXeXeXeXrX9Xx e R 4.u.S.W.E.j.k.E. XoXoX$X&X=X-X-X=X=X XL.H.W. X$XOXOXOXOXOXOX X X|.#X#X|.E.r.E . - 6XrXrXeXeXeXeXeXeXeXeXeX",
"eXeXeXeXeXrXeXwX9X,Xg E y.A.G.j.y.w.s.L.!..XOX=X;XyXyXyX-XoX X!.L.Y. XOXOXOXOXoX XE.L.G.H.G.G.J.g./ o - 6XtXrXeXeXeXeXeXeXeXeXeX",
"eXeXeXeXeXeXeXrXtX7Xu p 8.A.A.p.5.8.s.L.W.!.}. X=X-X-X=X X}. XW.j.j.}.OXoXoX X!.W.L.S.a.Z.Z.Z.a.g.$.9 > >X9XwXrXeXeXeXeXeXeXeXeX",
"eXeXeXeXeXeXeXrXtX6X: 6 l.U.D.p.5.0.E.|.!.W.H.J.H.L.L.L.H.G.H.j.h.N..XOX X!.L.F.S.S.Z.Z.Z.Z.Z.Z.S.y.) a e x 9XrXrXeXeXeXeXeXeXeX",
"eXeXeXeXeXeXeXrXrX5X- O ,.I.S.p.w.r.B.{.E.I.J.G.S.S.Z.Z.Z.Z.a.s.g.V.{.!.W.H.S.Z.Z.Z.Z.Z.Z.Z.Z.Z.Z.a.e.^ X - 5XrXeXeXeXeXeXeXeXeX",
"eXeXeXeXeXeXeXrXrX5X- o / i.a.a.p.u.r.0.0.f.E.|.W.L.S.Z.Z.a.h.g.V.P.L.G.S.S.Z.Z.a.Z.Z.Z.Z.Z.Z.Z.a.d.g./ o - 6XrXrXeXeXeXeXeXeXeX",
"eXeXeXeXeXeXeXeXrX9Xx > R 4.s.D.A.p.w.5.5.r.B.{.V.N.s.p.d.s.h.g.N.L.S.a.Z.Z.Z.Z.Z.Z.Z.Z.Z.Z.Z.Z.Z.s.g.` O - 6XrXrXeXeXeXeXeXeXeX",
"eXeXeXeXeXeXeXeXeXwX9X,Xg E M.U.D.a.p.p.p.u.r.0.r.0.5.8.r.h.s.d.S.S.Z.Z.Z.Z.Z.Z.Z.Z.Z.Z.Z.Z.Z.Z.Z.d.g.` o - 6XrXrXeXeXeXeXeXeXeX",
"eXeXeXeXeXeXeXeXeXrXtX7Xz 7 l.N.G.S.Z.Z.Z.p.w.5.5.5.5.e.h.h.a.Z.Z.Z.Z.Z.Z.Z.Z.Z.Z.Z.Z.Z.Z.Z.Z.Z.Z.a.h./ o - 6XrXeXeXeXeXeXeXeXeX",
"eXeXeXeXeXeXeXeXeXrXrX6X; 2 / f.P.L.S.a.Z.Z.p.p.p.p.p.p.p.d.Z.Z.Z.Z.Z.Z.Z.Z.Z.a.Z.Z.Z.Z.Z.Z.Z.Z.Z.d.e.^ X - 5XrXrXeXeXeXeXeXeXeX",
"eXeXeXeXeXeXeXeXeXrXrX9Xx > a ) M.P.F.S.Z.Z.Z.Z.Z.Z.Z.Z.Z.Z.Z.a.Z.Z.Z.Z.Z.Z.Z.Z.Z.Z.Z.Z.Z.Z.Z.Z.Z.p.+.R e x 9XrXeXeXeXeXeXeXeXeX",
"eXeXeXeXeXeXeXeXeXeXrXwX9X:X> 5 ) g.P.L.S.Z.Z.Z.Z.Z.Z.Z.Z.Z.Z.Z.Z.Z.Z.a.Z.Z.Z.Z.Z.Z.Z.Z.Z.Z.a.A.A.y.E j ,X9XwXeXeXeXeXeXeXeXeXeX",
"eXeXeXeXeXeXeXeXeXeXeXrXrX9Xx > a ) M.W.H.F.A.Z.Z.Z.Z.Z.Z.Z.Z.Z.Z.Z.Z.Z.Z.Z.Z.Z.a.Z.Z.Z.Z.Z.Z.Z.Z.6.7 y 7XrXrXeXeXeXeXeXeXeXeXeX",
"eXeXeXeXeXeXeXeXeXeXeXeXrXwX9X:X> 5 q.V. X!.D.Z.Z.Z.Z.Z.Z.Z.Z.Z.Z.Z.a.Z.Z.Z.Z.Z.Z.Z.Z.Z.Z.Z.A.Z.u./ 2 ; 6XrXrXeXeXeXeXeXeXeXeXeX",
"eXeXeXeXeXeXeXeXeXeXeXeXeXrXtX9Xx e W ,.z.B.J.G.G.G.F.S.Z.Z.Z.Z.Z.Z.Z.Z.Z.Z.Z.Z.Z.Z.Z.A.D.D.Z.y.( a > x 9XrXrXeXeXeXeXeXeXeXeXeX",
"eXeXeXeXeXeXeXeXeXeXeXeXeXrXrXwX9X>X> 3 8 _ M.Q.#X|.W.L.S.Z.Z.Z.Z.Z.Z.Z.Z.a.Z.Z.A.A.A.D.U.I.i.( 5 > 1X9XwXeXeXeXeXeXeXeXeXeXeXeX",
"eXeXeXeXeXeXeXeXeXeXeXeXeXeXeXrXrX9Xx : z b 2.3.b.b.n.M.J.K.G.G.G.G.G.D.D.D.D.G.D.D.Z.s.f.l./ a > c 9XtXrXeXeXeXeXeXeXeXeXeXeXeX",
"eXeXeXeXeXeXeXeXeXeXeXeXeXeXeXeXrXwX9X6X7X,Xi @ @ 4 p _ B.#X#X|. X|.W.Y.Y.W.Y.Y.Y.L.i.4.E 8 2 > :X9XwXrXrXeXeXeXeXeXeXeXeXeXeXeX",
"eXeXeXeXeXeXeXeXeXeXeXeXeXeXeXeXeXeXrXrXtX9Xx & - : z l ~.^.(.^.(.3.3.l.l.l.l.v.v.,.^ W g u : x 9XrXrXeXeXeXeXeXeXeXeXeXeXeXeXeX",
"eXeXeXeXeXeXeXeXeXeXeXeXeXeXeXeXeXeXrXrXrXwX7X6X6X6XqX<Xi @ @ $ $ % + + @ @ @ @ @ O o e ,X7X6X9XwXrXeXeXeXeXeXeXeXeXeXeXeXeXeXeX",
"eXeXeXeXeXeXeXeXeXeXeXeXeXeXeXeXeXeXeXeXeXeXrXrXrXrXrX9Xx - - - - - - - - - - - - - - x 9XtXrXrXrXeXeXeXeXeXeXeXeXeXeXeXeXeXeXeX",
"eXeXeXeXeXeXeXeXeXeXeXeXeXeXeXeXeXeXeXeXeXeXeXrXrXrXrXwX9X5X4X6X6X6X6X6X6X6X6X6X6X5X6X9XwXrXrXeXeXeXeXeXeXeXeXeXeXeXeXeXeXeXeXeX",
"eXeXeXeXeXeXeXeXeXeXeXeXeXeXeXeXeXeXeXeXeXeXeXeXeXeXeXeXrXrXrXrXrXrXrXrXrXrXrXrXrXrXrXrXeXeXeXeXeXeXeXeXeXeXeXeXeXeXeXeXeXeXeXeX",
"eXeXeXeXeXeXeXeXeXeXeXeXeXeXeXeXeXeXeXeXeXeXeXeXeXeXeXeXeXrXeXrXrXrXrXeXrXrXrXeXeXrXrXeXeXeXeXeXeXeXeXeXeXeXeXeXeXeXeXeXeXeXeXeX",
"eXeXeXeXeXeXeXeXeXeXeXeXeXeXeXeXeXeXeXeXeXeXeXeXeXeXeXeXeXeXeXeXrXeXeXeXeXeXeXeXeXeXeXeXeXeXeXeXeXeXeXeXeXeXeXeXeXeXeXeXeXeXeXeX",
"eXeXeXeXeXeXeXeXeXeXeXeXeXeXeXeXeXeXeXeXeXeXeXeXeXeXeXeXeXeXeXeXeXeXeXeXeXeXeXeXeXeXeXeXeXeXeXeXeXeXeXeXeXeXeXeXeXeXeXeXeXeXeXeX",
"eXeXeXeXeXeXeXeXeXeXeXeXeXeXeXeXeXeXeXeXeXeXeXeXeXeXeXeXeXeXeXeXeXeXeXeXeXeXeXeXeXeXeXeXeXeXeXeXeXeXeXeXeXeXeXeXeXeXeXeXeXeXeXeX",
"eXeXeXeXeXeXeXeXeXeXeXeXeXeXeXeXeXeXeXeXeXeXeXeXeXeXeXeXeXeXeXeXeXeXeXeXeXeXeXeXeXeXeXeXeXeXeXeXeXeXeXeXeXeXeXeXeXeXeXeXeXeXeXeX",
"eXeXeXeXeXeXeXeXeXeXeXeXeXeXeXeXeXeXeXeXeXeXeXeXeXeXeXeXeXeXeXeXeXeXeXeXeXeXeXeXeXeXeXeXeXeXeXeXeXeXeXeXeXeXeXeXeXeXeXeXeXeXeXeX"
};
