/* XPM */
static char *rubber_duck_resized[] = {
/* columns rows colors chars-per-pixel */
"64 64 221 2 ",
"   c #3E0800",
".  c #341600",
"X  c #351900",
"o  c #381C00",
"O  c #3C2401",
"+  c #3D2B05",
"@  c #3D2D0B",
"#  c #3D300F",
"$  c #392E10",
"%  c #3D3010",
"&  c #002D35",
"*  c #002F3A",
"=  c #003037",
"-  c #00333B",
";  c #0A3639",
":  c #0B393B",
">  c #233C2A",
",  c #34352C",
"<  c #5D0E0C",
"1  c #720401",
"2  c #751B01",
"3  c #472000",
"4  c #4D2A00",
"5  c #4D330C",
"6  c #5A3303",
"7  c #6B3105",
"8  c #723B02",
"9  c #743A08",
"0  c #4D3334",
"q  c #6E372E",
"w  c #2A402C",
"e  c #2C4A29",
"r  c #334C28",
"t  c #2E463C",
"y  c #2D4C3B",
"u  c #314F3A",
"i  c #754508",
"p  c #78510C",
"a  c #6B4611",
"s  c #6D5817",
"d  c #5B542F",
"f  c #5F4637",
"g  c #5B5530",
"h  c #64612D",
"j  c #636439",
"k  c #2F4A40",
"l  c #00636D",
"z  c #006771",
"x  c #366A70",
"c  c #626740",
"v  c #8B0902",
"b  c #910202",
"n  c #891A03",
"m  c #A40B09",
"M  c #A71605",
"N  c #B4190D",
"B  c #B21610",
"V  c #8C2F0C",
"C  c #A82508",
"Z  c #B4280A",
"A  c #B93312",
"S  c #C92808",
"D  c #D32904",
"F  c #DE2B02",
"G  c #DB350A",
"H  c #CB3111",
"J  c #C53915",
"K  c #E9380A",
"L  c #FC3B06",
"P  c #8C4702",
"I  c #8A580E",
"U  c #9D5A04",
"Y  c #895D14",
"T  c #AD4B0E",
"R  c #B8471A",
"E  c #94720A",
"W  c #A96704",
"Q  c #B56F05",
"!  c #BC7501",
"~  c #BA7708",
"^  c #A76D15",
"/  c #B16D10",
"(  c #AE7612",
")  c #A55420",
"_  c #8C6B36",
"`  c #A27B35",
"'  c #D9480C",
"]  c #C44915",
"[  c #C64B1B",
"{  c #D64B16",
"}  c #C35011",
"|  c #D75918",
" . c #FD490B",
".. c #E24E13",
"X. c #E55616",
"o. c #F55C14",
"O. c #C47901",
"+. c #C3750C",
"@. c #CD6413",
"#. c #D8671A",
"$. c #DA761E",
"%. c #ED6E1D",
"&. c #C05423",
"*. c #E77C24",
"=. c #886E45",
"-. c #897042",
";. c #A38109",
":. c #B98610",
">. c #90893E",
",. c #A48A2E",
"<. c #BD8720",
"1. c #BFA43D",
"2. c #CC8302",
"3. c #D08D00",
"4. c #DD8E02",
"5. c #C79609",
"6. c #D89708",
"7. c #CD8716",
"8. c #DD9416",
"9. c #E59D02",
"0. c #E79906",
"q. c #E59C15",
"w. c #D5A310",
"e. c #E5A401",
"r. c #EDA304",
"t. c #EDAC02",
"y. c #ECA90B",
"u. c #F4B301",
"i. c #FBBB04",
"p. c #F4B40D",
"a. c #F8BA0A",
"s. c #E8A917",
"d. c #F3AA15",
"f. c #F4A819",
"g. c #E7B216",
"h. c #F7BA13",
"j. c #CB9620",
"k. c #C29C2A",
"l. c #C19E30",
"z. c #D49738",
"x. c #F38628",
"c. c #C3A22E",
"v. c #D2A72F",
"b. c #C5A436",
"n. c #D2A633",
"m. c #D7B53A",
"M. c #E4A925",
"N. c #F3AC21",
"B. c #EEB22B",
"V. c #E9B938",
"C. c #F7B832",
"Z. c #FDC200",
"A. c #FECA01",
"S. c #FEC50B",
"D. c #FFCA0D",
"F. c #FCC414",
"G. c #FECB14",
"H. c #FAC31B",
"J. c #FDCB1D",
"K. c #FFD111",
"L. c #FBC625",
"P. c #FDCD22",
"I. c #FCC52A",
"U. c #FFD225",
"Y. c #FFD827",
"T. c #FFD32C",
"R. c #FFD929",
"E. c #F7C836",
"W. c #FED333",
"Q. c #FFDB35",
"!. c #FDD43A",
"~. c #9C8E50",
"^. c #A58F44",
"/. c #BEA641",
"(. c #C5AA42",
"). c #D3A945",
"_. c #CEB241",
"`. c #DABD54",
"'. c #E1B743",
"]. c #D1B869",
"[. c #E7C246",
"{. c #F2CB44",
"}. c #F6D046",
"|. c #FCD642",
" X c #FDDB45",
".X c #FCDB4B",
"XX c #E5C453",
"oX c #FCDD55",
"OX c #F3D758",
"+X c #FBDF5A",
"@X c #FFE24C",
"#X c #FEE357",
"$X c #FDE25D",
"%X c #F8DA68",
"&X c #EACF77",
"*X c #FCE364",
"=X c #FDE569",
"-X c #FDE976",
";X c #098C90",
":X c #0C9194",
">X c #1C9592",
",X c #1F9994",
"<X c #238B91",
"1X c #329293",
"2X c #00AFBE",
"3X c #00B0BF",
"4X c #00B3C1",
"5X c #0DBCC5",
"6X c #15B5C4",
"7X c #00C4D3",
"8X c #0ACAD7",
"9X c #11C7D6",
"0X c #00E3F4",
"qX c #00EEFF",
"wX c #00F3FF",
"eX c #00F8FF",
"rX c #FEED83",
"tX c #FEF38F",
"yX c #DED2A0",
"uX c #FAECAA",
"iX c #F9F3CF",
/* pixels */
"qXqXqXqXqXqXqXqXqXqXqXqXqXqXqXqXqXqXqXqXqXqXqXqXqXqXqXqXqXqXqXqXqXqXqXqXqXqXqXqXqXqXqXqXqXqXqXqXqXqXqXqXqXqXqXqXqXqXqXqXqXqXqXqX",
"qXqXqXqXqXqXqXqXqXqXqXqXqXqXqXqXqXqXqXqXqXqXqXqXqXqXqXqXqXqXqXqXqXqXqXqXqXqXqXqXqXqXqXqXqXqXqXqXqXqXqXqXqXqXqXqXqXqXqXqXqXqXqXqX",
"qXqXqXqXqXqXqXqXqXqXqXqXqXqXqXqXqXqXqXqXqXqXqXqXqXqXqXqXqXqXqXqXqXqXqXqXqXqXqXqXqXqXqXqXqXqXqXqXqXqXqXqXqXqXqXqXqXqXqXqXqXqXqXqX",
"qXqXqXqXqXqXqXqXqXqXqXqXqXqXqXqXqXqXqXqXqXqXqXqXqXqXqXwXqXwXqXqXqXqXqXqXqXqXqXqXqXqXqXqXqXqXqXqXqXqXqXqXqXqXqXqXqXqXqXqXqXqXqXqX",
"qXqXqXqXqXqXqXqXqXqXqXqXqXqXqXqXqXqXqXqXqXqXqXqXqXqXwXeXwXwXwXqXqXqXqXqXqXqXqXqXqXqXqXqXqXqXqXqXqXqXqXqXqXqXqXqXqXqXqXqXqXqXqXqX",
"qXqXqXqXqXqXqXqXqXqXqXqXqXqXqXqXqXqXqXqXqXqXqXqXwX0X7X3X4X5X0XwXqXqXqXqXqXqXqXqXqXqXqXqXqXqXqXqXqXqXqXqXqXqXqXqXqXqXqXqXqXqXqXqX",
"qXqXqXqXqXqXqXqXqXqXqXqXqXqXqXqXqXqXqXqXqXqXqXwXeX7Xl = & l 7XeXwXqXqXqXqXqXqXqXqXqXqXqXqXqXqXqXqXqXqXqXqXqXqXqXqXqXqXqXqXqXqXqX",
"qXqXqXqXqXqXqXqXqXqXqXqXqXqXqXqXqXqXqXqXwXwXeX0X8X>Xr 3 + y :X7X0XqXqXqXqXqXqXqXqXqXqXqXqXqXqXqXqXqXqXqXqXqXqXqXqXqXqXqXqXqXqXqX",
"qXqXqXqXqXqXqXqXqXqXqXqXqXqXqXqXqXqXqXqXwXeXeX8Xx h ;.5.c.>.y l 7XwXqXqXqXqXqXqXqXqXqXqXqXqXqXqXqXqXqXqXqXqXqXqXqXqXqXqXqXqXqXqX",
"qXqXqXqXqXqXqXqXqXqXqXqXqXqXqXqXqXwXwX0X7X4X7X1Xh W y.Y.@X(.5 ; 4XeXwXqXqXqXqXqXqXqXqXqXqXqXqXqXqXqXqXqXqXqXqXqXqXqXqXqXqXqXqXqX",
"qXqXqXqXqXqXqXqXqXqXqXqXqXqXqXqXwXeXeX7Xl ; t h ;.t.E.@X#X_.i t 5XeXwXqXqXqXqXqXqXqXqXqXqXqXqXqXqXqXqXqXqXqXqXqXqXqXqXqXqXqXqXqX",
"qXqXqXqXqXqXqXqXqXqXqXqXqXqXwX0X7X4X5X>Xr 4 9 ^ g.Y.@X*X$X'.^ h >X7X0XqXqXqXqXqXqXqXqXqXqXqXqXqXqXqXqXqXqXqXqXqXqXqXqXqXqXqXqXqX",
"qXqXqXqXqXqXqXqXqXqXqXqXqXwXeX7Xl ; t h ;.5.v.'.}. X#X+X$X}.g.;.r l 7XwXwXqXqXqXqXqXqXqXqXqXqXqXqXqXqXqXqXqXqXqXqXqXqXqXqXqXqXqX",
"qXqXqXqXqXqXqXqXqXqXqXqXwX0X7X;Xu 5 a ^ g.R.@X$X$X$X+X+X$X@XY.5.4 ; 4XeXwXqXqXqXqXqXqXqXqXqXqXqXqXqXqXqXqXqXqXqXqXqXqXqXqXqXqXqX",
"qXqXqXqXqXqXqXqXqXqXqXwXeX7Xl y >.(._.'.}..X#X$X$X+X+X$X$X#X#Xn.i t 5XeXwXqXqXqXqXqXqXqXqXqXqXqXqXqXqXqXqXqXqXqXqXqXqXqXqXqXqXqX",
"qXqXqXqXqXqXqXqXqXqXqX0X7X:Xy s v.@X@X X.X.X|..XOX+X+XOXXX`.`.z.^ d >X7X0XqXqXqXqXqXqXqXqXqXqXqXqXqXqXqXqXqXqXqXqXqXqXqXqXqXqXqX",
"qXqXqXqXqXqXqXqXqXqXwX4Xz y >.m.H.G.G.G.G.G.G.U..X$X$XXX^.-.=.,.5.;.r l 5XwXqXqXqXqXqXqXqXqXqXqXqXqXqXqXqXqXqXqXqXqXqXqXqXqXqXqX",
"qXqXqXqXqXqXqXqXqXwXeX5X: 5 v.Q.K.Z.Z.Z.Z.Z.Z.F.W..X#X`.-.f f _ g.5.O * 4XeXwXqXqXqXqXqXqXqXqXqXqXqXqXqXqXqXqXqXqXqXqXqXqXqXqXqX",
"qXqXqXqXqXqXqXqXqXwXeX3Xu i w.K.A.Z.Z.A.Z.Z.Z.Z.S.T.oX].-.f f =.'.c.@ - 4XeXwXqXqXqXqXqXqXqXqXqXqXqXqXqXqXqXqXqXqXqXqXqXqXqXqXqX",
"qXqXqXqXqXqXqXqXwX0X9X<X0 V O.r.e.0.0.r.u.a.a.u.r.q.V.).` _ =.~.&X].s e :X7X0XqXqXqXqXqXqXqXqXqXqXqXqXqXqXqXqXqXqXqXqXqXqXqXqXqX",
"qXqXqXqXqXqXqXwXeX9Xx 0 < 2 A [ } [ } @.q.d.d.q.@.[ &./ $.z.].yXiXuXm.E e l 7XwXwXqXqXqXqXqXqXqXqXqXqXqXqXqXqXqXqXqXqXqXqXqXqXqX",
"qXqXqXqXqXqXqX0X7X<Xq b v V R &.&.[ A [ #.$.$.#.[ A H J @.z.&XuXiXuX@X:.+ = 2XwXqXqXqXqXqXqXqXqXqXqXqXqXqXqXqXqXqXqXqXqXqXqXqXqX",
"qXqXqXqXqXwXwX7Xz , C F ' | *.x.x.*.%.| ] R R [ | X.K D C ) `.-XrX-X#Xc.@ = 2XwXqXqXqXqXqXqXqXqXqXqXqXqXqXqXqXqXqXqXqXqXqXqXqXqX",
"qXqXqXqXqXqXeX3X=   S  .o.%.*.*.*.*.X.{ ] J J J X.o.L D v 7 v.@X@XQ.@Xc.5 : 4XeXeXwXwXwXwXqXwXwXqXqXqXqXqXqXqXqXqXqXqXqXqXqXqXqX",
"qXqXqXqXqXqXwX3X&   T o...H Z C C C M Z | X.K K G K L S 1 7 5.G.K.G.K.6.i k 5XeXeXeXeXeXwXwXwXwXqXqXqXqXqXqXqXqXqXqXqXqXqXqXqXqX",
"qXqXqXqXqXwXwX7Xl , T ..G S M b b b b M J ..K K G G D Z 2 P 6.Z.Z.Z.u.3.U d >X4X4X3X4X3X4X3X2X7X0XwXwXwXwXwXqXqXqXqXqXqXqXqXqXqX",
"qXqXqXqXqXqXqX0X7X<Xq C F K S N m b m m M C S H K D n 2 P O.t.Z.Z.u.3.! Q Y w - - - - - = = = l 7XeXeXwXwXwXqXqXqXqXqXqXqXqXqXqX",
"qXqXqXqXqXqXqXwXwX9Xx q Z F G D N B B B m M M Z S M 2 8 O.r.i.i.i.e.2.2.8.<.a $ % % % % % @ + e :X4X4X2X2X7X0XeXqXqXqXqXqXqXqXqX",
"qXqXqXqXqXqXqXqXwX0X9X1Xq m F K H H S S F D M v 1 2 P O.r.i.i.u.9.4.e.g.E.[.b./.1./.1.(.1.c.:.E e = - = = l 7XeXwXqXqXqXqXqXqXqX",
"qXqXqXqXqXqXqXqXqXwXeX6X0 b F  ...{ { G S S M n 7 i O.r.u.i.u.d.s.M.h.U..X+X*X$X$X$X$X*X$X@XR.w.s $ $ $ # u :X7X0XqXqXqXqXqXqXqX",
"qXqXqXqXqXqXqXqXqXwXeX6X0 v ' %.*.*.%.[ n 2 T O.2.6.t.u.d.q.4.q.XX%X.X.XoX$X#X$X$X$X$X$X$X#X.X}._./.(.(.(.>.y l 5XwXqXqXqXqXqXqX",
"qXqXqXqXqXqXqXqXqXqXwX9Xx q R #.*.$.X.R 9 9 +.d.F.G.G.H.C.V.z.V.%X-X*X+X#X$X$X$X$X#X.XQ.@X@X+X$X$X$X$X#X@Xc.+ & 4XeXqXqXqXqXqXqX",
"qXqXqXqXqXqXqXqXqXqXqX0X9X1Xq n V n n V ! w.V.}. X X X.X%X&XrX-X-X%X$X+X+X+X+X+X+X.XL.F.G.U..X+X$X$X$X@XY.5.+ = 4XwXwXqXqXqXqXqX",
"qXqXqXqXqXqXqXqXqXqXwX0X8X>Xf n V V V ) s.Y.@X%X+X+X+X*X-XrXtXrXoX XoXoX+X+XoX+X+X.XP.F.F.J.!..XOX$X@XW.i.:.O & 4XeXwXqXqXqXqXqX",
"qXqXqXqXqXqXqXqXqXwXwX7Xz > I +.z.).).'.{..XoX+X+X+X+X%X=X=X-X#XU.P..X$X+X+X+X+X+XoX.X|. XQ.P.P..X.XT.h.r.Q X = 4XwXwXqXqXqXqXqX",
"qXqXqXqXqXqXqXqXqXwXeX4X- . U s.E..X@X X X.X.XoX+X+X+X+X+XoX.X!.J.P..X%X*X=X*X*X+X+XoXoX.XE.p.F.E.W.D.t.2.I > z 5XwXqXqXqXqXqXqX",
"qXqXqXqXqXqXqXqXqXwXeX4X- X ^ f.h.G.J.G.G.P.W..X+X+X+X+X+X.XP.P.!..XOX*X-XrXrX-X*X#X.XW.P.h.9.0.F.G.A.e.U d >X7X0XqXqXqXqXqXqXqX",
"qXqXqXqXqXqXqXqXqX0X7X;Xw 7 7.p.a.Z.Z.Z.i.S.P.W.|..X.X+X+X.Xh.h.W. X X.X*X=X=X$X.X|.!.W.P.p.4.4.t.A.K.6.8 y 5XeXwXqXqXqXqXqXqXqX",
"qXqXqXqXqXqXqXqXwX7Xz > p ! y.i.Z.Z.Z.Z.Z.Z.S.S.F.J.!..X+X}.B.d.H.F.F.J.J.P.P.J.F.J.W.!..XE.8.4.t.D.U.j.5 : 4XeXwXqXqXqXqXqXqXqX",
"qXqXqXqXqXqXqXwXwX4X= X W 0.i.Z.Z.Z.Z.Z.Z.Z.Z.Z.i.S.L.W.|.E.C.f.p.i.Z.Z.Z.Z.S.D.F.H.I.C.{.V.s.9.u.D.J.<.O = 4XeXwXqXqXqXqXqXqXqX",
"qXqXqXqXqXqXqXwXeX4X= X / f.i.Z.Z.Z.Z.Z.Z.Z.Z.Z.i.Z.S.S.F.P.E.C.N.d.i.Z.Z.S.P.T.|.E.s.8.8.s.r.u.Z.i.y./ X & 4XwXqXqXqXqXqXqXqXqX",
"qXqXqXqXqXqXqXwXwX4X- O / f.a.Z.Z.Z.Z.Z.Z.Z.Z.Z.Z.Z.Z.Z.Z.S.P.I.N.d.p.a.u.p.B.E.{.V.q.4.4.9.u.A.D.y.2.Y w l 7XwXwXqXqXqXqXqXqXqX",
"qXqXqXqXqXqXqXwXwX4X- O ( N.a.Z.Z.Z.Z.Z.Z.Z.Z.Z.Z.Z.Z.Z.Z.Z.S.S.a.p.d.s.0.4.8.8.8.q.y.u.u.u.i.D.P.M.U g >X7X0XqXqXqXqXqXqXqXqXqX",
"qXqXqXqXqXqXqXqXwX4X- o / f.a.Z.Z.Z.Z.Z.Z.Z.i.Z.Z.Z.Z.Z.Z.Z.Z.Z.Z.i.d.q.0.4.4.4.4.9.u.Z.Z.Z.S.F.L.j.8 t 5XeXwXqXqXqXqXqXqXqXqXqX",
"qXqXqXqXqXqXqXwXwX3X= . W 0.u.Z.Z.Z.Z.Z.Z.Z.Z.Z.Z.Z.Z.Z.Z.Z.Z.Z.Z.Z.i.a.u.u.u.u.u.u.Z.Z.Z.S.P.I.f.Q 3 ; 4XeXwXqXqXqXqXqXqXqXqXqX",
"qXqXqXqXqXqXqXqXwX7Xl w Y 2.u.A.Z.Z.Z.Z.Z.Z.Z.Z.Z.i.Z.Z.Z.Z.Z.Z.Z.Z.Z.Z.Z.Z.Z.Z.Z.Z.Z.Z.S.F.I.M.~ p > l 7XwXqXqXqXqXqXqXqXqXqXqX",
"qXqXqXqXqXqXqXqXqX0X7X>Xd U e.A.Z.Z.Z.Z.i.Z.Z.Z.Z.Z.Z.Z.Z.Z.Z.i.Z.Z.Z.Z.Z.Z.Z.Z.Z.Z.Z.S.P.I.f.~ 6 > ;X7X0XqXqXqXqXqXqXqXqXqXqXqX",
"qXqXqXqXqXqXqXqXqXeXeX5Xt 8 3.Z.A.Z.Z.Z.Z.Z.Z.Z.Z.Z.Z.Z.Z.Z.Z.Z.Z.Z.Z.Z.i.Z.Z.Z.Z.Z.G.J.W.M.~ p > z 7XeXwXqXqXqXqXqXqXqXqXqXqXqX",
"qXqXqXqXqXqXqXqXqXwXeX4X: 3 Q r.Z.A.Z.Z.Z.Z.Z.Z.Z.Z.Z.Z.Z.Z.Z.Z.Z.Z.Z.Z.Z.Z.Z.Z.Z.F.!.}.C.7.6 > ;X7X0XwXqXqXqXqXqXqXqXqXqXqXqXqX",
"qXqXqXqXqXqXqXqXqXwXqX7Xl > p ! e.i.D.S.Z.Z.A.Z.Z.Z.Z.Z.Z.Z.Z.Z.Z.Z.Z.Z.S.G.G.G.G.L.V.z.j.Y w l 7XeXwXqXqXqXqXqXqXqXqXqXqXqXqXqX",
"qXqXqXqXqXqXqXqXqXqXqX0X7X;X> 6 ! y.L.Y.K.A.A.Z.Z.Z.Z.i.Z.Z.Z.Z.Z.Z.Z.S.P.W. X XQ.M.^ 9 3 > ;X7X0XwXqXqXqXqXqXqXqXqXqXqXqXqXqXqX",
"qXqXqXqXqXqXqXqXqXqXqXwXeX7Xl > p Q j.M.p.Z.D.K.D.D.D.D.D.G.G.G.G.G.G.H.M.n.b.(.c.,.j k : z 7XeXwXqXqXqXqXqXqXqXqXqXqXqXqXqXqXqX",
"qXqXqXqXqXqXqXqXqXqXqXqXwX0X7X;X> 3 8 U 2.y.L.W.T.W.T.T.T.W. X@X.X@X@XV.^ a 5 $ + u ,X5X4X7X0XwXqXqXqXqXqXqXqXqXqXqXqXqXqXqXqXqX",
"qXqXqXqXqXqXqXqXqXqXqXqXqXwXeX7Xl : t g Y Q <.k.k.k.k.k.k.l.1./.(./.(.>.c k : & = l 7XeXeXwXqXqXqXqXqXqXqXqXqXqXqXqXqXqXqXqXqXqX",
"qXqXqXqXqXqXqXqXqXqXqXqXqXqXwX0X7X4X5X>X> o + @ @ @ @ @ @ @ # % % % 5 u ,X5X4X3X2X7X0XeXwXwXqXqXqXqXqXqXqXqXqXqXqXqXqXqXqXqXqXqX",
"qXqXqXqXqXqXqXqXqXqXqXqXqXqXqXwXwXeXeX7Xl = = = - - - - - - - - - = = l 7XeXeXwXwXwXqXqXqXqXqXqXqXqXqXqXqXqXqXqXqXqXqXqXqXqXqXqX",
"qXqXqXqXqXqXqXqXqXqXqXqXqXqXqXqXqXwXwX0X7X2X4X4X4X4X4X4X4X4X4X4X4X4X2X5X0XwXwXwXqXqXqXqXqXqXqXqXqXqXqXqXqXqXqXqXqXqXqXqXqXqXqXqX",
"qXqXqXqXqXqXqXqXqXqXqXqXqXqXqXqXqXqXqXqXwXwXwXwXwXwXwXwXwXwXwXwXwXeXwXwXwXqXqXqXqXqXqXqXqXqXqXqXqXqXqXqXqXqXqXqXqXqXqXqXqXqXqXqX",
"qXqXqXqXqXqXqXqXqXqXqXqXqXqXqXqXqXqXqXqXqXwXwXwXwXwXwXqXqXwXqXwXwXqXwXwXqXqXqXqXqXqXqXqXqXqXqXqXqXqXqXqXqXqXqXqXqXqXqXqXqXqXqXqX",
"qXqXqXqXqXqXqXqXqXqXqXqXqXqXqXqXqXqXqXqXqXqXqXqXqXqXqXqXqXqXqXqXqXqXqXqXqXqXqXqXqXqXqXqXqXqXqXqXqXqXqXqXqXqXqXqXqXqXqXqXqXqXqXqX",
"qXqXqXqXqXqXqXqXqXqXqXqXqXqXqXqXqXqXqXqXqXqXqXqXqXqXqXqXqXqXqXqXqXqXqXqXqXqXqXqXqXqXqXqXqXqXqXqXqXqXqXqXqXqXqXqXqXqXqXqXqXqXqXqX",
"qXqXqXqXqXqXqXqXqXqXqXqXqXqXqXqXqXqXqXqXqXqXqXqXqXqXqXqXqXqXqXqXqXqXqXqXqXqXqXqXqXqXqXqXqXqXqXqXqXqXqXqXqXqXqXqXqXqXqXqXqXqXqXqX",
"qXqXqXqXqXqXqXqXqXqXqXqXqXqXqXqXqXqXqXqXqXqXqXqXqXqXqXqXqXqXqXqXqXqXqXqXqXqXqXqXqXqXqXqXqXqXqXqXqXqXqXqXqXqXqXqXqXqXqXqXqXqXqXqX",
"qXqXqXqXqXqXqXqXqXqXqXqXqXqXqXqXqXqXqXqXqXqXqXqXqXqXqXqXqXqXqXqXqXqXqXqXqXqXqXqXqXqXqXqXqXqXqXqXqXqXqXqXqXqXqXqXqXqXqXqXqXqXqXqX"
};
