/* XPM */
static char *rubber_duck_resized[] = {
/* columns rows colors chars-per-pixel */
"64 64 219 2 ",
"   c None",
".  c #000000",
"X  c #0D0100",
"o  c #2B1901",
"O  c #281700",
"+  c #3D1301",
"@  c #331D02",
"#  c #3B1805",
"$  c #3F0B00",
"%  c #342304",
"&  c #3B2D02",
"*  c #382807",
"=  c #3C310F",
"-  c #3C3004",
";  c #322E14",
":  c #363115",
">  c #3B3414",
",  c #581803",
"<  c #630000",
"1  c #6C0501",
"2  c #741C01",
"3  c #7B1903",
"4  c #7E0300",
"5  c #432A03",
"6  c #482D0B",
"7  c #4B3507",
"8  c #4B3A14",
"9  c #5B3903",
"0  c #6B2902",
"q  c #6F3302",
"w  c #643F06",
"e  c #7A3407",
"r  c #6D400D",
"t  c #724305",
"y  c #7B4301",
"u  c #7C4A02",
"i  c #79450D",
"p  c #6E4513",
"a  c #684A18",
"s  c #715115",
"d  c #5F4637",
"f  c #6B5C21",
"g  c #870B01",
"h  c #920103",
"j  c #881905",
"k  c #A20B0B",
"l  c #AB0D03",
"z  c #A51405",
"x  c #A81B05",
"c  c #B4190D",
"v  c #B21610",
"b  c #862107",
"n  c #8B300D",
"m  c #A82408",
"M  c #B2280A",
"N  c #BE2910",
"B  c #BB3918",
"V  c #B53809",
"C  c #C92608",
"Z  c #D62A04",
"A  c #D9350A",
"S  c #C02911",
"D  c #C53915",
"F  c #D63810",
"G  c #E9380A",
"H  c #FC3B06",
"J  c #814600",
"K  c #964A02",
"L  c #925302",
"P  c #9B5E08",
"I  c #8B5A13",
"U  c #B8490E",
"Y  c #BB4416",
"T  c #A74C0D",
"R  c #977200",
"E  c #9A6715",
"W  c #A56A09",
"Q  c #AB7B00",
"!  c #AE710A",
"~  c #B97706",
"^  c #A46F16",
"/  c #A87019",
"(  c #B57313",
")  c #A55420",
"_  c #8C6B36",
"`  c #A27B36",
"'  c #C64B1B",
"]  c #C44915",
"[  c #D64C15",
"{  c #C35011",
"}  c #D75918",
"|  c #D5490F",
" . c #FD490A",
".. c #E34D13",
"X. c #E55616",
"o. c #F55C14",
"O. c #C37A02",
"+. c #CD6413",
"@. c #D8671A",
"#. c #C17913",
"$. c #DA761E",
"%. c #C66D01",
"&. c #ED6E1D",
"*. c #C05423",
"=. c #C97227",
"-. c #E77C24",
";. c #886E45",
":. c #897042",
">. c #BA8300",
",. c #B98219",
"<. c #958538",
"1. c #B98B24",
"2. c #BF9D2D",
"3. c #B19130",
"4. c #BFA332",
"5. c #BCA53F",
"6. c #CC8403",
"7. c #CE8E00",
"8. c #DD8E02",
"9. c #D08D00",
"0. c #C1990E",
"q. c #CB9609",
"w. c #DA9506",
"e. c #CE9A11",
"r. c #DD9416",
"t. c #CB841A",
"y. c #E59C03",
"u. c #E79906",
"i. c #E59C15",
"p. c #DBA305",
"a. c #D2A513",
"s. c #E5A301",
"d. c #EDA304",
"f. c #EDAC02",
"g. c #EEA90B",
"h. c #E6A80D",
"j. c #EFB30A",
"k. c #F4B301",
"l. c #FBBB04",
"z. c #F8B80B",
"x. c #E7A918",
"c. c #F3AA15",
"v. c #F4A819",
"b. c #F6B914",
"n. c #E1B21C",
"m. c #C89824",
"M. c #D49738",
"N. c #EE892B",
"B. c #F78324",
"V. c #DFAC24",
"C. c #C7A537",
"Z. c #D2A933",
"A. c #CFB33B",
"S. c #DFBA3D",
"D. c #E4A928",
"F. c #F3AC21",
"G. c #EAB938",
"H. c #F7B832",
"J. c #EEB22B",
"K. c #FDC200",
"L. c #FECA01",
"P. c #FEC50B",
"I. c #FFCA0D",
"U. c #FCC514",
"Y. c #FECB14",
"T. c #FBC31B",
"R. c #FDCC1D",
"E. c #F6C31C",
"W. c #FFD111",
"Q. c #FDCD22",
"!. c #FCC529",
"~. c #FAC625",
"^. c #FFD225",
"/. c #FFD32C",
"(. c #FFD929",
"). c #FFD827",
"_. c #F7C836",
"`. c #FED333",
"'. c #FFDB35",
"]. c #FDD43A",
"[. c #BBA643",
"{. c #BDA946",
"}. c #A99361",
"|. c #A88D47",
" X c #C8AC45",
".X c #D4A647",
"XX c #CAB144",
"oX c #DEBB45",
"OX c #D8BE54",
"+X c #DFB654",
"@X c #E3B344",
"#X c #D0B969",
"$X c #EAC845",
"%X c #F3CA44",
"&X c #F5D045",
"*X c #FCD642",
"=X c #FDDB45",
"-X c #FCDB4B",
";X c #F8D14C",
":X c #E5C453",
">X c #FCDD55",
",X c #FBDF5A",
"<X c #F3D758",
"1X c #FFE24C",
"2X c #FEE257",
"3X c #FDE25D",
"4X c #F8DA68",
"5X c #F7DD7B",
"6X c #EACF77",
"7X c #FCE364",
"8X c #FDE569",
"9X c #FEEA79",
"0X c #FCE874",
"qX c #FEED83",
"wX c #FEF38F",
"eX c #DED2A0",
"rX c #F7E9A8",
"tX c #FFF2AF",
"yX c #F9F3CF",
/* pixels */
"                                                                                                                                ",
"                                                                                                                                ",
"                                                                                                                                ",
"                                                                                                                                ",
"                                                                                                                                ",
"                                                                                                                                ",
"                                                    . . . .                                                                     ",
"                                                    & & > :                                                                     ",
"                                                , t >.1.4.<.: .                                                                 ",
"                                                y R h.(.2X X8 X                                                                 ",
"                                        . X + y >.h.`.1X2XXXa +                                                                 ",
"                                        & 7 p ^ n.).1X3X3X@X^ y                                                                 ",
"                                . X + e Q 0.Z.oX&X-X>X3X3X&Xx.Q & .                                                             ",
"                                : 8 a ^ x.).1X3X,X,X,X,X3X-X).0.7 X                                                             ",
"                            . ; <. XXXoX&X1X3X3X3X,X,X3X3X2X1XZ.p +                                                             ",
"                            ; f A.1X-X=X-X*X*X-X>X,X,X<X:XOXOXC.E y                                                             ",
"                        . : <.A.~.Y.Y.Y.Y.Y.Y.Q.-X3X3X:X|.:.:.` 0.>.5 .                                                         ",
"                        X 8 C.'.W.K.K.K.K.K.K.U.`.-X2XOX:.d d _ n.1.- .                                                         ",
"                        # t a.W.L.L.K.K.K.K.K.K.P.^.2XOX:.d d ;.S.4.= .                                                         ",
"                        , n 6.s.y.u.y.g.k.l.z.k.d.x.G..X` _ ;.}.6X#Xf %                                                         ",
"                    < < < 3 V { { ] { +.i.c.c.i.+.Y *.*.t.M.#XeXyXrXA.R & .                                                     ",
"                    g g j n B ' ' ' D ' @.$.$.@.' D S ] @.M.6XrXyXtX1X>.& .                                                     ",
"                . $ x A | } -.N.N.-.&.} ' Y Y ' } X.G Z m ) +X0XqX0X2X4.= .                                                     ",
"                . # C  .o.&.$.N.-.-.} [ ' D S ] X.o.H Z 4 e Z.=X=X1X1XC.8 X                                                     ",
"                . # U o...D M M m m x M [ X.G G F F H Z < 0 e.Y.W.Y.Y.a.t +                                                     ",
"                . # T [ A C l h h h h z ] .. .G Z A Z m 2 J w.L.K.K.k.7.L q                                                     ",
"                    3 m Z G C c k k k k z m N F G Z g 2 K O.f.K.L.k.9.O.~ L @ . . . . . . . . .                                 ",
"                    < g C Z A Z v v v v l k z M C m 2 e O.d.l.l.k.s.6.6.r.,.a : > > > > > > & &                                 ",
"                        g z Z G S S N C Z Z l g 1 2 K O.y.l.l.l.y.8.s.j._.$X X[.[.[.[.{.5.4.1.R % . . . . .                     ",
"                        < g A  .X.[ [ F Z C m b 0 J O.d.j.l.l.g.x.D.b.^.*X3X3X3X3X2X3X3X2X1X).a.s : > > > :                     ",
"                        < j | &.B.-.&.[ 3 3 T %.6.w.f.k.c.i.u.i.:X4X-X-X>X3X3X3X3X3X3X3X2X2X1X%XXX{.[.{.{.<.: .                 ",
"                        < j Y } $.$.X.Y e y #.c.U.W.W.E.H.D.M.@X4X9X7X,X,X,X,X,X3X2X=X].1X1X3X3X3X3X3X2X1XC.> .                 ",
"                            j j b b j n ~ a.G.;X*X=X*X>X4X6XqX0X0X7X3X,X,X,X,X,X,X-X~.U.I.^.-X3X3X3X3X1X).,.- .                 ",
"                            2 j n n n ) h.).1X3X7X,X,X7X9XqXwXqX,X*X>X>X,X,X>X,X,X-XQ.U.U.Q.].-X<X3X-X`.P.>.- .                 ",
"                        . @ K #.M..X.X@X%X-X,X,X,X,X,X,X7X8X0X3XQ.Q.-X3X,X,X,X,X,X>X-X*X=X'.R.^.-X-X^.b.d.W % .                 ",
"                        . @ W x.].1X-X=X=X-X-X>X,X,X,X,X,X,X-X`.Q.Q.-X4X7X8X7X7X,X,X>X>X-X_.j.U.].`.I.f.6.L @ .                 ",
"                        . % / v.T.Y.Y.Y.Y.Q.`.;X,X,X,X,X,X-XQ.R.].-X>X7X9XqXqX0X8X>X-X].Q.b.u.y.b.I.L.p.P q                     ",
"                        o w t.c.l.K.K.K.K.P.Q.`.].-X>X,X3X*Xb.T._.=X=X-X7X8X8X3X-X].].`.R.b.w.8.k.L.I.e.t +                     ",
"                    . o J ~ h.K.l.K.K.K.l.K.P.P.U.R.`.-X3X;XJ.c.E.Y.U.R.R.Q.Q.R.Y.R.`.*X=X_.r.8.f.I.^.e.7 X                     ",
"                    . % W u.l.K.K.K.K.K.K.K.K.K.K.P.R._.].%XH.F.j.l.K.K.K.K.P.I.I.U.H.H.%XG.i.s.k.P.~.1.= .                     ",
"                    . % / v.l.K.K.K.K.K.K.K.K.K.K.K.P.P.Y.R.!.H.F.c.l.K.K.P.Q./.*X_.x.r.r.i.f.k.l.l.g.^ % .                     ",
"                    . * ( v.z.K.K.K.K.K.K.K.K.K.K.K.K.l.K.P.Q.!.F.c.j.l.k.g.J._.%XG.i.8.8.y.k.L.I.j.6.L @ .                     ",
"                    . * ( F.z.K.K.K.K.K.K.K.K.K.K.K.K.K.K.K.P.P.z.z.v.i.u.8.r.r.r.i.g.k.k.k.l.P.Q.D.P q                         ",
"                    . % / v.z.K.K.K.K.K.K.K.K.l.K.K.K.l.K.l.K.K.K.l.c.v.u.8.8.8.8.y.k.K.K.K.I.Y.~.m.r +                         ",
"                    . @ W u.l.K.K.K.K.K.K.K.K.K.K.K.K.K.K.K.K.K.K.l.l.z.k.k.k.k.k.k.l.K.K.I.^.!.v.! 5 X                         ",
"                    . @ L 6.k.L.K.K.K.K.K.K.K.K.K.K.K.K.l.K.K.K.K.K.K.K.K.K.K.K.K.K.K.K.P.U.!.D.~ u o .                         ",
"                        q P p.L.K.K.K.K.l.K.K.K.K.K.K.K.K.K.K.K.K.K.K.K.K.K.K.K.K.K.K.P.Q.!.v.~ 9 o                             ",
"                        5 w 7.K.L.K.K.K.K.K.K.K.K.K.K.K.K.K.K.K.K.K.K.K.K.K.K.K.K.L.Y.R./.D.( u O .                             ",
"                        X 5 ! d.K.L.K.K.K.K.K.K.K.K.K.K.K.K.K.K.K.K.K.K.K.K.K.K.K.Y.`.&X_.t.w O                                 ",
"                        . o u ~ s.l.P.I.L.K.L.K.K.K.K.K.l.K.K.K.K.K.K.K.P.Y.Y.Y.Y.b.S..X1.I o .                                 ",
"                            o 9 ~ g.~.^.I.L.L.K.K.K.K.l.K.K.K.K.K.K.K.P.Q.`.*X=X'.D./ a 6 #                                     ",
"                            . o u ! m.D.j.K.I.W.I.I.I.I.I.Y.Y.Y.Y.Y.Y.E.D.Z. X[.4.1.i + X .                                     ",
"                                o 5 p P 6.g.~././.`./././.`.].1X-X1X1XG./ p 8 > : =                                             ",
"                                . X + q L ! 1.2.m.2.2.2.2.4.[.{.{.{.{.3.i + X . . .                                             ",
"                                        @ % = = > = = = = > > > > > : >                                                         ",
"                                        . . . . . . . . . . . . . . . .                                                         ",
"                                                                                                                                ",
"                                                                                                                                ",
"                                                                                                                                ",
"                                                                                                                                ",
"                                                                                                                                ",
"                                                                                                                                ",
"                                                                                                                                ",
"                                                                                                                                "
};
